  0
SECTION
  2
BLOCKS
  0
ENDSEC
  0
SECTION
  2
ENTITIES
  0
LINE
  8
0
 10
0
 20
0
 11
350
 21
0
  0
LINE
  8
0
 10
350
 20
0
 11
350
 21
2
  0
LINE
  8
0
 10
350
 20
2
 11
312
 21
2
  0
LINE
  8
0
 10
312
 20
2
 11
312
 21
3
  0
LINE
  8
0
 10
312
 20
3
 11
350
 21
3
  0
LINE
  8
0
 10
350
 20
3
 11
350
 21
4
  0
LINE
  8
0
 10
350
 20
4
 11
314
 21
4
  0
LINE
  8
0
 10
314
 20
4
 11
314
 21
5
  0
LINE
  8
0
 10
314
 20
5
 11
350
 21
5
  0
LINE
  8
0
 10
350
 20
5
 11
350
 21
6
  0
LINE
  8
0
 10
350
 20
6
 11
312
 21
6
  0
LINE
  8
0
 10
312
 20
6
 11
312
 21
7
  0
LINE
  8
0
 10
312
 20
7
 11
350
 21
7
  0
LINE
  8
0
 10
350
 20
7
 11
350
 21
8
  0
LINE
  8
0
 10
350
 20
8
 11
314
 21
8
  0
LINE
  8
0
 10
314
 20
8
 11
314
 21
9
  0
LINE
  8
0
 10
314
 20
9
 11
350
 21
9
  0
LINE
  8
0
 10
350
 20
9
 11
350
 21
10
  0
LINE
  8
0
 10
350
 20
10
 11
312
 21
10
  0
LINE
  8
0
 10
312
 20
10
 11
312
 21
11
  0
LINE
  8
0
 10
312
 20
11
 11
350
 21
11
  0
LINE
  8
0
 10
350
 20
11
 11
350
 21
12
  0
LINE
  8
0
 10
350
 20
12
 11
314
 21
12
  0
LINE
  8
0
 10
314
 20
12
 11
314
 21
13
  0
LINE
  8
0
 10
314
 20
13
 11
350
 21
13
  0
LINE
  8
0
 10
350
 20
13
 11
350
 21
14
  0
LINE
  8
0
 10
350
 20
14
 11
312
 21
14
  0
LINE
  8
0
 10
312
 20
14
 11
312
 21
15
  0
LINE
  8
0
 10
312
 20
15
 11
350
 21
15
  0
LINE
  8
0
 10
350
 20
15
 11
350
 21
16
  0
LINE
  8
0
 10
350
 20
16
 11
314
 21
16
  0
LINE
  8
0
 10
314
 20
16
 11
314
 21
17
  0
LINE
  8
0
 10
314
 20
17
 11
350
 21
17
  0
LINE
  8
0
 10
350
 20
17
 11
350
 21
18
  0
LINE
  8
0
 10
350
 20
18
 11
312
 21
18
  0
LINE
  8
0
 10
312
 20
18
 11
312
 21
19
  0
LINE
  8
0
 10
312
 20
19
 11
350
 21
19
  0
LINE
  8
0
 10
350
 20
19
 11
350
 21
20
  0
LINE
  8
0
 10
350
 20
20
 11
314
 21
20
  0
LINE
  8
0
 10
314
 20
20
 11
314
 21
21
  0
LINE
  8
0
 10
314
 20
21
 11
350
 21
21
  0
LINE
  8
0
 10
350
 20
21
 11
350
 21
22
  0
LINE
  8
0
 10
350
 20
22
 11
312
 21
22
  0
LINE
  8
0
 10
312
 20
22
 11
312
 21
23
  0
LINE
  8
0
 10
312
 20
23
 11
350
 21
23
  0
LINE
  8
0
 10
350
 20
23
 11
350
 21
24
  0
LINE
  8
0
 10
350
 20
24
 11
314
 21
24
  0
LINE
  8
0
 10
314
 20
24
 11
314
 21
25
  0
LINE
  8
0
 10
314
 20
25
 11
350
 21
25
  0
LINE
  8
0
 10
350
 20
25
 11
350
 21
26
  0
LINE
  8
0
 10
350
 20
26
 11
312
 21
26
  0
LINE
  8
0
 10
312
 20
26
 11
312
 21
27
  0
LINE
  8
0
 10
312
 20
27
 11
350
 21
27
  0
LINE
  8
0
 10
350
 20
27
 11
350
 21
28
  0
LINE
  8
0
 10
350
 20
28
 11
314
 21
28
  0
LINE
  8
0
 10
314
 20
28
 11
314
 21
29
  0
LINE
  8
0
 10
314
 20
29
 11
350
 21
29
  0
LINE
  8
0
 10
350
 20
29
 11
350
 21
30
  0
LINE
  8
0
 10
350
 20
30
 11
312
 21
30
  0
LINE
  8
0
 10
312
 20
30
 11
312
 21
31
  0
LINE
  8
0
 10
312
 20
31
 11
350
 21
31
  0
LINE
  8
0
 10
350
 20
31
 11
350
 21
32
  0
LINE
  8
0
 10
350
 20
32
 11
314
 21
32
  0
LINE
  8
0
 10
314
 20
32
 11
314
 21
33
  0
LINE
  8
0
 10
314
 20
33
 11
350
 21
33
  0
LINE
  8
0
 10
350
 20
33
 11
350
 21
34
  0
LINE
  8
0
 10
350
 20
34
 11
312
 21
34
  0
LINE
  8
0
 10
312
 20
34
 11
312
 21
35
  0
LINE
  8
0
 10
312
 20
35
 11
350
 21
35
  0
LINE
  8
0
 10
350
 20
35
 11
350
 21
36
  0
LINE
  8
0
 10
350
 20
36
 11
314
 21
36
  0
LINE
  8
0
 10
314
 20
36
 11
314
 21
37
  0
LINE
  8
0
 10
314
 20
37
 11
350
 21
37
  0
LINE
  8
0
 10
350
 20
37
 11
350
 21
38
  0
LINE
  8
0
 10
350
 20
38
 11
312
 21
38
  0
LINE
  8
0
 10
312
 20
38
 11
312
 21
39
  0
LINE
  8
0
 10
312
 20
39
 11
350
 21
39
  0
LINE
  8
0
 10
350
 20
39
 11
350
 21
40
  0
LINE
  8
0
 10
350
 20
40
 11
314
 21
40
  0
LINE
  8
0
 10
314
 20
40
 11
314
 21
41
  0
LINE
  8
0
 10
314
 20
41
 11
350
 21
41
  0
LINE
  8
0
 10
350
 20
41
 11
350
 21
42
  0
LINE
  8
0
 10
350
 20
42
 11
312
 21
42
  0
LINE
  8
0
 10
312
 20
42
 11
312
 21
43
  0
LINE
  8
0
 10
312
 20
43
 11
350
 21
43
  0
LINE
  8
0
 10
350
 20
43
 11
350
 21
44
  0
LINE
  8
0
 10
350
 20
44
 11
314
 21
44
  0
LINE
  8
0
 10
314
 20
44
 11
314
 21
45
  0
LINE
  8
0
 10
314
 20
45
 11
350
 21
45
  0
LINE
  8
0
 10
350
 20
45
 11
350
 21
46
  0
LINE
  8
0
 10
350
 20
46
 11
312
 21
46
  0
LINE
  8
0
 10
312
 20
46
 11
312
 21
47
  0
LINE
  8
0
 10
312
 20
47
 11
350
 21
47
  0
LINE
  8
0
 10
350
 20
47
 11
350
 21
48
  0
LINE
  8
0
 10
350
 20
48
 11
314
 21
48
  0
LINE
  8
0
 10
314
 20
48
 11
314
 21
49
  0
LINE
  8
0
 10
314
 20
49
 11
350
 21
49
  0
LINE
  8
0
 10
350
 20
49
 11
350
 21
50
  0
LINE
  8
0
 10
350
 20
50
 11
312
 21
50
  0
LINE
  8
0
 10
312
 20
50
 11
312
 21
51
  0
LINE
  8
0
 10
312
 20
51
 11
350
 21
51
  0
LINE
  8
0
 10
350
 20
51
 11
350
 21
52
  0
LINE
  8
0
 10
350
 20
52
 11
314
 21
52
  0
LINE
  8
0
 10
314
 20
52
 11
314
 21
53
  0
LINE
  8
0
 10
314
 20
53
 11
350
 21
53
  0
LINE
  8
0
 10
350
 20
53
 11
350
 21
54
  0
LINE
  8
0
 10
350
 20
54
 11
312
 21
54
  0
LINE
  8
0
 10
312
 20
54
 11
312
 21
55
  0
LINE
  8
0
 10
312
 20
55
 11
350
 21
55
  0
LINE
  8
0
 10
350
 20
55
 11
350
 21
56
  0
LINE
  8
0
 10
350
 20
56
 11
314
 21
56
  0
LINE
  8
0
 10
314
 20
56
 11
314
 21
57
  0
LINE
  8
0
 10
314
 20
57
 11
350
 21
57
  0
LINE
  8
0
 10
350
 20
57
 11
350
 21
58
  0
LINE
  8
0
 10
350
 20
58
 11
312
 21
58
  0
LINE
  8
0
 10
312
 20
58
 11
312
 21
59
  0
LINE
  8
0
 10
312
 20
59
 11
350
 21
59
  0
LINE
  8
0
 10
350
 20
59
 11
350
 21
60
  0
LINE
  8
0
 10
350
 20
60
 11
314
 21
60
  0
LINE
  8
0
 10
314
 20
60
 11
314
 21
61
  0
LINE
  8
0
 10
314
 20
61
 11
350
 21
61
  0
LINE
  8
0
 10
350
 20
61
 11
350
 21
62
  0
LINE
  8
0
 10
350
 20
62
 11
312
 21
62
  0
LINE
  8
0
 10
312
 20
62
 11
312
 21
63
  0
LINE
  8
0
 10
312
 20
63
 11
350
 21
63
  0
LINE
  8
0
 10
350
 20
63
 11
350
 21
64
  0
LINE
  8
0
 10
350
 20
64
 11
314
 21
64
  0
LINE
  8
0
 10
314
 20
64
 11
314
 21
65
  0
LINE
  8
0
 10
314
 20
65
 11
350
 21
65
  0
LINE
  8
0
 10
350
 20
65
 11
350
 21
66
  0
LINE
  8
0
 10
350
 20
66
 11
312
 21
66
  0
LINE
  8
0
 10
312
 20
66
 11
312
 21
67
  0
LINE
  8
0
 10
312
 20
67
 11
350
 21
67
  0
LINE
  8
0
 10
350
 20
67
 11
350
 21
68
  0
LINE
  8
0
 10
350
 20
68
 11
314
 21
68
  0
LINE
  8
0
 10
314
 20
68
 11
314
 21
69
  0
LINE
  8
0
 10
314
 20
69
 11
350
 21
69
  0
LINE
  8
0
 10
350
 20
69
 11
350
 21
70
  0
LINE
  8
0
 10
350
 20
70
 11
312
 21
70
  0
LINE
  8
0
 10
312
 20
70
 11
312
 21
71
  0
LINE
  8
0
 10
312
 20
71
 11
350
 21
71
  0
LINE
  8
0
 10
350
 20
71
 11
350
 21
72
  0
LINE
  8
0
 10
350
 20
72
 11
314
 21
72
  0
LINE
  8
0
 10
314
 20
72
 11
314
 21
73
  0
LINE
  8
0
 10
314
 20
73
 11
350
 21
73
  0
LINE
  8
0
 10
350
 20
73
 11
350
 21
74
  0
LINE
  8
0
 10
350
 20
74
 11
312
 21
74
  0
LINE
  8
0
 10
312
 20
74
 11
312
 21
75
  0
LINE
  8
0
 10
312
 20
75
 11
350
 21
75
  0
LINE
  8
0
 10
350
 20
75
 11
350
 21
76
  0
LINE
  8
0
 10
350
 20
76
 11
314
 21
76
  0
LINE
  8
0
 10
314
 20
76
 11
314
 21
77
  0
LINE
  8
0
 10
314
 20
77
 11
350
 21
77
  0
LINE
  8
0
 10
350
 20
77
 11
350
 21
78
  0
LINE
  8
0
 10
350
 20
78
 11
312
 21
78
  0
LINE
  8
0
 10
312
 20
78
 11
312
 21
79
  0
LINE
  8
0
 10
312
 20
79
 11
350
 21
79
  0
LINE
  8
0
 10
350
 20
79
 11
350
 21
80
  0
LINE
  8
0
 10
350
 20
80
 11
314
 21
80
  0
LINE
  8
0
 10
314
 20
80
 11
314
 21
81
  0
LINE
  8
0
 10
314
 20
81
 11
350
 21
81
  0
LINE
  8
0
 10
350
 20
81
 11
350
 21
82
  0
LINE
  8
0
 10
350
 20
82
 11
312
 21
82
  0
LINE
  8
0
 10
312
 20
82
 11
312
 21
83
  0
LINE
  8
0
 10
312
 20
83
 11
350
 21
83
  0
LINE
  8
0
 10
350
 20
83
 11
350
 21
84
  0
LINE
  8
0
 10
350
 20
84
 11
314
 21
84
  0
LINE
  8
0
 10
314
 20
84
 11
314
 21
85
  0
LINE
  8
0
 10
314
 20
85
 11
350
 21
85
  0
LINE
  8
0
 10
350
 20
85
 11
350
 21
86
  0
LINE
  8
0
 10
350
 20
86
 11
312
 21
86
  0
LINE
  8
0
 10
312
 20
86
 11
312
 21
87
  0
LINE
  8
0
 10
312
 20
87
 11
350
 21
87
  0
LINE
  8
0
 10
350
 20
87
 11
350
 21
88
  0
LINE
  8
0
 10
350
 20
88
 11
314
 21
88
  0
LINE
  8
0
 10
314
 20
88
 11
314
 21
89
  0
LINE
  8
0
 10
314
 20
89
 11
350
 21
89
  0
LINE
  8
0
 10
350
 20
89
 11
350
 21
90
  0
LINE
  8
0
 10
350
 20
90
 11
312
 21
90
  0
LINE
  8
0
 10
312
 20
90
 11
312
 21
91
  0
LINE
  8
0
 10
312
 20
91
 11
350
 21
91
  0
LINE
  8
0
 10
350
 20
91
 11
350
 21
92
  0
LINE
  8
0
 10
350
 20
92
 11
314
 21
92
  0
LINE
  8
0
 10
314
 20
92
 11
314
 21
93
  0
LINE
  8
0
 10
314
 20
93
 11
350
 21
93
  0
LINE
  8
0
 10
350
 20
93
 11
350
 21
94
  0
LINE
  8
0
 10
350
 20
94
 11
312
 21
94
  0
LINE
  8
0
 10
312
 20
94
 11
312
 21
95
  0
LINE
  8
0
 10
312
 20
95
 11
350
 21
95
  0
LINE
  8
0
 10
350
 20
95
 11
350
 21
96
  0
LINE
  8
0
 10
350
 20
96
 11
314
 21
96
  0
LINE
  8
0
 10
314
 20
96
 11
314
 21
97
  0
LINE
  8
0
 10
314
 20
97
 11
350
 21
97
  0
LINE
  8
0
 10
350
 20
97
 11
350
 21
98
  0
LINE
  8
0
 10
350
 20
98
 11
312
 21
98
  0
LINE
  8
0
 10
312
 20
98
 11
312
 21
99
  0
LINE
  8
0
 10
312
 20
99
 11
350
 21
99
  0
LINE
  8
0
 10
350
 20
99
 11
350
 21
100
  0
LINE
  8
0
 10
350
 20
100
 11
314
 21
100
  0
LINE
  8
0
 10
314
 20
100
 11
314
 21
101
  0
LINE
  8
0
 10
314
 20
101
 11
350
 21
101
  0
LINE
  8
0
 10
350
 20
101
 11
350
 21
102
  0
LINE
  8
0
 10
350
 20
102
 11
312
 21
102
  0
LINE
  8
0
 10
312
 20
102
 11
312
 21
103
  0
LINE
  8
0
 10
312
 20
103
 11
350
 21
103
  0
LINE
  8
0
 10
350
 20
103
 11
350
 21
104
  0
LINE
  8
0
 10
350
 20
104
 11
314
 21
104
  0
LINE
  8
0
 10
314
 20
104
 11
314
 21
105
  0
LINE
  8
0
 10
314
 20
105
 11
350
 21
105
  0
LINE
  8
0
 10
350
 20
105
 11
350
 21
106
  0
LINE
  8
0
 10
350
 20
106
 11
312
 21
106
  0
LINE
  8
0
 10
312
 20
106
 11
312
 21
107
  0
LINE
  8
0
 10
312
 20
107
 11
350
 21
107
  0
LINE
  8
0
 10
350
 20
107
 11
350
 21
108
  0
LINE
  8
0
 10
350
 20
108
 11
314
 21
108
  0
LINE
  8
0
 10
314
 20
108
 11
314
 21
109
  0
LINE
  8
0
 10
314
 20
109
 11
350
 21
109
  0
LINE
  8
0
 10
350
 20
109
 11
350
 21
110
  0
LINE
  8
0
 10
350
 20
110
 11
312
 21
110
  0
LINE
  8
0
 10
312
 20
110
 11
312
 21
111
  0
LINE
  8
0
 10
312
 20
111
 11
350
 21
111
  0
LINE
  8
0
 10
350
 20
111
 11
350
 21
112
  0
LINE
  8
0
 10
350
 20
112
 11
314
 21
112
  0
LINE
  8
0
 10
314
 20
112
 11
314
 21
113
  0
LINE
  8
0
 10
314
 20
113
 11
350
 21
113
  0
LINE
  8
0
 10
350
 20
113
 11
350
 21
114
  0
LINE
  8
0
 10
350
 20
114
 11
312
 21
114
  0
LINE
  8
0
 10
312
 20
114
 11
312
 21
115
  0
LINE
  8
0
 10
312
 20
115
 11
350
 21
115
  0
LINE
  8
0
 10
350
 20
115
 11
350
 21
116
  0
LINE
  8
0
 10
350
 20
116
 11
314
 21
116
  0
LINE
  8
0
 10
314
 20
116
 11
314
 21
117
  0
LINE
  8
0
 10
314
 20
117
 11
350
 21
117
  0
LINE
  8
0
 10
350
 20
117
 11
350
 21
118
  0
LINE
  8
0
 10
350
 20
118
 11
312
 21
118
  0
LINE
  8
0
 10
312
 20
118
 11
312
 21
119
  0
LINE
  8
0
 10
312
 20
119
 11
350
 21
119
  0
LINE
  8
0
 10
350
 20
119
 11
350
 21
120
  0
LINE
  8
0
 10
350
 20
120
 11
314
 21
120
  0
LINE
  8
0
 10
314
 20
120
 11
314
 21
121
  0
LINE
  8
0
 10
314
 20
121
 11
350
 21
121
  0
LINE
  8
0
 10
350
 20
121
 11
350
 21
122
  0
LINE
  8
0
 10
350
 20
122
 11
312
 21
122
  0
LINE
  8
0
 10
312
 20
122
 11
312
 21
123
  0
LINE
  8
0
 10
312
 20
123
 11
350
 21
123
  0
LINE
  8
0
 10
350
 20
123
 11
350
 21
124
  0
LINE
  8
0
 10
350
 20
124
 11
314
 21
124
  0
LINE
  8
0
 10
314
 20
124
 11
314
 21
125
  0
LINE
  8
0
 10
314
 20
125
 11
350
 21
125
  0
LINE
  8
0
 10
350
 20
125
 11
350
 21
126
  0
LINE
  8
0
 10
350
 20
126
 11
312
 21
126
  0
LINE
  8
0
 10
312
 20
126
 11
312
 21
127
  0
LINE
  8
0
 10
312
 20
127
 11
350
 21
127
  0
LINE
  8
0
 10
350
 20
127
 11
350
 21
128
  0
LINE
  8
0
 10
350
 20
128
 11
314
 21
128
  0
LINE
  8
0
 10
314
 20
128
 11
314
 21
129
  0
LINE
  8
0
 10
314
 20
129
 11
350
 21
129
  0
LINE
  8
0
 10
350
 20
129
 11
350
 21
130
  0
LINE
  8
0
 10
350
 20
130
 11
312
 21
130
  0
LINE
  8
0
 10
312
 20
130
 11
312
 21
131
  0
LINE
  8
0
 10
312
 20
131
 11
350
 21
131
  0
LINE
  8
0
 10
350
 20
131
 11
350
 21
132
  0
LINE
  8
0
 10
350
 20
132
 11
314
 21
132
  0
LINE
  8
0
 10
314
 20
132
 11
314
 21
133
  0
LINE
  8
0
 10
314
 20
133
 11
350
 21
133
  0
LINE
  8
0
 10
350
 20
133
 11
350
 21
134
  0
LINE
  8
0
 10
350
 20
134
 11
312
 21
134
  0
LINE
  8
0
 10
312
 20
134
 11
312
 21
135
  0
LINE
  8
0
 10
312
 20
135
 11
350
 21
135
  0
LINE
  8
0
 10
350
 20
135
 11
350
 21
136
  0
LINE
  8
0
 10
350
 20
136
 11
314
 21
136
  0
LINE
  8
0
 10
314
 20
136
 11
314
 21
137
  0
LINE
  8
0
 10
314
 20
137
 11
350
 21
137
  0
LINE
  8
0
 10
350
 20
137
 11
350
 21
138
  0
LINE
  8
0
 10
350
 20
138
 11
312
 21
138
  0
LINE
  8
0
 10
312
 20
138
 11
312
 21
139
  0
LINE
  8
0
 10
312
 20
139
 11
350
 21
139
  0
LINE
  8
0
 10
350
 20
139
 11
350
 21
140
  0
LINE
  8
0
 10
350
 20
140
 11
314
 21
140
  0
LINE
  8
0
 10
314
 20
140
 11
314
 21
141
  0
LINE
  8
0
 10
314
 20
141
 11
350
 21
141
  0
LINE
  8
0
 10
350
 20
141
 11
350
 21
142
  0
LINE
  8
0
 10
350
 20
142
 11
312
 21
142
  0
LINE
  8
0
 10
312
 20
142
 11
312
 21
143
  0
LINE
  8
0
 10
312
 20
143
 11
350
 21
143
  0
LINE
  8
0
 10
350
 20
143
 11
350
 21
144
  0
LINE
  8
0
 10
350
 20
144
 11
314
 21
144
  0
LINE
  8
0
 10
314
 20
144
 11
314
 21
145
  0
LINE
  8
0
 10
314
 20
145
 11
350
 21
145
  0
LINE
  8
0
 10
350
 20
145
 11
350
 21
146
  0
LINE
  8
0
 10
350
 20
146
 11
312
 21
146
  0
LINE
  8
0
 10
312
 20
146
 11
312
 21
147
  0
LINE
  8
0
 10
312
 20
147
 11
350
 21
147
  0
LINE
  8
0
 10
350
 20
147
 11
350
 21
148
  0
LINE
  8
0
 10
350
 20
148
 11
314
 21
148
  0
LINE
  8
0
 10
314
 20
148
 11
314
 21
149
  0
LINE
  8
0
 10
314
 20
149
 11
350
 21
149
  0
LINE
  8
0
 10
350
 20
149
 11
350
 21
150
  0
LINE
  8
0
 10
350
 20
150
 11
312
 21
150
  0
LINE
  8
0
 10
312
 20
150
 11
312
 21
151
  0
LINE
  8
0
 10
312
 20
151
 11
350
 21
151
  0
LINE
  8
0
 10
350
 20
151
 11
350
 21
152
  0
LINE
  8
0
 10
350
 20
152
 11
314
 21
152
  0
LINE
  8
0
 10
314
 20
152
 11
314
 21
153
  0
LINE
  8
0
 10
314
 20
153
 11
350
 21
153
  0
LINE
  8
0
 10
350
 20
153
 11
350
 21
154
  0
LINE
  8
0
 10
350
 20
154
 11
312
 21
154
  0
LINE
  8
0
 10
312
 20
154
 11
312
 21
155
  0
LINE
  8
0
 10
312
 20
155
 11
350
 21
155
  0
LINE
  8
0
 10
350
 20
155
 11
350
 21
156
  0
LINE
  8
0
 10
350
 20
156
 11
314
 21
156
  0
LINE
  8
0
 10
314
 20
156
 11
314
 21
157
  0
LINE
  8
0
 10
314
 20
157
 11
350
 21
157
  0
LINE
  8
0
 10
350
 20
157
 11
350
 21
158
  0
LINE
  8
0
 10
350
 20
158
 11
312
 21
158
  0
LINE
  8
0
 10
312
 20
158
 11
312
 21
159
  0
LINE
  8
0
 10
312
 20
159
 11
350
 21
159
  0
LINE
  8
0
 10
350
 20
159
 11
350
 21
160
  0
LINE
  8
0
 10
350
 20
160
 11
314
 21
160
  0
LINE
  8
0
 10
314
 20
160
 11
314
 21
161
  0
LINE
  8
0
 10
314
 20
161
 11
350
 21
161
  0
LINE
  8
0
 10
350
 20
161
 11
350
 21
162
  0
LINE
  8
0
 10
350
 20
162
 11
312
 21
162
  0
LINE
  8
0
 10
312
 20
162
 11
312
 21
163
  0
LINE
  8
0
 10
312
 20
163
 11
350
 21
163
  0
LINE
  8
0
 10
350
 20
163
 11
350
 21
164
  0
LINE
  8
0
 10
350
 20
164
 11
314
 21
164
  0
LINE
  8
0
 10
314
 20
164
 11
314
 21
165
  0
LINE
  8
0
 10
314
 20
165
 11
350
 21
165
  0
LINE
  8
0
 10
350
 20
165
 11
350
 21
166
  0
LINE
  8
0
 10
350
 20
166
 11
312
 21
166
  0
LINE
  8
0
 10
312
 20
166
 11
312
 21
167
  0
LINE
  8
0
 10
312
 20
167
 11
350
 21
167
  0
LINE
  8
0
 10
350
 20
167
 11
350
 21
168
  0
LINE
  8
0
 10
350
 20
168
 11
314
 21
168
  0
LINE
  8
0
 10
314
 20
168
 11
314
 21
169
  0
LINE
  8
0
 10
314
 20
169
 11
350
 21
169
  0
LINE
  8
0
 10
350
 20
169
 11
350
 21
170
  0
LINE
  8
0
 10
350
 20
170
 11
312
 21
170
  0
LINE
  8
0
 10
312
 20
170
 11
312
 21
171
  0
LINE
  8
0
 10
312
 20
171
 11
350
 21
171
  0
LINE
  8
0
 10
350
 20
171
 11
350
 21
172
  0
LINE
  8
0
 10
350
 20
172
 11
314
 21
172
  0
LINE
  8
0
 10
314
 20
172
 11
314
 21
173
  0
LINE
  8
0
 10
314
 20
173
 11
350
 21
173
  0
LINE
  8
0
 10
350
 20
173
 11
350
 21
174
  0
LINE
  8
0
 10
350
 20
174
 11
312
 21
174
  0
LINE
  8
0
 10
312
 20
174
 11
312
 21
175
  0
LINE
  8
0
 10
312
 20
175
 11
350
 21
175
  0
LINE
  8
0
 10
350
 20
175
 11
350
 21
176
  0
LINE
  8
0
 10
350
 20
176
 11
314
 21
176
  0
LINE
  8
0
 10
314
 20
176
 11
314
 21
177
  0
LINE
  8
0
 10
314
 20
177
 11
350
 21
177
  0
LINE
  8
0
 10
350
 20
177
 11
350
 21
178
  0
LINE
  8
0
 10
350
 20
178
 11
312
 21
178
  0
LINE
  8
0
 10
312
 20
178
 11
312
 21
179
  0
LINE
  8
0
 10
312
 20
179
 11
350
 21
179
  0
LINE
  8
0
 10
350
 20
179
 11
350
 21
180
  0
LINE
  8
0
 10
350
 20
180
 11
314
 21
180
  0
LINE
  8
0
 10
314
 20
180
 11
314
 21
181
  0
LINE
  8
0
 10
314
 20
181
 11
350
 21
181
  0
LINE
  8
0
 10
350
 20
181
 11
350
 21
182
  0
LINE
  8
0
 10
350
 20
182
 11
312
 21
182
  0
LINE
  8
0
 10
312
 20
182
 11
312
 21
183
  0
LINE
  8
0
 10
312
 20
183
 11
350
 21
183
  0
LINE
  8
0
 10
350
 20
183
 11
350
 21
184
  0
LINE
  8
0
 10
350
 20
184
 11
314
 21
184
  0
LINE
  8
0
 10
314
 20
184
 11
314
 21
185
  0
LINE
  8
0
 10
314
 20
185
 11
350
 21
185
  0
LINE
  8
0
 10
350
 20
185
 11
350
 21
186
  0
LINE
  8
0
 10
350
 20
186
 11
312
 21
186
  0
LINE
  8
0
 10
312
 20
186
 11
312
 21
187
  0
LINE
  8
0
 10
312
 20
187
 11
350
 21
187
  0
LINE
  8
0
 10
350
 20
187
 11
350
 21
188
  0
LINE
  8
0
 10
350
 20
188
 11
314
 21
188
  0
LINE
  8
0
 10
314
 20
188
 11
314
 21
189
  0
LINE
  8
0
 10
314
 20
189
 11
350
 21
189
  0
LINE
  8
0
 10
350
 20
189
 11
350
 21
190
  0
LINE
  8
0
 10
350
 20
190
 11
312
 21
190
  0
LINE
  8
0
 10
312
 20
190
 11
312
 21
191
  0
LINE
  8
0
 10
312
 20
191
 11
350
 21
191
  0
LINE
  8
0
 10
350
 20
191
 11
350
 21
192
  0
LINE
  8
0
 10
350
 20
192
 11
314
 21
192
  0
LINE
  8
0
 10
314
 20
192
 11
314
 21
193
  0
LINE
  8
0
 10
314
 20
193
 11
350
 21
193
  0
LINE
  8
0
 10
350
 20
193
 11
350
 21
194
  0
LINE
  8
0
 10
350
 20
194
 11
312
 21
194
  0
LINE
  8
0
 10
312
 20
194
 11
312
 21
195
  0
LINE
  8
0
 10
312
 20
195
 11
350
 21
195
  0
LINE
  8
0
 10
350
 20
195
 11
350
 21
196
  0
LINE
  8
0
 10
350
 20
196
 11
314
 21
196
  0
LINE
  8
0
 10
314
 20
196
 11
314
 21
197
  0
LINE
  8
0
 10
314
 20
197
 11
350
 21
197
  0
LINE
  8
0
 10
350
 20
197
 11
350
 21
198
  0
LINE
  8
0
 10
350
 20
198
 11
312
 21
198
  0
LINE
  8
0
 10
312
 20
198
 11
312
 21
199
  0
LINE
  8
0
 10
312
 20
199
 11
350
 21
199
  0
LINE
  8
0
 10
350
 20
199
 11
350
 21
200
  0
LINE
  8
0
 10
350
 20
200
 11
314
 21
200
  0
LINE
  8
0
 10
314
 20
200
 11
314
 21
201
  0
LINE
  8
0
 10
314
 20
201
 11
350
 21
201
  0
LINE
  8
0
 10
350
 20
201
 11
350
 21
202
  0
LINE
  8
0
 10
350
 20
202
 11
312
 21
202
  0
LINE
  8
0
 10
312
 20
202
 11
312
 21
203
  0
LINE
  8
0
 10
312
 20
203
 11
350
 21
203
  0
LINE
  8
0
 10
350
 20
203
 11
350
 21
204
  0
LINE
  8
0
 10
350
 20
204
 11
314
 21
204
  0
LINE
  8
0
 10
314
 20
204
 11
314
 21
205
  0
LINE
  8
0
 10
314
 20
205
 11
350
 21
205
  0
LINE
  8
0
 10
350
 20
205
 11
350
 21
206
  0
LINE
  8
0
 10
350
 20
206
 11
312
 21
206
  0
LINE
  8
0
 10
312
 20
206
 11
312
 21
207
  0
LINE
  8
0
 10
312
 20
207
 11
350
 21
207
  0
LINE
  8
0
 10
350
 20
207
 11
350
 21
208
  0
LINE
  8
0
 10
350
 20
208
 11
314
 21
208
  0
LINE
  8
0
 10
314
 20
208
 11
314
 21
209
  0
LINE
  8
0
 10
314
 20
209
 11
350
 21
209
  0
LINE
  8
0
 10
350
 20
209
 11
350
 21
210
  0
LINE
  8
0
 10
350
 20
210
 11
312
 21
210
  0
LINE
  8
0
 10
312
 20
210
 11
312
 21
211
  0
LINE
  8
0
 10
312
 20
211
 11
350
 21
211
  0
LINE
  8
0
 10
350
 20
211
 11
350
 21
212
  0
LINE
  8
0
 10
350
 20
212
 11
314
 21
212
  0
LINE
  8
0
 10
314
 20
212
 11
314
 21
213
  0
LINE
  8
0
 10
314
 20
213
 11
350
 21
213
  0
LINE
  8
0
 10
350
 20
213
 11
350
 21
214
  0
LINE
  8
0
 10
350
 20
214
 11
312
 21
214
  0
LINE
  8
0
 10
312
 20
214
 11
312
 21
215
  0
LINE
  8
0
 10
312
 20
215
 11
350
 21
215
  0
LINE
  8
0
 10
350
 20
215
 11
350
 21
216
  0
LINE
  8
0
 10
350
 20
216
 11
314
 21
216
  0
LINE
  8
0
 10
314
 20
216
 11
314
 21
217
  0
LINE
  8
0
 10
314
 20
217
 11
350
 21
217
  0
LINE
  8
0
 10
350
 20
217
 11
350
 21
218
  0
LINE
  8
0
 10
350
 20
218
 11
312
 21
218
  0
LINE
  8
0
 10
312
 20
218
 11
312
 21
219
  0
LINE
  8
0
 10
312
 20
219
 11
350
 21
219
  0
LINE
  8
0
 10
350
 20
219
 11
350
 21
220
  0
LINE
  8
0
 10
350
 20
220
 11
314
 21
220
  0
LINE
  8
0
 10
314
 20
220
 11
314
 21
221
  0
LINE
  8
0
 10
314
 20
221
 11
350
 21
221
  0
LINE
  8
0
 10
350
 20
221
 11
350
 21
222
  0
LINE
  8
0
 10
350
 20
222
 11
312
 21
222
  0
LINE
  8
0
 10
312
 20
222
 11
312
 21
223
  0
LINE
  8
0
 10
312
 20
223
 11
350
 21
223
  0
LINE
  8
0
 10
350
 20
223
 11
350
 21
224
  0
LINE
  8
0
 10
350
 20
224
 11
314
 21
224
  0
LINE
  8
0
 10
314
 20
224
 11
314
 21
225
  0
LINE
  8
0
 10
314
 20
225
 11
350
 21
225
  0
LINE
  8
0
 10
350
 20
225
 11
350
 21
226
  0
LINE
  8
0
 10
350
 20
226
 11
312
 21
226
  0
LINE
  8
0
 10
312
 20
226
 11
312
 21
227
  0
LINE
  8
0
 10
312
 20
227
 11
350
 21
227
  0
LINE
  8
0
 10
350
 20
227
 11
350
 21
228
  0
LINE
  8
0
 10
350
 20
228
 11
314
 21
228
  0
LINE
  8
0
 10
314
 20
228
 11
314
 21
229
  0
LINE
  8
0
 10
314
 20
229
 11
350
 21
229
  0
LINE
  8
0
 10
350
 20
229
 11
350
 21
230
  0
LINE
  8
0
 10
350
 20
230
 11
312
 21
230
  0
LINE
  8
0
 10
312
 20
230
 11
312
 21
231
  0
LINE
  8
0
 10
312
 20
231
 11
350
 21
231
  0
LINE
  8
0
 10
350
 20
231
 11
350
 21
232
  0
LINE
  8
0
 10
350
 20
232
 11
314
 21
232
  0
LINE
  8
0
 10
314
 20
232
 11
314
 21
233
  0
LINE
  8
0
 10
314
 20
233
 11
350
 21
233
  0
LINE
  8
0
 10
350
 20
233
 11
350
 21
234
  0
LINE
  8
0
 10
350
 20
234
 11
312
 21
234
  0
LINE
  8
0
 10
312
 20
234
 11
312
 21
235
  0
LINE
  8
0
 10
312
 20
235
 11
350
 21
235
  0
LINE
  8
0
 10
350
 20
235
 11
350
 21
236
  0
LINE
  8
0
 10
350
 20
236
 11
314
 21
236
  0
LINE
  8
0
 10
314
 20
236
 11
314
 21
237
  0
LINE
  8
0
 10
314
 20
237
 11
350
 21
237
  0
LINE
  8
0
 10
350
 20
237
 11
350
 21
238
  0
LINE
  8
0
 10
350
 20
238
 11
312
 21
238
  0
LINE
  8
0
 10
312
 20
238
 11
312
 21
239
  0
LINE
  8
0
 10
312
 20
239
 11
350
 21
239
  0
LINE
  8
0
 10
350
 20
239
 11
350
 21
240
  0
LINE
  8
0
 10
350
 20
240
 11
314
 21
240
  0
LINE
  8
0
 10
314
 20
240
 11
314
 21
241
  0
LINE
  8
0
 10
314
 20
241
 11
350
 21
241
  0
LINE
  8
0
 10
350
 20
241
 11
350
 21
242
  0
LINE
  8
0
 10
350
 20
242
 11
312
 21
242
  0
LINE
  8
0
 10
312
 20
242
 11
312
 21
243
  0
LINE
  8
0
 10
312
 20
243
 11
350
 21
243
  0
LINE
  8
0
 10
350
 20
243
 11
350
 21
244
  0
LINE
  8
0
 10
350
 20
244
 11
314
 21
244
  0
LINE
  8
0
 10
314
 20
244
 11
314
 21
245
  0
LINE
  8
0
 10
314
 20
245
 11
350
 21
245
  0
LINE
  8
0
 10
350
 20
245
 11
350
 21
246
  0
LINE
  8
0
 10
350
 20
246
 11
312
 21
246
  0
LINE
  8
0
 10
312
 20
246
 11
312
 21
246.74
  0
LINE
  8
0
 10
312
 20
246.74
 11
310
 21
246.74
  0
LINE
  8
0
 10
310
 20
246.74
 11
310
 21
246
  0
LINE
  8
0
 10
310
 20
246
 11
260
 21
246
  0
LINE
  8
0
 10
260
 20
246
 11
260
 21
246.74
  0
LINE
  8
0
 10
260
 20
246.74
 11
258
 21
246.74
  0
LINE
  8
0
 10
258
 20
246.74
 11
258
 21
246
  0
LINE
  8
0
 10
258
 20
246
 11
208
 21
246
  0
LINE
  8
0
 10
208
 20
246
 11
208
 21
246.74
  0
LINE
  8
0
 10
208
 20
246.74
 11
206
 21
246.74
  0
LINE
  8
0
 10
206
 20
246.74
 11
206
 21
246
  0
LINE
  8
0
 10
206
 20
246
 11
156
 21
246
  0
LINE
  8
0
 10
156
 20
246
 11
156
 21
246.74
  0
LINE
  8
0
 10
156
 20
246.74
 11
154
 21
246.74
  0
LINE
  8
0
 10
154
 20
246.74
 11
154
 21
246
  0
LINE
  8
0
 10
154
 20
246
 11
104
 21
246
  0
LINE
  8
0
 10
104
 20
246
 11
104
 21
246.74
  0
LINE
  8
0
 10
104
 20
246.74
 11
102
 21
246.74
  0
LINE
  8
0
 10
102
 20
246.74
 11
102
 21
246
  0
LINE
  8
0
 10
102
 20
246
 11
52
 21
246
  0
LINE
  8
0
 10
52
 20
246
 11
52
 21
246.74
  0
LINE
  8
0
 10
52
 20
246.74
 11
50
 21
246.74
  0
LINE
  8
0
 10
50
 20
246.74
 11
50
 21
246
  0
LINE
  8
0
 10
50
 20
246
 11
0
 21
246
  0
LINE
  8
0
 10
0
 20
246
 11
0
 21
243
  0
LINE
  8
0
 10
0
 20
243
 11
50
 21
243
  0
LINE
  8
0
 10
50
 20
243
 11
50
 21
242
  0
LINE
  8
0
 10
50
 20
242
 11
0
 21
242
  0
LINE
  8
0
 10
0
 20
242
 11
0
 21
239
  0
LINE
  8
0
 10
0
 20
239
 11
50
 21
239
  0
LINE
  8
0
 10
50
 20
239
 11
50
 21
238
  0
LINE
  8
0
 10
50
 20
238
 11
0
 21
238
  0
LINE
  8
0
 10
0
 20
238
 11
0
 21
235
  0
LINE
  8
0
 10
0
 20
235
 11
50
 21
235
  0
LINE
  8
0
 10
50
 20
235
 11
50
 21
234
  0
LINE
  8
0
 10
50
 20
234
 11
0
 21
234
  0
LINE
  8
0
 10
0
 20
234
 11
0
 21
231
  0
LINE
  8
0
 10
0
 20
231
 11
50
 21
231
  0
LINE
  8
0
 10
50
 20
231
 11
50
 21
230
  0
LINE
  8
0
 10
50
 20
230
 11
0
 21
230
  0
LINE
  8
0
 10
0
 20
230
 11
0
 21
227
  0
LINE
  8
0
 10
0
 20
227
 11
50
 21
227
  0
LINE
  8
0
 10
50
 20
227
 11
50
 21
226
  0
LINE
  8
0
 10
50
 20
226
 11
0
 21
226
  0
LINE
  8
0
 10
0
 20
226
 11
0
 21
223
  0
LINE
  8
0
 10
0
 20
223
 11
50
 21
223
  0
LINE
  8
0
 10
50
 20
223
 11
50
 21
222
  0
LINE
  8
0
 10
50
 20
222
 11
0
 21
222
  0
LINE
  8
0
 10
0
 20
222
 11
0
 21
219
  0
LINE
  8
0
 10
0
 20
219
 11
50
 21
219
  0
LINE
  8
0
 10
50
 20
219
 11
50
 21
218
  0
LINE
  8
0
 10
50
 20
218
 11
0
 21
218
  0
LINE
  8
0
 10
0
 20
218
 11
0
 21
215
  0
LINE
  8
0
 10
0
 20
215
 11
50
 21
215
  0
LINE
  8
0
 10
50
 20
215
 11
50
 21
214
  0
LINE
  8
0
 10
50
 20
214
 11
0
 21
214
  0
LINE
  8
0
 10
0
 20
214
 11
0
 21
211
  0
LINE
  8
0
 10
0
 20
211
 11
50
 21
211
  0
LINE
  8
0
 10
50
 20
211
 11
50
 21
210
  0
LINE
  8
0
 10
50
 20
210
 11
0
 21
210
  0
LINE
  8
0
 10
0
 20
210
 11
0
 21
207
  0
LINE
  8
0
 10
0
 20
207
 11
50
 21
207
  0
LINE
  8
0
 10
50
 20
207
 11
50
 21
206
  0
LINE
  8
0
 10
50
 20
206
 11
0
 21
206
  0
LINE
  8
0
 10
0
 20
206
 11
0
 21
203
  0
LINE
  8
0
 10
0
 20
203
 11
50
 21
203
  0
LINE
  8
0
 10
50
 20
203
 11
50
 21
202
  0
LINE
  8
0
 10
50
 20
202
 11
0
 21
202
  0
LINE
  8
0
 10
0
 20
202
 11
0
 21
199
  0
LINE
  8
0
 10
0
 20
199
 11
50
 21
199
  0
LINE
  8
0
 10
50
 20
199
 11
50
 21
198
  0
LINE
  8
0
 10
50
 20
198
 11
0
 21
198
  0
LINE
  8
0
 10
0
 20
198
 11
0
 21
195
  0
LINE
  8
0
 10
0
 20
195
 11
50
 21
195
  0
LINE
  8
0
 10
50
 20
195
 11
50
 21
194
  0
LINE
  8
0
 10
50
 20
194
 11
0
 21
194
  0
LINE
  8
0
 10
0
 20
194
 11
0
 21
191
  0
LINE
  8
0
 10
0
 20
191
 11
50
 21
191
  0
LINE
  8
0
 10
50
 20
191
 11
50
 21
190
  0
LINE
  8
0
 10
50
 20
190
 11
0
 21
190
  0
LINE
  8
0
 10
0
 20
190
 11
0
 21
187
  0
LINE
  8
0
 10
0
 20
187
 11
50
 21
187
  0
LINE
  8
0
 10
50
 20
187
 11
50
 21
186
  0
LINE
  8
0
 10
50
 20
186
 11
0
 21
186
  0
LINE
  8
0
 10
0
 20
186
 11
0
 21
183
  0
LINE
  8
0
 10
0
 20
183
 11
50
 21
183
  0
LINE
  8
0
 10
50
 20
183
 11
50
 21
182
  0
LINE
  8
0
 10
50
 20
182
 11
0
 21
182
  0
LINE
  8
0
 10
0
 20
182
 11
0
 21
179
  0
LINE
  8
0
 10
0
 20
179
 11
50
 21
179
  0
LINE
  8
0
 10
50
 20
179
 11
50
 21
178
  0
LINE
  8
0
 10
50
 20
178
 11
0
 21
178
  0
LINE
  8
0
 10
0
 20
178
 11
0
 21
175
  0
LINE
  8
0
 10
0
 20
175
 11
50
 21
175
  0
LINE
  8
0
 10
50
 20
175
 11
50
 21
174
  0
LINE
  8
0
 10
50
 20
174
 11
0
 21
174
  0
LINE
  8
0
 10
0
 20
174
 11
0
 21
171
  0
LINE
  8
0
 10
0
 20
171
 11
50
 21
171
  0
LINE
  8
0
 10
50
 20
171
 11
50
 21
170
  0
LINE
  8
0
 10
50
 20
170
 11
0
 21
170
  0
LINE
  8
0
 10
0
 20
170
 11
0
 21
167
  0
LINE
  8
0
 10
0
 20
167
 11
50
 21
167
  0
LINE
  8
0
 10
50
 20
167
 11
50
 21
166
  0
LINE
  8
0
 10
50
 20
166
 11
0
 21
166
  0
LINE
  8
0
 10
0
 20
166
 11
0
 21
163
  0
LINE
  8
0
 10
0
 20
163
 11
50
 21
163
  0
LINE
  8
0
 10
50
 20
163
 11
50
 21
162
  0
LINE
  8
0
 10
50
 20
162
 11
0
 21
162
  0
LINE
  8
0
 10
0
 20
162
 11
0
 21
159
  0
LINE
  8
0
 10
0
 20
159
 11
50
 21
159
  0
LINE
  8
0
 10
50
 20
159
 11
50
 21
158
  0
LINE
  8
0
 10
50
 20
158
 11
0
 21
158
  0
LINE
  8
0
 10
0
 20
158
 11
0
 21
155
  0
LINE
  8
0
 10
0
 20
155
 11
50
 21
155
  0
LINE
  8
0
 10
50
 20
155
 11
50
 21
154
  0
LINE
  8
0
 10
50
 20
154
 11
0
 21
154
  0
LINE
  8
0
 10
0
 20
154
 11
0
 21
151
  0
LINE
  8
0
 10
0
 20
151
 11
50
 21
151
  0
LINE
  8
0
 10
50
 20
151
 11
50
 21
150
  0
LINE
  8
0
 10
50
 20
150
 11
0
 21
150
  0
LINE
  8
0
 10
0
 20
150
 11
0
 21
147
  0
LINE
  8
0
 10
0
 20
147
 11
50
 21
147
  0
LINE
  8
0
 10
50
 20
147
 11
50
 21
146
  0
LINE
  8
0
 10
50
 20
146
 11
0
 21
146
  0
LINE
  8
0
 10
0
 20
146
 11
0
 21
143
  0
LINE
  8
0
 10
0
 20
143
 11
50
 21
143
  0
LINE
  8
0
 10
50
 20
143
 11
50
 21
142
  0
LINE
  8
0
 10
50
 20
142
 11
0
 21
142
  0
LINE
  8
0
 10
0
 20
142
 11
0
 21
139
  0
LINE
  8
0
 10
0
 20
139
 11
50
 21
139
  0
LINE
  8
0
 10
50
 20
139
 11
50
 21
138
  0
LINE
  8
0
 10
50
 20
138
 11
0
 21
138
  0
LINE
  8
0
 10
0
 20
138
 11
0
 21
135
  0
LINE
  8
0
 10
0
 20
135
 11
50
 21
135
  0
LINE
  8
0
 10
50
 20
135
 11
50
 21
134
  0
LINE
  8
0
 10
50
 20
134
 11
0
 21
134
  0
LINE
  8
0
 10
0
 20
134
 11
0
 21
131
  0
LINE
  8
0
 10
0
 20
131
 11
50
 21
131
  0
LINE
  8
0
 10
50
 20
131
 11
50
 21
130
  0
LINE
  8
0
 10
50
 20
130
 11
0
 21
130
  0
LINE
  8
0
 10
0
 20
130
 11
0
 21
127
  0
LINE
  8
0
 10
0
 20
127
 11
50
 21
127
  0
LINE
  8
0
 10
50
 20
127
 11
50
 21
126
  0
LINE
  8
0
 10
50
 20
126
 11
0
 21
126
  0
LINE
  8
0
 10
0
 20
126
 11
0
 21
123
  0
LINE
  8
0
 10
0
 20
123
 11
50
 21
123
  0
LINE
  8
0
 10
50
 20
123
 11
50
 21
122
  0
LINE
  8
0
 10
50
 20
122
 11
0
 21
122
  0
LINE
  8
0
 10
0
 20
122
 11
0
 21
119
  0
LINE
  8
0
 10
0
 20
119
 11
50
 21
119
  0
LINE
  8
0
 10
50
 20
119
 11
50
 21
118
  0
LINE
  8
0
 10
50
 20
118
 11
0
 21
118
  0
LINE
  8
0
 10
0
 20
118
 11
0
 21
115
  0
LINE
  8
0
 10
0
 20
115
 11
50
 21
115
  0
LINE
  8
0
 10
50
 20
115
 11
50
 21
114
  0
LINE
  8
0
 10
50
 20
114
 11
0
 21
114
  0
LINE
  8
0
 10
0
 20
114
 11
0
 21
111
  0
LINE
  8
0
 10
0
 20
111
 11
50
 21
111
  0
LINE
  8
0
 10
50
 20
111
 11
50
 21
110
  0
LINE
  8
0
 10
50
 20
110
 11
0
 21
110
  0
LINE
  8
0
 10
0
 20
110
 11
0
 21
107
  0
LINE
  8
0
 10
0
 20
107
 11
50
 21
107
  0
LINE
  8
0
 10
50
 20
107
 11
50
 21
106
  0
LINE
  8
0
 10
50
 20
106
 11
0
 21
106
  0
LINE
  8
0
 10
0
 20
106
 11
0
 21
103
  0
LINE
  8
0
 10
0
 20
103
 11
50
 21
103
  0
LINE
  8
0
 10
50
 20
103
 11
50
 21
102
  0
LINE
  8
0
 10
50
 20
102
 11
0
 21
102
  0
LINE
  8
0
 10
0
 20
102
 11
0
 21
99
  0
LINE
  8
0
 10
0
 20
99
 11
50
 21
99
  0
LINE
  8
0
 10
50
 20
99
 11
50
 21
98
  0
LINE
  8
0
 10
50
 20
98
 11
0
 21
98
  0
LINE
  8
0
 10
0
 20
98
 11
0
 21
95
  0
LINE
  8
0
 10
0
 20
95
 11
50
 21
95
  0
LINE
  8
0
 10
50
 20
95
 11
50
 21
94
  0
LINE
  8
0
 10
50
 20
94
 11
0
 21
94
  0
LINE
  8
0
 10
0
 20
94
 11
0
 21
91
  0
LINE
  8
0
 10
0
 20
91
 11
50
 21
91
  0
LINE
  8
0
 10
50
 20
91
 11
50
 21
90
  0
LINE
  8
0
 10
50
 20
90
 11
0
 21
90
  0
LINE
  8
0
 10
0
 20
90
 11
0
 21
87
  0
LINE
  8
0
 10
0
 20
87
 11
50
 21
87
  0
LINE
  8
0
 10
50
 20
87
 11
50
 21
86
  0
LINE
  8
0
 10
50
 20
86
 11
0
 21
86
  0
LINE
  8
0
 10
0
 20
86
 11
0
 21
83
  0
LINE
  8
0
 10
0
 20
83
 11
50
 21
83
  0
LINE
  8
0
 10
50
 20
83
 11
50
 21
82
  0
LINE
  8
0
 10
50
 20
82
 11
0
 21
82
  0
LINE
  8
0
 10
0
 20
82
 11
0
 21
79
  0
LINE
  8
0
 10
0
 20
79
 11
50
 21
79
  0
LINE
  8
0
 10
50
 20
79
 11
50
 21
78
  0
LINE
  8
0
 10
50
 20
78
 11
0
 21
78
  0
LINE
  8
0
 10
0
 20
78
 11
0
 21
75
  0
LINE
  8
0
 10
0
 20
75
 11
50
 21
75
  0
LINE
  8
0
 10
50
 20
75
 11
50
 21
74
  0
LINE
  8
0
 10
50
 20
74
 11
0
 21
74
  0
LINE
  8
0
 10
0
 20
74
 11
0
 21
71
  0
LINE
  8
0
 10
0
 20
71
 11
50
 21
71
  0
LINE
  8
0
 10
50
 20
71
 11
50
 21
70
  0
LINE
  8
0
 10
50
 20
70
 11
0
 21
70
  0
LINE
  8
0
 10
0
 20
70
 11
0
 21
67
  0
LINE
  8
0
 10
0
 20
67
 11
50
 21
67
  0
LINE
  8
0
 10
50
 20
67
 11
50
 21
66
  0
LINE
  8
0
 10
50
 20
66
 11
0
 21
66
  0
LINE
  8
0
 10
0
 20
66
 11
0
 21
63
  0
LINE
  8
0
 10
0
 20
63
 11
50
 21
63
  0
LINE
  8
0
 10
50
 20
63
 11
50
 21
62
  0
LINE
  8
0
 10
50
 20
62
 11
0
 21
62
  0
LINE
  8
0
 10
0
 20
62
 11
0
 21
59
  0
LINE
  8
0
 10
0
 20
59
 11
50
 21
59
  0
LINE
  8
0
 10
50
 20
59
 11
50
 21
58
  0
LINE
  8
0
 10
50
 20
58
 11
0
 21
58
  0
LINE
  8
0
 10
0
 20
58
 11
0
 21
55
  0
LINE
  8
0
 10
0
 20
55
 11
50
 21
55
  0
LINE
  8
0
 10
50
 20
55
 11
50
 21
54
  0
LINE
  8
0
 10
50
 20
54
 11
0
 21
54
  0
LINE
  8
0
 10
0
 20
54
 11
0
 21
51
  0
LINE
  8
0
 10
0
 20
51
 11
50
 21
51
  0
LINE
  8
0
 10
50
 20
51
 11
50
 21
50
  0
LINE
  8
0
 10
50
 20
50
 11
0
 21
50
  0
LINE
  8
0
 10
0
 20
50
 11
0
 21
47
  0
LINE
  8
0
 10
0
 20
47
 11
50
 21
47
  0
LINE
  8
0
 10
50
 20
47
 11
50
 21
46
  0
LINE
  8
0
 10
50
 20
46
 11
0
 21
46
  0
LINE
  8
0
 10
0
 20
46
 11
0
 21
43
  0
LINE
  8
0
 10
0
 20
43
 11
50
 21
43
  0
LINE
  8
0
 10
50
 20
43
 11
50
 21
42
  0
LINE
  8
0
 10
50
 20
42
 11
0
 21
42
  0
LINE
  8
0
 10
0
 20
42
 11
0
 21
39
  0
LINE
  8
0
 10
0
 20
39
 11
50
 21
39
  0
LINE
  8
0
 10
50
 20
39
 11
50
 21
38
  0
LINE
  8
0
 10
50
 20
38
 11
0
 21
38
  0
LINE
  8
0
 10
0
 20
38
 11
0
 21
35
  0
LINE
  8
0
 10
0
 20
35
 11
50
 21
35
  0
LINE
  8
0
 10
50
 20
35
 11
50
 21
34
  0
LINE
  8
0
 10
50
 20
34
 11
0
 21
34
  0
LINE
  8
0
 10
0
 20
34
 11
0
 21
31
  0
LINE
  8
0
 10
0
 20
31
 11
50
 21
31
  0
LINE
  8
0
 10
50
 20
31
 11
50
 21
30
  0
LINE
  8
0
 10
50
 20
30
 11
0
 21
30
  0
LINE
  8
0
 10
0
 20
30
 11
0
 21
27
  0
LINE
  8
0
 10
0
 20
27
 11
50
 21
27
  0
LINE
  8
0
 10
50
 20
27
 11
50
 21
26
  0
LINE
  8
0
 10
50
 20
26
 11
0
 21
26
  0
LINE
  8
0
 10
0
 20
26
 11
0
 21
23
  0
LINE
  8
0
 10
0
 20
23
 11
50
 21
23
  0
LINE
  8
0
 10
50
 20
23
 11
50
 21
22
  0
LINE
  8
0
 10
50
 20
22
 11
0
 21
22
  0
LINE
  8
0
 10
0
 20
22
 11
0
 21
19
  0
LINE
  8
0
 10
0
 20
19
 11
50
 21
19
  0
LINE
  8
0
 10
50
 20
19
 11
50
 21
18
  0
LINE
  8
0
 10
50
 20
18
 11
0
 21
18
  0
LINE
  8
0
 10
0
 20
18
 11
0
 21
15
  0
LINE
  8
0
 10
0
 20
15
 11
50
 21
15
  0
LINE
  8
0
 10
50
 20
15
 11
50
 21
14
  0
LINE
  8
0
 10
50
 20
14
 11
0
 21
14
  0
LINE
  8
0
 10
0
 20
14
 11
0
 21
11
  0
LINE
  8
0
 10
0
 20
11
 11
50
 21
11
  0
LINE
  8
0
 10
50
 20
11
 11
50
 21
10
  0
LINE
  8
0
 10
50
 20
10
 11
0
 21
10
  0
LINE
  8
0
 10
0
 20
10
 11
0
 21
7
  0
LINE
  8
0
 10
0
 20
7
 11
50
 21
7
  0
LINE
  8
0
 10
50
 20
7
 11
50
 21
6
  0
LINE
  8
0
 10
50
 20
6
 11
0
 21
6
  0
LINE
  8
0
 10
0
 20
6
 11
0
 21
3
  0
LINE
  8
0
 10
0
 20
3
 11
50
 21
3
  0
LINE
  8
0
 10
50
 20
3
 11
50
 21
2
  0
LINE
  8
0
 10
50
 20
2
 11
0
 21
2
  0
LINE
  8
0
 10
0
 20
2
 11
0
 21
0
  0
LINE
  8
0
 10
2
 20
4
 11
2
 21
5
  0
LINE
  8
0
 10
2
 20
5
 11
52
 21
5
  0
LINE
  8
0
 10
52
 20
5
 11
52
 21
4
  0
LINE
  8
0
 10
52
 20
4
 11
2
 21
4
  0
LINE
  8
0
 10
2
 20
8
 11
2
 21
9
  0
LINE
  8
0
 10
2
 20
9
 11
52
 21
9
  0
LINE
  8
0
 10
52
 20
9
 11
52
 21
8
  0
LINE
  8
0
 10
52
 20
8
 11
2
 21
8
  0
LINE
  8
0
 10
2
 20
12
 11
2
 21
13
  0
LINE
  8
0
 10
2
 20
13
 11
52
 21
13
  0
LINE
  8
0
 10
52
 20
13
 11
52
 21
12
  0
LINE
  8
0
 10
52
 20
12
 11
2
 21
12
  0
LINE
  8
0
 10
2
 20
16
 11
2
 21
17
  0
LINE
  8
0
 10
2
 20
17
 11
52
 21
17
  0
LINE
  8
0
 10
52
 20
17
 11
52
 21
16
  0
LINE
  8
0
 10
52
 20
16
 11
2
 21
16
  0
LINE
  8
0
 10
2
 20
20
 11
2
 21
21
  0
LINE
  8
0
 10
2
 20
21
 11
52
 21
21
  0
LINE
  8
0
 10
52
 20
21
 11
52
 21
20
  0
LINE
  8
0
 10
52
 20
20
 11
2
 21
20
  0
LINE
  8
0
 10
2
 20
24
 11
2
 21
25
  0
LINE
  8
0
 10
2
 20
25
 11
52
 21
25
  0
LINE
  8
0
 10
52
 20
25
 11
52
 21
24
  0
LINE
  8
0
 10
52
 20
24
 11
2
 21
24
  0
LINE
  8
0
 10
2
 20
28
 11
2
 21
29
  0
LINE
  8
0
 10
2
 20
29
 11
52
 21
29
  0
LINE
  8
0
 10
52
 20
29
 11
52
 21
28
  0
LINE
  8
0
 10
52
 20
28
 11
2
 21
28
  0
LINE
  8
0
 10
2
 20
32
 11
2
 21
33
  0
LINE
  8
0
 10
2
 20
33
 11
52
 21
33
  0
LINE
  8
0
 10
52
 20
33
 11
52
 21
32
  0
LINE
  8
0
 10
52
 20
32
 11
2
 21
32
  0
LINE
  8
0
 10
2
 20
36
 11
2
 21
37
  0
LINE
  8
0
 10
2
 20
37
 11
52
 21
37
  0
LINE
  8
0
 10
52
 20
37
 11
52
 21
36
  0
LINE
  8
0
 10
52
 20
36
 11
2
 21
36
  0
LINE
  8
0
 10
2
 20
40
 11
2
 21
41
  0
LINE
  8
0
 10
2
 20
41
 11
52
 21
41
  0
LINE
  8
0
 10
52
 20
41
 11
52
 21
40
  0
LINE
  8
0
 10
52
 20
40
 11
2
 21
40
  0
LINE
  8
0
 10
2
 20
44
 11
2
 21
45
  0
LINE
  8
0
 10
2
 20
45
 11
52
 21
45
  0
LINE
  8
0
 10
52
 20
45
 11
52
 21
44
  0
LINE
  8
0
 10
52
 20
44
 11
2
 21
44
  0
LINE
  8
0
 10
2
 20
48
 11
2
 21
49
  0
LINE
  8
0
 10
2
 20
49
 11
52
 21
49
  0
LINE
  8
0
 10
52
 20
49
 11
52
 21
48
  0
LINE
  8
0
 10
52
 20
48
 11
2
 21
48
  0
LINE
  8
0
 10
2
 20
52
 11
2
 21
53
  0
LINE
  8
0
 10
2
 20
53
 11
52
 21
53
  0
LINE
  8
0
 10
52
 20
53
 11
52
 21
52
  0
LINE
  8
0
 10
52
 20
52
 11
2
 21
52
  0
LINE
  8
0
 10
2
 20
56
 11
2
 21
57
  0
LINE
  8
0
 10
2
 20
57
 11
52
 21
57
  0
LINE
  8
0
 10
52
 20
57
 11
52
 21
56
  0
LINE
  8
0
 10
52
 20
56
 11
2
 21
56
  0
LINE
  8
0
 10
2
 20
60
 11
2
 21
61
  0
LINE
  8
0
 10
2
 20
61
 11
52
 21
61
  0
LINE
  8
0
 10
52
 20
61
 11
52
 21
60
  0
LINE
  8
0
 10
52
 20
60
 11
2
 21
60
  0
LINE
  8
0
 10
2
 20
64
 11
2
 21
65
  0
LINE
  8
0
 10
2
 20
65
 11
52
 21
65
  0
LINE
  8
0
 10
52
 20
65
 11
52
 21
64
  0
LINE
  8
0
 10
52
 20
64
 11
2
 21
64
  0
LINE
  8
0
 10
2
 20
68
 11
2
 21
69
  0
LINE
  8
0
 10
2
 20
69
 11
52
 21
69
  0
LINE
  8
0
 10
52
 20
69
 11
52
 21
68
  0
LINE
  8
0
 10
52
 20
68
 11
2
 21
68
  0
LINE
  8
0
 10
2
 20
72
 11
2
 21
73
  0
LINE
  8
0
 10
2
 20
73
 11
52
 21
73
  0
LINE
  8
0
 10
52
 20
73
 11
52
 21
72
  0
LINE
  8
0
 10
52
 20
72
 11
2
 21
72
  0
LINE
  8
0
 10
2
 20
76
 11
2
 21
77
  0
LINE
  8
0
 10
2
 20
77
 11
52
 21
77
  0
LINE
  8
0
 10
52
 20
77
 11
52
 21
76
  0
LINE
  8
0
 10
52
 20
76
 11
2
 21
76
  0
LINE
  8
0
 10
2
 20
80
 11
2
 21
81
  0
LINE
  8
0
 10
2
 20
81
 11
52
 21
81
  0
LINE
  8
0
 10
52
 20
81
 11
52
 21
80
  0
LINE
  8
0
 10
52
 20
80
 11
2
 21
80
  0
LINE
  8
0
 10
2
 20
84
 11
2
 21
85
  0
LINE
  8
0
 10
2
 20
85
 11
52
 21
85
  0
LINE
  8
0
 10
52
 20
85
 11
52
 21
84
  0
LINE
  8
0
 10
52
 20
84
 11
2
 21
84
  0
LINE
  8
0
 10
2
 20
88
 11
2
 21
89
  0
LINE
  8
0
 10
2
 20
89
 11
52
 21
89
  0
LINE
  8
0
 10
52
 20
89
 11
52
 21
88
  0
LINE
  8
0
 10
52
 20
88
 11
2
 21
88
  0
LINE
  8
0
 10
2
 20
92
 11
2
 21
93
  0
LINE
  8
0
 10
2
 20
93
 11
52
 21
93
  0
LINE
  8
0
 10
52
 20
93
 11
52
 21
92
  0
LINE
  8
0
 10
52
 20
92
 11
2
 21
92
  0
LINE
  8
0
 10
2
 20
96
 11
2
 21
97
  0
LINE
  8
0
 10
2
 20
97
 11
52
 21
97
  0
LINE
  8
0
 10
52
 20
97
 11
52
 21
96
  0
LINE
  8
0
 10
52
 20
96
 11
2
 21
96
  0
LINE
  8
0
 10
2
 20
100
 11
2
 21
101
  0
LINE
  8
0
 10
2
 20
101
 11
52
 21
101
  0
LINE
  8
0
 10
52
 20
101
 11
52
 21
100
  0
LINE
  8
0
 10
52
 20
100
 11
2
 21
100
  0
LINE
  8
0
 10
2
 20
104
 11
2
 21
105
  0
LINE
  8
0
 10
2
 20
105
 11
52
 21
105
  0
LINE
  8
0
 10
52
 20
105
 11
52
 21
104
  0
LINE
  8
0
 10
52
 20
104
 11
2
 21
104
  0
LINE
  8
0
 10
2
 20
108
 11
2
 21
109
  0
LINE
  8
0
 10
2
 20
109
 11
52
 21
109
  0
LINE
  8
0
 10
52
 20
109
 11
52
 21
108
  0
LINE
  8
0
 10
52
 20
108
 11
2
 21
108
  0
LINE
  8
0
 10
2
 20
112
 11
2
 21
113
  0
LINE
  8
0
 10
2
 20
113
 11
52
 21
113
  0
LINE
  8
0
 10
52
 20
113
 11
52
 21
112
  0
LINE
  8
0
 10
52
 20
112
 11
2
 21
112
  0
LINE
  8
0
 10
2
 20
116
 11
2
 21
117
  0
LINE
  8
0
 10
2
 20
117
 11
52
 21
117
  0
LINE
  8
0
 10
52
 20
117
 11
52
 21
116
  0
LINE
  8
0
 10
52
 20
116
 11
2
 21
116
  0
LINE
  8
0
 10
2
 20
120
 11
2
 21
121
  0
LINE
  8
0
 10
2
 20
121
 11
52
 21
121
  0
LINE
  8
0
 10
52
 20
121
 11
52
 21
120
  0
LINE
  8
0
 10
52
 20
120
 11
2
 21
120
  0
LINE
  8
0
 10
2
 20
124
 11
2
 21
125
  0
LINE
  8
0
 10
2
 20
125
 11
52
 21
125
  0
LINE
  8
0
 10
52
 20
125
 11
52
 21
124
  0
LINE
  8
0
 10
52
 20
124
 11
2
 21
124
  0
LINE
  8
0
 10
2
 20
128
 11
2
 21
129
  0
LINE
  8
0
 10
2
 20
129
 11
52
 21
129
  0
LINE
  8
0
 10
52
 20
129
 11
52
 21
128
  0
LINE
  8
0
 10
52
 20
128
 11
2
 21
128
  0
LINE
  8
0
 10
2
 20
132
 11
2
 21
133
  0
LINE
  8
0
 10
2
 20
133
 11
52
 21
133
  0
LINE
  8
0
 10
52
 20
133
 11
52
 21
132
  0
LINE
  8
0
 10
52
 20
132
 11
2
 21
132
  0
LINE
  8
0
 10
2
 20
136
 11
2
 21
137
  0
LINE
  8
0
 10
2
 20
137
 11
52
 21
137
  0
LINE
  8
0
 10
52
 20
137
 11
52
 21
136
  0
LINE
  8
0
 10
52
 20
136
 11
2
 21
136
  0
LINE
  8
0
 10
2
 20
140
 11
2
 21
141
  0
LINE
  8
0
 10
2
 20
141
 11
52
 21
141
  0
LINE
  8
0
 10
52
 20
141
 11
52
 21
140
  0
LINE
  8
0
 10
52
 20
140
 11
2
 21
140
  0
LINE
  8
0
 10
2
 20
144
 11
2
 21
145
  0
LINE
  8
0
 10
2
 20
145
 11
52
 21
145
  0
LINE
  8
0
 10
52
 20
145
 11
52
 21
144
  0
LINE
  8
0
 10
52
 20
144
 11
2
 21
144
  0
LINE
  8
0
 10
2
 20
148
 11
2
 21
149
  0
LINE
  8
0
 10
2
 20
149
 11
52
 21
149
  0
LINE
  8
0
 10
52
 20
149
 11
52
 21
148
  0
LINE
  8
0
 10
52
 20
148
 11
2
 21
148
  0
LINE
  8
0
 10
2
 20
152
 11
2
 21
153
  0
LINE
  8
0
 10
2
 20
153
 11
52
 21
153
  0
LINE
  8
0
 10
52
 20
153
 11
52
 21
152
  0
LINE
  8
0
 10
52
 20
152
 11
2
 21
152
  0
LINE
  8
0
 10
2
 20
156
 11
2
 21
157
  0
LINE
  8
0
 10
2
 20
157
 11
52
 21
157
  0
LINE
  8
0
 10
52
 20
157
 11
52
 21
156
  0
LINE
  8
0
 10
52
 20
156
 11
2
 21
156
  0
LINE
  8
0
 10
2
 20
160
 11
2
 21
161
  0
LINE
  8
0
 10
2
 20
161
 11
52
 21
161
  0
LINE
  8
0
 10
52
 20
161
 11
52
 21
160
  0
LINE
  8
0
 10
52
 20
160
 11
2
 21
160
  0
LINE
  8
0
 10
2
 20
164
 11
2
 21
165
  0
LINE
  8
0
 10
2
 20
165
 11
52
 21
165
  0
LINE
  8
0
 10
52
 20
165
 11
52
 21
164
  0
LINE
  8
0
 10
52
 20
164
 11
2
 21
164
  0
LINE
  8
0
 10
2
 20
168
 11
2
 21
169
  0
LINE
  8
0
 10
2
 20
169
 11
52
 21
169
  0
LINE
  8
0
 10
52
 20
169
 11
52
 21
168
  0
LINE
  8
0
 10
52
 20
168
 11
2
 21
168
  0
LINE
  8
0
 10
2
 20
172
 11
2
 21
173
  0
LINE
  8
0
 10
2
 20
173
 11
52
 21
173
  0
LINE
  8
0
 10
52
 20
173
 11
52
 21
172
  0
LINE
  8
0
 10
52
 20
172
 11
2
 21
172
  0
LINE
  8
0
 10
2
 20
176
 11
2
 21
177
  0
LINE
  8
0
 10
2
 20
177
 11
52
 21
177
  0
LINE
  8
0
 10
52
 20
177
 11
52
 21
176
  0
LINE
  8
0
 10
52
 20
176
 11
2
 21
176
  0
LINE
  8
0
 10
2
 20
180
 11
2
 21
181
  0
LINE
  8
0
 10
2
 20
181
 11
52
 21
181
  0
LINE
  8
0
 10
52
 20
181
 11
52
 21
180
  0
LINE
  8
0
 10
52
 20
180
 11
2
 21
180
  0
LINE
  8
0
 10
2
 20
184
 11
2
 21
185
  0
LINE
  8
0
 10
2
 20
185
 11
52
 21
185
  0
LINE
  8
0
 10
52
 20
185
 11
52
 21
184
  0
LINE
  8
0
 10
52
 20
184
 11
2
 21
184
  0
LINE
  8
0
 10
2
 20
188
 11
2
 21
189
  0
LINE
  8
0
 10
2
 20
189
 11
52
 21
189
  0
LINE
  8
0
 10
52
 20
189
 11
52
 21
188
  0
LINE
  8
0
 10
52
 20
188
 11
2
 21
188
  0
LINE
  8
0
 10
2
 20
192
 11
2
 21
193
  0
LINE
  8
0
 10
2
 20
193
 11
52
 21
193
  0
LINE
  8
0
 10
52
 20
193
 11
52
 21
192
  0
LINE
  8
0
 10
52
 20
192
 11
2
 21
192
  0
LINE
  8
0
 10
2
 20
196
 11
2
 21
197
  0
LINE
  8
0
 10
2
 20
197
 11
52
 21
197
  0
LINE
  8
0
 10
52
 20
197
 11
52
 21
196
  0
LINE
  8
0
 10
52
 20
196
 11
2
 21
196
  0
LINE
  8
0
 10
2
 20
200
 11
2
 21
201
  0
LINE
  8
0
 10
2
 20
201
 11
52
 21
201
  0
LINE
  8
0
 10
52
 20
201
 11
52
 21
200
  0
LINE
  8
0
 10
52
 20
200
 11
2
 21
200
  0
LINE
  8
0
 10
2
 20
204
 11
2
 21
205
  0
LINE
  8
0
 10
2
 20
205
 11
52
 21
205
  0
LINE
  8
0
 10
52
 20
205
 11
52
 21
204
  0
LINE
  8
0
 10
52
 20
204
 11
2
 21
204
  0
LINE
  8
0
 10
2
 20
208
 11
2
 21
209
  0
LINE
  8
0
 10
2
 20
209
 11
52
 21
209
  0
LINE
  8
0
 10
52
 20
209
 11
52
 21
208
  0
LINE
  8
0
 10
52
 20
208
 11
2
 21
208
  0
LINE
  8
0
 10
2
 20
212
 11
2
 21
213
  0
LINE
  8
0
 10
2
 20
213
 11
52
 21
213
  0
LINE
  8
0
 10
52
 20
213
 11
52
 21
212
  0
LINE
  8
0
 10
52
 20
212
 11
2
 21
212
  0
LINE
  8
0
 10
2
 20
216
 11
2
 21
217
  0
LINE
  8
0
 10
2
 20
217
 11
52
 21
217
  0
LINE
  8
0
 10
52
 20
217
 11
52
 21
216
  0
LINE
  8
0
 10
52
 20
216
 11
2
 21
216
  0
LINE
  8
0
 10
2
 20
220
 11
2
 21
221
  0
LINE
  8
0
 10
2
 20
221
 11
52
 21
221
  0
LINE
  8
0
 10
52
 20
221
 11
52
 21
220
  0
LINE
  8
0
 10
52
 20
220
 11
2
 21
220
  0
LINE
  8
0
 10
2
 20
224
 11
2
 21
225
  0
LINE
  8
0
 10
2
 20
225
 11
52
 21
225
  0
LINE
  8
0
 10
52
 20
225
 11
52
 21
224
  0
LINE
  8
0
 10
52
 20
224
 11
2
 21
224
  0
LINE
  8
0
 10
2
 20
228
 11
2
 21
229
  0
LINE
  8
0
 10
2
 20
229
 11
52
 21
229
  0
LINE
  8
0
 10
52
 20
229
 11
52
 21
228
  0
LINE
  8
0
 10
52
 20
228
 11
2
 21
228
  0
LINE
  8
0
 10
2
 20
232
 11
2
 21
233
  0
LINE
  8
0
 10
2
 20
233
 11
52
 21
233
  0
LINE
  8
0
 10
52
 20
233
 11
52
 21
232
  0
LINE
  8
0
 10
52
 20
232
 11
2
 21
232
  0
LINE
  8
0
 10
2
 20
236
 11
2
 21
237
  0
LINE
  8
0
 10
2
 20
237
 11
52
 21
237
  0
LINE
  8
0
 10
52
 20
237
 11
52
 21
236
  0
LINE
  8
0
 10
52
 20
236
 11
2
 21
236
  0
LINE
  8
0
 10
2
 20
240
 11
2
 21
241
  0
LINE
  8
0
 10
2
 20
241
 11
52
 21
241
  0
LINE
  8
0
 10
52
 20
241
 11
52
 21
240
  0
LINE
  8
0
 10
52
 20
240
 11
2
 21
240
  0
LINE
  8
0
 10
2
 20
244
 11
2
 21
245
  0
LINE
  8
0
 10
2
 20
245
 11
52
 21
245
  0
LINE
  8
0
 10
52
 20
245
 11
52
 21
244
  0
LINE
  8
0
 10
52
 20
244
 11
2
 21
244
  0
LINE
  8
0
 10
52
 20
2
 11
52
 21
3
  0
LINE
  8
0
 10
52
 20
3
 11
102
 21
3
  0
LINE
  8
0
 10
102
 20
3
 11
102
 21
2
  0
LINE
  8
0
 10
102
 20
2
 11
52
 21
2
  0
LINE
  8
0
 10
52
 20
6
 11
52
 21
7
  0
LINE
  8
0
 10
52
 20
7
 11
102
 21
7
  0
LINE
  8
0
 10
102
 20
7
 11
102
 21
6
  0
LINE
  8
0
 10
102
 20
6
 11
52
 21
6
  0
LINE
  8
0
 10
52
 20
10
 11
52
 21
11
  0
LINE
  8
0
 10
52
 20
11
 11
102
 21
11
  0
LINE
  8
0
 10
102
 20
11
 11
102
 21
10
  0
LINE
  8
0
 10
102
 20
10
 11
52
 21
10
  0
LINE
  8
0
 10
52
 20
14
 11
52
 21
15
  0
LINE
  8
0
 10
52
 20
15
 11
102
 21
15
  0
LINE
  8
0
 10
102
 20
15
 11
102
 21
14
  0
LINE
  8
0
 10
102
 20
14
 11
52
 21
14
  0
LINE
  8
0
 10
52
 20
18
 11
52
 21
19
  0
LINE
  8
0
 10
52
 20
19
 11
102
 21
19
  0
LINE
  8
0
 10
102
 20
19
 11
102
 21
18
  0
LINE
  8
0
 10
102
 20
18
 11
52
 21
18
  0
LINE
  8
0
 10
52
 20
22
 11
52
 21
23
  0
LINE
  8
0
 10
52
 20
23
 11
102
 21
23
  0
LINE
  8
0
 10
102
 20
23
 11
102
 21
22
  0
LINE
  8
0
 10
102
 20
22
 11
52
 21
22
  0
LINE
  8
0
 10
52
 20
26
 11
52
 21
27
  0
LINE
  8
0
 10
52
 20
27
 11
102
 21
27
  0
LINE
  8
0
 10
102
 20
27
 11
102
 21
26
  0
LINE
  8
0
 10
102
 20
26
 11
52
 21
26
  0
LINE
  8
0
 10
52
 20
30
 11
52
 21
31
  0
LINE
  8
0
 10
52
 20
31
 11
102
 21
31
  0
LINE
  8
0
 10
102
 20
31
 11
102
 21
30
  0
LINE
  8
0
 10
102
 20
30
 11
52
 21
30
  0
LINE
  8
0
 10
52
 20
34
 11
52
 21
35
  0
LINE
  8
0
 10
52
 20
35
 11
102
 21
35
  0
LINE
  8
0
 10
102
 20
35
 11
102
 21
34
  0
LINE
  8
0
 10
102
 20
34
 11
52
 21
34
  0
LINE
  8
0
 10
52
 20
38
 11
52
 21
39
  0
LINE
  8
0
 10
52
 20
39
 11
102
 21
39
  0
LINE
  8
0
 10
102
 20
39
 11
102
 21
38
  0
LINE
  8
0
 10
102
 20
38
 11
52
 21
38
  0
LINE
  8
0
 10
52
 20
42
 11
52
 21
43
  0
LINE
  8
0
 10
52
 20
43
 11
102
 21
43
  0
LINE
  8
0
 10
102
 20
43
 11
102
 21
42
  0
LINE
  8
0
 10
102
 20
42
 11
52
 21
42
  0
LINE
  8
0
 10
52
 20
46
 11
52
 21
47
  0
LINE
  8
0
 10
52
 20
47
 11
102
 21
47
  0
LINE
  8
0
 10
102
 20
47
 11
102
 21
46
  0
LINE
  8
0
 10
102
 20
46
 11
52
 21
46
  0
LINE
  8
0
 10
52
 20
50
 11
52
 21
51
  0
LINE
  8
0
 10
52
 20
51
 11
102
 21
51
  0
LINE
  8
0
 10
102
 20
51
 11
102
 21
50
  0
LINE
  8
0
 10
102
 20
50
 11
52
 21
50
  0
LINE
  8
0
 10
52
 20
54
 11
52
 21
55
  0
LINE
  8
0
 10
52
 20
55
 11
102
 21
55
  0
LINE
  8
0
 10
102
 20
55
 11
102
 21
54
  0
LINE
  8
0
 10
102
 20
54
 11
52
 21
54
  0
LINE
  8
0
 10
52
 20
58
 11
52
 21
59
  0
LINE
  8
0
 10
52
 20
59
 11
102
 21
59
  0
LINE
  8
0
 10
102
 20
59
 11
102
 21
58
  0
LINE
  8
0
 10
102
 20
58
 11
52
 21
58
  0
LINE
  8
0
 10
52
 20
62
 11
52
 21
63
  0
LINE
  8
0
 10
52
 20
63
 11
102
 21
63
  0
LINE
  8
0
 10
102
 20
63
 11
102
 21
62
  0
LINE
  8
0
 10
102
 20
62
 11
52
 21
62
  0
LINE
  8
0
 10
52
 20
66
 11
52
 21
67
  0
LINE
  8
0
 10
52
 20
67
 11
102
 21
67
  0
LINE
  8
0
 10
102
 20
67
 11
102
 21
66
  0
LINE
  8
0
 10
102
 20
66
 11
52
 21
66
  0
LINE
  8
0
 10
52
 20
70
 11
52
 21
71
  0
LINE
  8
0
 10
52
 20
71
 11
102
 21
71
  0
LINE
  8
0
 10
102
 20
71
 11
102
 21
70
  0
LINE
  8
0
 10
102
 20
70
 11
52
 21
70
  0
LINE
  8
0
 10
52
 20
74
 11
52
 21
75
  0
LINE
  8
0
 10
52
 20
75
 11
102
 21
75
  0
LINE
  8
0
 10
102
 20
75
 11
102
 21
74
  0
LINE
  8
0
 10
102
 20
74
 11
52
 21
74
  0
LINE
  8
0
 10
52
 20
78
 11
52
 21
79
  0
LINE
  8
0
 10
52
 20
79
 11
102
 21
79
  0
LINE
  8
0
 10
102
 20
79
 11
102
 21
78
  0
LINE
  8
0
 10
102
 20
78
 11
52
 21
78
  0
LINE
  8
0
 10
52
 20
82
 11
52
 21
83
  0
LINE
  8
0
 10
52
 20
83
 11
102
 21
83
  0
LINE
  8
0
 10
102
 20
83
 11
102
 21
82
  0
LINE
  8
0
 10
102
 20
82
 11
52
 21
82
  0
LINE
  8
0
 10
52
 20
86
 11
52
 21
87
  0
LINE
  8
0
 10
52
 20
87
 11
102
 21
87
  0
LINE
  8
0
 10
102
 20
87
 11
102
 21
86
  0
LINE
  8
0
 10
102
 20
86
 11
52
 21
86
  0
LINE
  8
0
 10
52
 20
90
 11
52
 21
91
  0
LINE
  8
0
 10
52
 20
91
 11
102
 21
91
  0
LINE
  8
0
 10
102
 20
91
 11
102
 21
90
  0
LINE
  8
0
 10
102
 20
90
 11
52
 21
90
  0
LINE
  8
0
 10
52
 20
94
 11
52
 21
95
  0
LINE
  8
0
 10
52
 20
95
 11
102
 21
95
  0
LINE
  8
0
 10
102
 20
95
 11
102
 21
94
  0
LINE
  8
0
 10
102
 20
94
 11
52
 21
94
  0
LINE
  8
0
 10
52
 20
98
 11
52
 21
99
  0
LINE
  8
0
 10
52
 20
99
 11
102
 21
99
  0
LINE
  8
0
 10
102
 20
99
 11
102
 21
98
  0
LINE
  8
0
 10
102
 20
98
 11
52
 21
98
  0
LINE
  8
0
 10
52
 20
102
 11
52
 21
103
  0
LINE
  8
0
 10
52
 20
103
 11
102
 21
103
  0
LINE
  8
0
 10
102
 20
103
 11
102
 21
102
  0
LINE
  8
0
 10
102
 20
102
 11
52
 21
102
  0
LINE
  8
0
 10
52
 20
106
 11
52
 21
107
  0
LINE
  8
0
 10
52
 20
107
 11
102
 21
107
  0
LINE
  8
0
 10
102
 20
107
 11
102
 21
106
  0
LINE
  8
0
 10
102
 20
106
 11
52
 21
106
  0
LINE
  8
0
 10
52
 20
110
 11
52
 21
111
  0
LINE
  8
0
 10
52
 20
111
 11
102
 21
111
  0
LINE
  8
0
 10
102
 20
111
 11
102
 21
110
  0
LINE
  8
0
 10
102
 20
110
 11
52
 21
110
  0
LINE
  8
0
 10
52
 20
114
 11
52
 21
115
  0
LINE
  8
0
 10
52
 20
115
 11
102
 21
115
  0
LINE
  8
0
 10
102
 20
115
 11
102
 21
114
  0
LINE
  8
0
 10
102
 20
114
 11
52
 21
114
  0
LINE
  8
0
 10
52
 20
118
 11
52
 21
119
  0
LINE
  8
0
 10
52
 20
119
 11
102
 21
119
  0
LINE
  8
0
 10
102
 20
119
 11
102
 21
118
  0
LINE
  8
0
 10
102
 20
118
 11
52
 21
118
  0
LINE
  8
0
 10
52
 20
122
 11
52
 21
123
  0
LINE
  8
0
 10
52
 20
123
 11
102
 21
123
  0
LINE
  8
0
 10
102
 20
123
 11
102
 21
122
  0
LINE
  8
0
 10
102
 20
122
 11
52
 21
122
  0
LINE
  8
0
 10
52
 20
126
 11
52
 21
127
  0
LINE
  8
0
 10
52
 20
127
 11
102
 21
127
  0
LINE
  8
0
 10
102
 20
127
 11
102
 21
126
  0
LINE
  8
0
 10
102
 20
126
 11
52
 21
126
  0
LINE
  8
0
 10
52
 20
130
 11
52
 21
131
  0
LINE
  8
0
 10
52
 20
131
 11
102
 21
131
  0
LINE
  8
0
 10
102
 20
131
 11
102
 21
130
  0
LINE
  8
0
 10
102
 20
130
 11
52
 21
130
  0
LINE
  8
0
 10
52
 20
134
 11
52
 21
135
  0
LINE
  8
0
 10
52
 20
135
 11
102
 21
135
  0
LINE
  8
0
 10
102
 20
135
 11
102
 21
134
  0
LINE
  8
0
 10
102
 20
134
 11
52
 21
134
  0
LINE
  8
0
 10
52
 20
138
 11
52
 21
139
  0
LINE
  8
0
 10
52
 20
139
 11
102
 21
139
  0
LINE
  8
0
 10
102
 20
139
 11
102
 21
138
  0
LINE
  8
0
 10
102
 20
138
 11
52
 21
138
  0
LINE
  8
0
 10
52
 20
142
 11
52
 21
143
  0
LINE
  8
0
 10
52
 20
143
 11
102
 21
143
  0
LINE
  8
0
 10
102
 20
143
 11
102
 21
142
  0
LINE
  8
0
 10
102
 20
142
 11
52
 21
142
  0
LINE
  8
0
 10
52
 20
146
 11
52
 21
147
  0
LINE
  8
0
 10
52
 20
147
 11
102
 21
147
  0
LINE
  8
0
 10
102
 20
147
 11
102
 21
146
  0
LINE
  8
0
 10
102
 20
146
 11
52
 21
146
  0
LINE
  8
0
 10
52
 20
150
 11
52
 21
151
  0
LINE
  8
0
 10
52
 20
151
 11
102
 21
151
  0
LINE
  8
0
 10
102
 20
151
 11
102
 21
150
  0
LINE
  8
0
 10
102
 20
150
 11
52
 21
150
  0
LINE
  8
0
 10
52
 20
154
 11
52
 21
155
  0
LINE
  8
0
 10
52
 20
155
 11
102
 21
155
  0
LINE
  8
0
 10
102
 20
155
 11
102
 21
154
  0
LINE
  8
0
 10
102
 20
154
 11
52
 21
154
  0
LINE
  8
0
 10
52
 20
158
 11
52
 21
159
  0
LINE
  8
0
 10
52
 20
159
 11
102
 21
159
  0
LINE
  8
0
 10
102
 20
159
 11
102
 21
158
  0
LINE
  8
0
 10
102
 20
158
 11
52
 21
158
  0
LINE
  8
0
 10
52
 20
162
 11
52
 21
163
  0
LINE
  8
0
 10
52
 20
163
 11
102
 21
163
  0
LINE
  8
0
 10
102
 20
163
 11
102
 21
162
  0
LINE
  8
0
 10
102
 20
162
 11
52
 21
162
  0
LINE
  8
0
 10
52
 20
166
 11
52
 21
167
  0
LINE
  8
0
 10
52
 20
167
 11
102
 21
167
  0
LINE
  8
0
 10
102
 20
167
 11
102
 21
166
  0
LINE
  8
0
 10
102
 20
166
 11
52
 21
166
  0
LINE
  8
0
 10
52
 20
170
 11
52
 21
171
  0
LINE
  8
0
 10
52
 20
171
 11
102
 21
171
  0
LINE
  8
0
 10
102
 20
171
 11
102
 21
170
  0
LINE
  8
0
 10
102
 20
170
 11
52
 21
170
  0
LINE
  8
0
 10
52
 20
174
 11
52
 21
175
  0
LINE
  8
0
 10
52
 20
175
 11
102
 21
175
  0
LINE
  8
0
 10
102
 20
175
 11
102
 21
174
  0
LINE
  8
0
 10
102
 20
174
 11
52
 21
174
  0
LINE
  8
0
 10
52
 20
178
 11
52
 21
179
  0
LINE
  8
0
 10
52
 20
179
 11
102
 21
179
  0
LINE
  8
0
 10
102
 20
179
 11
102
 21
178
  0
LINE
  8
0
 10
102
 20
178
 11
52
 21
178
  0
LINE
  8
0
 10
52
 20
182
 11
52
 21
183
  0
LINE
  8
0
 10
52
 20
183
 11
102
 21
183
  0
LINE
  8
0
 10
102
 20
183
 11
102
 21
182
  0
LINE
  8
0
 10
102
 20
182
 11
52
 21
182
  0
LINE
  8
0
 10
52
 20
186
 11
52
 21
187
  0
LINE
  8
0
 10
52
 20
187
 11
102
 21
187
  0
LINE
  8
0
 10
102
 20
187
 11
102
 21
186
  0
LINE
  8
0
 10
102
 20
186
 11
52
 21
186
  0
LINE
  8
0
 10
52
 20
190
 11
52
 21
191
  0
LINE
  8
0
 10
52
 20
191
 11
102
 21
191
  0
LINE
  8
0
 10
102
 20
191
 11
102
 21
190
  0
LINE
  8
0
 10
102
 20
190
 11
52
 21
190
  0
LINE
  8
0
 10
52
 20
194
 11
52
 21
195
  0
LINE
  8
0
 10
52
 20
195
 11
102
 21
195
  0
LINE
  8
0
 10
102
 20
195
 11
102
 21
194
  0
LINE
  8
0
 10
102
 20
194
 11
52
 21
194
  0
LINE
  8
0
 10
52
 20
198
 11
52
 21
199
  0
LINE
  8
0
 10
52
 20
199
 11
102
 21
199
  0
LINE
  8
0
 10
102
 20
199
 11
102
 21
198
  0
LINE
  8
0
 10
102
 20
198
 11
52
 21
198
  0
LINE
  8
0
 10
52
 20
202
 11
52
 21
203
  0
LINE
  8
0
 10
52
 20
203
 11
102
 21
203
  0
LINE
  8
0
 10
102
 20
203
 11
102
 21
202
  0
LINE
  8
0
 10
102
 20
202
 11
52
 21
202
  0
LINE
  8
0
 10
52
 20
206
 11
52
 21
207
  0
LINE
  8
0
 10
52
 20
207
 11
102
 21
207
  0
LINE
  8
0
 10
102
 20
207
 11
102
 21
206
  0
LINE
  8
0
 10
102
 20
206
 11
52
 21
206
  0
LINE
  8
0
 10
52
 20
210
 11
52
 21
211
  0
LINE
  8
0
 10
52
 20
211
 11
102
 21
211
  0
LINE
  8
0
 10
102
 20
211
 11
102
 21
210
  0
LINE
  8
0
 10
102
 20
210
 11
52
 21
210
  0
LINE
  8
0
 10
52
 20
214
 11
52
 21
215
  0
LINE
  8
0
 10
52
 20
215
 11
102
 21
215
  0
LINE
  8
0
 10
102
 20
215
 11
102
 21
214
  0
LINE
  8
0
 10
102
 20
214
 11
52
 21
214
  0
LINE
  8
0
 10
52
 20
218
 11
52
 21
219
  0
LINE
  8
0
 10
52
 20
219
 11
102
 21
219
  0
LINE
  8
0
 10
102
 20
219
 11
102
 21
218
  0
LINE
  8
0
 10
102
 20
218
 11
52
 21
218
  0
LINE
  8
0
 10
52
 20
222
 11
52
 21
223
  0
LINE
  8
0
 10
52
 20
223
 11
102
 21
223
  0
LINE
  8
0
 10
102
 20
223
 11
102
 21
222
  0
LINE
  8
0
 10
102
 20
222
 11
52
 21
222
  0
LINE
  8
0
 10
52
 20
226
 11
52
 21
227
  0
LINE
  8
0
 10
52
 20
227
 11
102
 21
227
  0
LINE
  8
0
 10
102
 20
227
 11
102
 21
226
  0
LINE
  8
0
 10
102
 20
226
 11
52
 21
226
  0
LINE
  8
0
 10
52
 20
230
 11
52
 21
231
  0
LINE
  8
0
 10
52
 20
231
 11
102
 21
231
  0
LINE
  8
0
 10
102
 20
231
 11
102
 21
230
  0
LINE
  8
0
 10
102
 20
230
 11
52
 21
230
  0
LINE
  8
0
 10
52
 20
234
 11
52
 21
235
  0
LINE
  8
0
 10
52
 20
235
 11
102
 21
235
  0
LINE
  8
0
 10
102
 20
235
 11
102
 21
234
  0
LINE
  8
0
 10
102
 20
234
 11
52
 21
234
  0
LINE
  8
0
 10
52
 20
238
 11
52
 21
239
  0
LINE
  8
0
 10
52
 20
239
 11
102
 21
239
  0
LINE
  8
0
 10
102
 20
239
 11
102
 21
238
  0
LINE
  8
0
 10
102
 20
238
 11
52
 21
238
  0
LINE
  8
0
 10
52
 20
242
 11
52
 21
243
  0
LINE
  8
0
 10
52
 20
243
 11
102
 21
243
  0
LINE
  8
0
 10
102
 20
243
 11
102
 21
242
  0
LINE
  8
0
 10
102
 20
242
 11
52
 21
242
  0
LINE
  8
0
 10
54
 20
4
 11
54
 21
5
  0
LINE
  8
0
 10
54
 20
5
 11
104
 21
5
  0
LINE
  8
0
 10
104
 20
5
 11
104
 21
4
  0
LINE
  8
0
 10
104
 20
4
 11
54
 21
4
  0
LINE
  8
0
 10
54
 20
8
 11
54
 21
9
  0
LINE
  8
0
 10
54
 20
9
 11
104
 21
9
  0
LINE
  8
0
 10
104
 20
9
 11
104
 21
8
  0
LINE
  8
0
 10
104
 20
8
 11
54
 21
8
  0
LINE
  8
0
 10
54
 20
12
 11
54
 21
13
  0
LINE
  8
0
 10
54
 20
13
 11
104
 21
13
  0
LINE
  8
0
 10
104
 20
13
 11
104
 21
12
  0
LINE
  8
0
 10
104
 20
12
 11
54
 21
12
  0
LINE
  8
0
 10
54
 20
16
 11
54
 21
17
  0
LINE
  8
0
 10
54
 20
17
 11
104
 21
17
  0
LINE
  8
0
 10
104
 20
17
 11
104
 21
16
  0
LINE
  8
0
 10
104
 20
16
 11
54
 21
16
  0
LINE
  8
0
 10
54
 20
20
 11
54
 21
21
  0
LINE
  8
0
 10
54
 20
21
 11
104
 21
21
  0
LINE
  8
0
 10
104
 20
21
 11
104
 21
20
  0
LINE
  8
0
 10
104
 20
20
 11
54
 21
20
  0
LINE
  8
0
 10
54
 20
24
 11
54
 21
25
  0
LINE
  8
0
 10
54
 20
25
 11
104
 21
25
  0
LINE
  8
0
 10
104
 20
25
 11
104
 21
24
  0
LINE
  8
0
 10
104
 20
24
 11
54
 21
24
  0
LINE
  8
0
 10
54
 20
28
 11
54
 21
29
  0
LINE
  8
0
 10
54
 20
29
 11
104
 21
29
  0
LINE
  8
0
 10
104
 20
29
 11
104
 21
28
  0
LINE
  8
0
 10
104
 20
28
 11
54
 21
28
  0
LINE
  8
0
 10
54
 20
32
 11
54
 21
33
  0
LINE
  8
0
 10
54
 20
33
 11
104
 21
33
  0
LINE
  8
0
 10
104
 20
33
 11
104
 21
32
  0
LINE
  8
0
 10
104
 20
32
 11
54
 21
32
  0
LINE
  8
0
 10
54
 20
36
 11
54
 21
37
  0
LINE
  8
0
 10
54
 20
37
 11
104
 21
37
  0
LINE
  8
0
 10
104
 20
37
 11
104
 21
36
  0
LINE
  8
0
 10
104
 20
36
 11
54
 21
36
  0
LINE
  8
0
 10
54
 20
40
 11
54
 21
41
  0
LINE
  8
0
 10
54
 20
41
 11
104
 21
41
  0
LINE
  8
0
 10
104
 20
41
 11
104
 21
40
  0
LINE
  8
0
 10
104
 20
40
 11
54
 21
40
  0
LINE
  8
0
 10
54
 20
44
 11
54
 21
45
  0
LINE
  8
0
 10
54
 20
45
 11
104
 21
45
  0
LINE
  8
0
 10
104
 20
45
 11
104
 21
44
  0
LINE
  8
0
 10
104
 20
44
 11
54
 21
44
  0
LINE
  8
0
 10
54
 20
48
 11
54
 21
49
  0
LINE
  8
0
 10
54
 20
49
 11
104
 21
49
  0
LINE
  8
0
 10
104
 20
49
 11
104
 21
48
  0
LINE
  8
0
 10
104
 20
48
 11
54
 21
48
  0
LINE
  8
0
 10
54
 20
52
 11
54
 21
53
  0
LINE
  8
0
 10
54
 20
53
 11
104
 21
53
  0
LINE
  8
0
 10
104
 20
53
 11
104
 21
52
  0
LINE
  8
0
 10
104
 20
52
 11
54
 21
52
  0
LINE
  8
0
 10
54
 20
56
 11
54
 21
57
  0
LINE
  8
0
 10
54
 20
57
 11
104
 21
57
  0
LINE
  8
0
 10
104
 20
57
 11
104
 21
56
  0
LINE
  8
0
 10
104
 20
56
 11
54
 21
56
  0
LINE
  8
0
 10
54
 20
60
 11
54
 21
61
  0
LINE
  8
0
 10
54
 20
61
 11
104
 21
61
  0
LINE
  8
0
 10
104
 20
61
 11
104
 21
60
  0
LINE
  8
0
 10
104
 20
60
 11
54
 21
60
  0
LINE
  8
0
 10
54
 20
64
 11
54
 21
65
  0
LINE
  8
0
 10
54
 20
65
 11
104
 21
65
  0
LINE
  8
0
 10
104
 20
65
 11
104
 21
64
  0
LINE
  8
0
 10
104
 20
64
 11
54
 21
64
  0
LINE
  8
0
 10
54
 20
68
 11
54
 21
69
  0
LINE
  8
0
 10
54
 20
69
 11
104
 21
69
  0
LINE
  8
0
 10
104
 20
69
 11
104
 21
68
  0
LINE
  8
0
 10
104
 20
68
 11
54
 21
68
  0
LINE
  8
0
 10
54
 20
72
 11
54
 21
73
  0
LINE
  8
0
 10
54
 20
73
 11
104
 21
73
  0
LINE
  8
0
 10
104
 20
73
 11
104
 21
72
  0
LINE
  8
0
 10
104
 20
72
 11
54
 21
72
  0
LINE
  8
0
 10
54
 20
76
 11
54
 21
77
  0
LINE
  8
0
 10
54
 20
77
 11
104
 21
77
  0
LINE
  8
0
 10
104
 20
77
 11
104
 21
76
  0
LINE
  8
0
 10
104
 20
76
 11
54
 21
76
  0
LINE
  8
0
 10
54
 20
80
 11
54
 21
81
  0
LINE
  8
0
 10
54
 20
81
 11
104
 21
81
  0
LINE
  8
0
 10
104
 20
81
 11
104
 21
80
  0
LINE
  8
0
 10
104
 20
80
 11
54
 21
80
  0
LINE
  8
0
 10
54
 20
84
 11
54
 21
85
  0
LINE
  8
0
 10
54
 20
85
 11
104
 21
85
  0
LINE
  8
0
 10
104
 20
85
 11
104
 21
84
  0
LINE
  8
0
 10
104
 20
84
 11
54
 21
84
  0
LINE
  8
0
 10
54
 20
88
 11
54
 21
89
  0
LINE
  8
0
 10
54
 20
89
 11
104
 21
89
  0
LINE
  8
0
 10
104
 20
89
 11
104
 21
88
  0
LINE
  8
0
 10
104
 20
88
 11
54
 21
88
  0
LINE
  8
0
 10
54
 20
92
 11
54
 21
93
  0
LINE
  8
0
 10
54
 20
93
 11
104
 21
93
  0
LINE
  8
0
 10
104
 20
93
 11
104
 21
92
  0
LINE
  8
0
 10
104
 20
92
 11
54
 21
92
  0
LINE
  8
0
 10
54
 20
96
 11
54
 21
97
  0
LINE
  8
0
 10
54
 20
97
 11
104
 21
97
  0
LINE
  8
0
 10
104
 20
97
 11
104
 21
96
  0
LINE
  8
0
 10
104
 20
96
 11
54
 21
96
  0
LINE
  8
0
 10
54
 20
100
 11
54
 21
101
  0
LINE
  8
0
 10
54
 20
101
 11
104
 21
101
  0
LINE
  8
0
 10
104
 20
101
 11
104
 21
100
  0
LINE
  8
0
 10
104
 20
100
 11
54
 21
100
  0
LINE
  8
0
 10
54
 20
104
 11
54
 21
105
  0
LINE
  8
0
 10
54
 20
105
 11
104
 21
105
  0
LINE
  8
0
 10
104
 20
105
 11
104
 21
104
  0
LINE
  8
0
 10
104
 20
104
 11
54
 21
104
  0
LINE
  8
0
 10
54
 20
108
 11
54
 21
109
  0
LINE
  8
0
 10
54
 20
109
 11
104
 21
109
  0
LINE
  8
0
 10
104
 20
109
 11
104
 21
108
  0
LINE
  8
0
 10
104
 20
108
 11
54
 21
108
  0
LINE
  8
0
 10
54
 20
112
 11
54
 21
113
  0
LINE
  8
0
 10
54
 20
113
 11
104
 21
113
  0
LINE
  8
0
 10
104
 20
113
 11
104
 21
112
  0
LINE
  8
0
 10
104
 20
112
 11
54
 21
112
  0
LINE
  8
0
 10
54
 20
116
 11
54
 21
117
  0
LINE
  8
0
 10
54
 20
117
 11
104
 21
117
  0
LINE
  8
0
 10
104
 20
117
 11
104
 21
116
  0
LINE
  8
0
 10
104
 20
116
 11
54
 21
116
  0
LINE
  8
0
 10
54
 20
120
 11
54
 21
121
  0
LINE
  8
0
 10
54
 20
121
 11
104
 21
121
  0
LINE
  8
0
 10
104
 20
121
 11
104
 21
120
  0
LINE
  8
0
 10
104
 20
120
 11
54
 21
120
  0
LINE
  8
0
 10
54
 20
124
 11
54
 21
125
  0
LINE
  8
0
 10
54
 20
125
 11
104
 21
125
  0
LINE
  8
0
 10
104
 20
125
 11
104
 21
124
  0
LINE
  8
0
 10
104
 20
124
 11
54
 21
124
  0
LINE
  8
0
 10
54
 20
128
 11
54
 21
129
  0
LINE
  8
0
 10
54
 20
129
 11
104
 21
129
  0
LINE
  8
0
 10
104
 20
129
 11
104
 21
128
  0
LINE
  8
0
 10
104
 20
128
 11
54
 21
128
  0
LINE
  8
0
 10
54
 20
132
 11
54
 21
133
  0
LINE
  8
0
 10
54
 20
133
 11
104
 21
133
  0
LINE
  8
0
 10
104
 20
133
 11
104
 21
132
  0
LINE
  8
0
 10
104
 20
132
 11
54
 21
132
  0
LINE
  8
0
 10
54
 20
136
 11
54
 21
137
  0
LINE
  8
0
 10
54
 20
137
 11
104
 21
137
  0
LINE
  8
0
 10
104
 20
137
 11
104
 21
136
  0
LINE
  8
0
 10
104
 20
136
 11
54
 21
136
  0
LINE
  8
0
 10
54
 20
140
 11
54
 21
141
  0
LINE
  8
0
 10
54
 20
141
 11
104
 21
141
  0
LINE
  8
0
 10
104
 20
141
 11
104
 21
140
  0
LINE
  8
0
 10
104
 20
140
 11
54
 21
140
  0
LINE
  8
0
 10
54
 20
144
 11
54
 21
145
  0
LINE
  8
0
 10
54
 20
145
 11
104
 21
145
  0
LINE
  8
0
 10
104
 20
145
 11
104
 21
144
  0
LINE
  8
0
 10
104
 20
144
 11
54
 21
144
  0
LINE
  8
0
 10
54
 20
148
 11
54
 21
149
  0
LINE
  8
0
 10
54
 20
149
 11
104
 21
149
  0
LINE
  8
0
 10
104
 20
149
 11
104
 21
148
  0
LINE
  8
0
 10
104
 20
148
 11
54
 21
148
  0
LINE
  8
0
 10
54
 20
152
 11
54
 21
153
  0
LINE
  8
0
 10
54
 20
153
 11
104
 21
153
  0
LINE
  8
0
 10
104
 20
153
 11
104
 21
152
  0
LINE
  8
0
 10
104
 20
152
 11
54
 21
152
  0
LINE
  8
0
 10
54
 20
156
 11
54
 21
157
  0
LINE
  8
0
 10
54
 20
157
 11
104
 21
157
  0
LINE
  8
0
 10
104
 20
157
 11
104
 21
156
  0
LINE
  8
0
 10
104
 20
156
 11
54
 21
156
  0
LINE
  8
0
 10
54
 20
160
 11
54
 21
161
  0
LINE
  8
0
 10
54
 20
161
 11
104
 21
161
  0
LINE
  8
0
 10
104
 20
161
 11
104
 21
160
  0
LINE
  8
0
 10
104
 20
160
 11
54
 21
160
  0
LINE
  8
0
 10
54
 20
164
 11
54
 21
165
  0
LINE
  8
0
 10
54
 20
165
 11
104
 21
165
  0
LINE
  8
0
 10
104
 20
165
 11
104
 21
164
  0
LINE
  8
0
 10
104
 20
164
 11
54
 21
164
  0
LINE
  8
0
 10
54
 20
168
 11
54
 21
169
  0
LINE
  8
0
 10
54
 20
169
 11
104
 21
169
  0
LINE
  8
0
 10
104
 20
169
 11
104
 21
168
  0
LINE
  8
0
 10
104
 20
168
 11
54
 21
168
  0
LINE
  8
0
 10
54
 20
172
 11
54
 21
173
  0
LINE
  8
0
 10
54
 20
173
 11
104
 21
173
  0
LINE
  8
0
 10
104
 20
173
 11
104
 21
172
  0
LINE
  8
0
 10
104
 20
172
 11
54
 21
172
  0
LINE
  8
0
 10
54
 20
176
 11
54
 21
177
  0
LINE
  8
0
 10
54
 20
177
 11
104
 21
177
  0
LINE
  8
0
 10
104
 20
177
 11
104
 21
176
  0
LINE
  8
0
 10
104
 20
176
 11
54
 21
176
  0
LINE
  8
0
 10
54
 20
180
 11
54
 21
181
  0
LINE
  8
0
 10
54
 20
181
 11
104
 21
181
  0
LINE
  8
0
 10
104
 20
181
 11
104
 21
180
  0
LINE
  8
0
 10
104
 20
180
 11
54
 21
180
  0
LINE
  8
0
 10
54
 20
184
 11
54
 21
185
  0
LINE
  8
0
 10
54
 20
185
 11
104
 21
185
  0
LINE
  8
0
 10
104
 20
185
 11
104
 21
184
  0
LINE
  8
0
 10
104
 20
184
 11
54
 21
184
  0
LINE
  8
0
 10
54
 20
188
 11
54
 21
189
  0
LINE
  8
0
 10
54
 20
189
 11
104
 21
189
  0
LINE
  8
0
 10
104
 20
189
 11
104
 21
188
  0
LINE
  8
0
 10
104
 20
188
 11
54
 21
188
  0
LINE
  8
0
 10
54
 20
192
 11
54
 21
193
  0
LINE
  8
0
 10
54
 20
193
 11
104
 21
193
  0
LINE
  8
0
 10
104
 20
193
 11
104
 21
192
  0
LINE
  8
0
 10
104
 20
192
 11
54
 21
192
  0
LINE
  8
0
 10
54
 20
196
 11
54
 21
197
  0
LINE
  8
0
 10
54
 20
197
 11
104
 21
197
  0
LINE
  8
0
 10
104
 20
197
 11
104
 21
196
  0
LINE
  8
0
 10
104
 20
196
 11
54
 21
196
  0
LINE
  8
0
 10
54
 20
200
 11
54
 21
201
  0
LINE
  8
0
 10
54
 20
201
 11
104
 21
201
  0
LINE
  8
0
 10
104
 20
201
 11
104
 21
200
  0
LINE
  8
0
 10
104
 20
200
 11
54
 21
200
  0
LINE
  8
0
 10
54
 20
204
 11
54
 21
205
  0
LINE
  8
0
 10
54
 20
205
 11
104
 21
205
  0
LINE
  8
0
 10
104
 20
205
 11
104
 21
204
  0
LINE
  8
0
 10
104
 20
204
 11
54
 21
204
  0
LINE
  8
0
 10
54
 20
208
 11
54
 21
209
  0
LINE
  8
0
 10
54
 20
209
 11
104
 21
209
  0
LINE
  8
0
 10
104
 20
209
 11
104
 21
208
  0
LINE
  8
0
 10
104
 20
208
 11
54
 21
208
  0
LINE
  8
0
 10
54
 20
212
 11
54
 21
213
  0
LINE
  8
0
 10
54
 20
213
 11
104
 21
213
  0
LINE
  8
0
 10
104
 20
213
 11
104
 21
212
  0
LINE
  8
0
 10
104
 20
212
 11
54
 21
212
  0
LINE
  8
0
 10
54
 20
216
 11
54
 21
217
  0
LINE
  8
0
 10
54
 20
217
 11
104
 21
217
  0
LINE
  8
0
 10
104
 20
217
 11
104
 21
216
  0
LINE
  8
0
 10
104
 20
216
 11
54
 21
216
  0
LINE
  8
0
 10
54
 20
220
 11
54
 21
221
  0
LINE
  8
0
 10
54
 20
221
 11
104
 21
221
  0
LINE
  8
0
 10
104
 20
221
 11
104
 21
220
  0
LINE
  8
0
 10
104
 20
220
 11
54
 21
220
  0
LINE
  8
0
 10
54
 20
224
 11
54
 21
225
  0
LINE
  8
0
 10
54
 20
225
 11
104
 21
225
  0
LINE
  8
0
 10
104
 20
225
 11
104
 21
224
  0
LINE
  8
0
 10
104
 20
224
 11
54
 21
224
  0
LINE
  8
0
 10
54
 20
228
 11
54
 21
229
  0
LINE
  8
0
 10
54
 20
229
 11
104
 21
229
  0
LINE
  8
0
 10
104
 20
229
 11
104
 21
228
  0
LINE
  8
0
 10
104
 20
228
 11
54
 21
228
  0
LINE
  8
0
 10
54
 20
232
 11
54
 21
233
  0
LINE
  8
0
 10
54
 20
233
 11
104
 21
233
  0
LINE
  8
0
 10
104
 20
233
 11
104
 21
232
  0
LINE
  8
0
 10
104
 20
232
 11
54
 21
232
  0
LINE
  8
0
 10
54
 20
236
 11
54
 21
237
  0
LINE
  8
0
 10
54
 20
237
 11
104
 21
237
  0
LINE
  8
0
 10
104
 20
237
 11
104
 21
236
  0
LINE
  8
0
 10
104
 20
236
 11
54
 21
236
  0
LINE
  8
0
 10
54
 20
240
 11
54
 21
241
  0
LINE
  8
0
 10
54
 20
241
 11
104
 21
241
  0
LINE
  8
0
 10
104
 20
241
 11
104
 21
240
  0
LINE
  8
0
 10
104
 20
240
 11
54
 21
240
  0
LINE
  8
0
 10
54
 20
244
 11
54
 21
245
  0
LINE
  8
0
 10
54
 20
245
 11
104
 21
245
  0
LINE
  8
0
 10
104
 20
245
 11
104
 21
244
  0
LINE
  8
0
 10
104
 20
244
 11
54
 21
244
  0
LINE
  8
0
 10
104
 20
2
 11
104
 21
3
  0
LINE
  8
0
 10
104
 20
3
 11
154
 21
3
  0
LINE
  8
0
 10
154
 20
3
 11
154
 21
2
  0
LINE
  8
0
 10
154
 20
2
 11
104
 21
2
  0
LINE
  8
0
 10
104
 20
6
 11
104
 21
7
  0
LINE
  8
0
 10
104
 20
7
 11
154
 21
7
  0
LINE
  8
0
 10
154
 20
7
 11
154
 21
6
  0
LINE
  8
0
 10
154
 20
6
 11
104
 21
6
  0
LINE
  8
0
 10
104
 20
10
 11
104
 21
11
  0
LINE
  8
0
 10
104
 20
11
 11
154
 21
11
  0
LINE
  8
0
 10
154
 20
11
 11
154
 21
10
  0
LINE
  8
0
 10
154
 20
10
 11
104
 21
10
  0
LINE
  8
0
 10
104
 20
14
 11
104
 21
15
  0
LINE
  8
0
 10
104
 20
15
 11
154
 21
15
  0
LINE
  8
0
 10
154
 20
15
 11
154
 21
14
  0
LINE
  8
0
 10
154
 20
14
 11
104
 21
14
  0
LINE
  8
0
 10
104
 20
18
 11
104
 21
19
  0
LINE
  8
0
 10
104
 20
19
 11
154
 21
19
  0
LINE
  8
0
 10
154
 20
19
 11
154
 21
18
  0
LINE
  8
0
 10
154
 20
18
 11
104
 21
18
  0
LINE
  8
0
 10
104
 20
22
 11
104
 21
23
  0
LINE
  8
0
 10
104
 20
23
 11
154
 21
23
  0
LINE
  8
0
 10
154
 20
23
 11
154
 21
22
  0
LINE
  8
0
 10
154
 20
22
 11
104
 21
22
  0
LINE
  8
0
 10
104
 20
26
 11
104
 21
27
  0
LINE
  8
0
 10
104
 20
27
 11
154
 21
27
  0
LINE
  8
0
 10
154
 20
27
 11
154
 21
26
  0
LINE
  8
0
 10
154
 20
26
 11
104
 21
26
  0
LINE
  8
0
 10
104
 20
30
 11
104
 21
31
  0
LINE
  8
0
 10
104
 20
31
 11
154
 21
31
  0
LINE
  8
0
 10
154
 20
31
 11
154
 21
30
  0
LINE
  8
0
 10
154
 20
30
 11
104
 21
30
  0
LINE
  8
0
 10
104
 20
34
 11
104
 21
35
  0
LINE
  8
0
 10
104
 20
35
 11
154
 21
35
  0
LINE
  8
0
 10
154
 20
35
 11
154
 21
34
  0
LINE
  8
0
 10
154
 20
34
 11
104
 21
34
  0
LINE
  8
0
 10
104
 20
38
 11
104
 21
39
  0
LINE
  8
0
 10
104
 20
39
 11
154
 21
39
  0
LINE
  8
0
 10
154
 20
39
 11
154
 21
38
  0
LINE
  8
0
 10
154
 20
38
 11
104
 21
38
  0
LINE
  8
0
 10
104
 20
42
 11
104
 21
43
  0
LINE
  8
0
 10
104
 20
43
 11
154
 21
43
  0
LINE
  8
0
 10
154
 20
43
 11
154
 21
42
  0
LINE
  8
0
 10
154
 20
42
 11
104
 21
42
  0
LINE
  8
0
 10
104
 20
46
 11
104
 21
47
  0
LINE
  8
0
 10
104
 20
47
 11
154
 21
47
  0
LINE
  8
0
 10
154
 20
47
 11
154
 21
46
  0
LINE
  8
0
 10
154
 20
46
 11
104
 21
46
  0
LINE
  8
0
 10
104
 20
50
 11
104
 21
51
  0
LINE
  8
0
 10
104
 20
51
 11
154
 21
51
  0
LINE
  8
0
 10
154
 20
51
 11
154
 21
50
  0
LINE
  8
0
 10
154
 20
50
 11
104
 21
50
  0
LINE
  8
0
 10
104
 20
54
 11
104
 21
55
  0
LINE
  8
0
 10
104
 20
55
 11
154
 21
55
  0
LINE
  8
0
 10
154
 20
55
 11
154
 21
54
  0
LINE
  8
0
 10
154
 20
54
 11
104
 21
54
  0
LINE
  8
0
 10
104
 20
58
 11
104
 21
59
  0
LINE
  8
0
 10
104
 20
59
 11
154
 21
59
  0
LINE
  8
0
 10
154
 20
59
 11
154
 21
58
  0
LINE
  8
0
 10
154
 20
58
 11
104
 21
58
  0
LINE
  8
0
 10
104
 20
62
 11
104
 21
63
  0
LINE
  8
0
 10
104
 20
63
 11
154
 21
63
  0
LINE
  8
0
 10
154
 20
63
 11
154
 21
62
  0
LINE
  8
0
 10
154
 20
62
 11
104
 21
62
  0
LINE
  8
0
 10
104
 20
66
 11
104
 21
67
  0
LINE
  8
0
 10
104
 20
67
 11
154
 21
67
  0
LINE
  8
0
 10
154
 20
67
 11
154
 21
66
  0
LINE
  8
0
 10
154
 20
66
 11
104
 21
66
  0
LINE
  8
0
 10
104
 20
70
 11
104
 21
71
  0
LINE
  8
0
 10
104
 20
71
 11
154
 21
71
  0
LINE
  8
0
 10
154
 20
71
 11
154
 21
70
  0
LINE
  8
0
 10
154
 20
70
 11
104
 21
70
  0
LINE
  8
0
 10
104
 20
74
 11
104
 21
75
  0
LINE
  8
0
 10
104
 20
75
 11
154
 21
75
  0
LINE
  8
0
 10
154
 20
75
 11
154
 21
74
  0
LINE
  8
0
 10
154
 20
74
 11
104
 21
74
  0
LINE
  8
0
 10
104
 20
78
 11
104
 21
79
  0
LINE
  8
0
 10
104
 20
79
 11
154
 21
79
  0
LINE
  8
0
 10
154
 20
79
 11
154
 21
78
  0
LINE
  8
0
 10
154
 20
78
 11
104
 21
78
  0
LINE
  8
0
 10
104
 20
82
 11
104
 21
83
  0
LINE
  8
0
 10
104
 20
83
 11
154
 21
83
  0
LINE
  8
0
 10
154
 20
83
 11
154
 21
82
  0
LINE
  8
0
 10
154
 20
82
 11
104
 21
82
  0
LINE
  8
0
 10
104
 20
86
 11
104
 21
87
  0
LINE
  8
0
 10
104
 20
87
 11
154
 21
87
  0
LINE
  8
0
 10
154
 20
87
 11
154
 21
86
  0
LINE
  8
0
 10
154
 20
86
 11
104
 21
86
  0
LINE
  8
0
 10
104
 20
90
 11
104
 21
91
  0
LINE
  8
0
 10
104
 20
91
 11
154
 21
91
  0
LINE
  8
0
 10
154
 20
91
 11
154
 21
90
  0
LINE
  8
0
 10
154
 20
90
 11
104
 21
90
  0
LINE
  8
0
 10
104
 20
94
 11
104
 21
95
  0
LINE
  8
0
 10
104
 20
95
 11
154
 21
95
  0
LINE
  8
0
 10
154
 20
95
 11
154
 21
94
  0
LINE
  8
0
 10
154
 20
94
 11
104
 21
94
  0
LINE
  8
0
 10
104
 20
98
 11
104
 21
99
  0
LINE
  8
0
 10
104
 20
99
 11
154
 21
99
  0
LINE
  8
0
 10
154
 20
99
 11
154
 21
98
  0
LINE
  8
0
 10
154
 20
98
 11
104
 21
98
  0
LINE
  8
0
 10
104
 20
102
 11
104
 21
103
  0
LINE
  8
0
 10
104
 20
103
 11
154
 21
103
  0
LINE
  8
0
 10
154
 20
103
 11
154
 21
102
  0
LINE
  8
0
 10
154
 20
102
 11
104
 21
102
  0
LINE
  8
0
 10
104
 20
106
 11
104
 21
107
  0
LINE
  8
0
 10
104
 20
107
 11
154
 21
107
  0
LINE
  8
0
 10
154
 20
107
 11
154
 21
106
  0
LINE
  8
0
 10
154
 20
106
 11
104
 21
106
  0
LINE
  8
0
 10
104
 20
110
 11
104
 21
111
  0
LINE
  8
0
 10
104
 20
111
 11
154
 21
111
  0
LINE
  8
0
 10
154
 20
111
 11
154
 21
110
  0
LINE
  8
0
 10
154
 20
110
 11
104
 21
110
  0
LINE
  8
0
 10
104
 20
114
 11
104
 21
115
  0
LINE
  8
0
 10
104
 20
115
 11
154
 21
115
  0
LINE
  8
0
 10
154
 20
115
 11
154
 21
114
  0
LINE
  8
0
 10
154
 20
114
 11
104
 21
114
  0
LINE
  8
0
 10
104
 20
118
 11
104
 21
119
  0
LINE
  8
0
 10
104
 20
119
 11
154
 21
119
  0
LINE
  8
0
 10
154
 20
119
 11
154
 21
118
  0
LINE
  8
0
 10
154
 20
118
 11
104
 21
118
  0
LINE
  8
0
 10
104
 20
122
 11
104
 21
123
  0
LINE
  8
0
 10
104
 20
123
 11
154
 21
123
  0
LINE
  8
0
 10
154
 20
123
 11
154
 21
122
  0
LINE
  8
0
 10
154
 20
122
 11
104
 21
122
  0
LINE
  8
0
 10
104
 20
126
 11
104
 21
127
  0
LINE
  8
0
 10
104
 20
127
 11
154
 21
127
  0
LINE
  8
0
 10
154
 20
127
 11
154
 21
126
  0
LINE
  8
0
 10
154
 20
126
 11
104
 21
126
  0
LINE
  8
0
 10
104
 20
130
 11
104
 21
131
  0
LINE
  8
0
 10
104
 20
131
 11
154
 21
131
  0
LINE
  8
0
 10
154
 20
131
 11
154
 21
130
  0
LINE
  8
0
 10
154
 20
130
 11
104
 21
130
  0
LINE
  8
0
 10
104
 20
134
 11
104
 21
135
  0
LINE
  8
0
 10
104
 20
135
 11
154
 21
135
  0
LINE
  8
0
 10
154
 20
135
 11
154
 21
134
  0
LINE
  8
0
 10
154
 20
134
 11
104
 21
134
  0
LINE
  8
0
 10
104
 20
138
 11
104
 21
139
  0
LINE
  8
0
 10
104
 20
139
 11
154
 21
139
  0
LINE
  8
0
 10
154
 20
139
 11
154
 21
138
  0
LINE
  8
0
 10
154
 20
138
 11
104
 21
138
  0
LINE
  8
0
 10
104
 20
142
 11
104
 21
143
  0
LINE
  8
0
 10
104
 20
143
 11
154
 21
143
  0
LINE
  8
0
 10
154
 20
143
 11
154
 21
142
  0
LINE
  8
0
 10
154
 20
142
 11
104
 21
142
  0
LINE
  8
0
 10
104
 20
146
 11
104
 21
147
  0
LINE
  8
0
 10
104
 20
147
 11
154
 21
147
  0
LINE
  8
0
 10
154
 20
147
 11
154
 21
146
  0
LINE
  8
0
 10
154
 20
146
 11
104
 21
146
  0
LINE
  8
0
 10
104
 20
150
 11
104
 21
151
  0
LINE
  8
0
 10
104
 20
151
 11
154
 21
151
  0
LINE
  8
0
 10
154
 20
151
 11
154
 21
150
  0
LINE
  8
0
 10
154
 20
150
 11
104
 21
150
  0
LINE
  8
0
 10
104
 20
154
 11
104
 21
155
  0
LINE
  8
0
 10
104
 20
155
 11
154
 21
155
  0
LINE
  8
0
 10
154
 20
155
 11
154
 21
154
  0
LINE
  8
0
 10
154
 20
154
 11
104
 21
154
  0
LINE
  8
0
 10
104
 20
158
 11
104
 21
159
  0
LINE
  8
0
 10
104
 20
159
 11
154
 21
159
  0
LINE
  8
0
 10
154
 20
159
 11
154
 21
158
  0
LINE
  8
0
 10
154
 20
158
 11
104
 21
158
  0
LINE
  8
0
 10
104
 20
162
 11
104
 21
163
  0
LINE
  8
0
 10
104
 20
163
 11
154
 21
163
  0
LINE
  8
0
 10
154
 20
163
 11
154
 21
162
  0
LINE
  8
0
 10
154
 20
162
 11
104
 21
162
  0
LINE
  8
0
 10
104
 20
166
 11
104
 21
167
  0
LINE
  8
0
 10
104
 20
167
 11
154
 21
167
  0
LINE
  8
0
 10
154
 20
167
 11
154
 21
166
  0
LINE
  8
0
 10
154
 20
166
 11
104
 21
166
  0
LINE
  8
0
 10
104
 20
170
 11
104
 21
171
  0
LINE
  8
0
 10
104
 20
171
 11
154
 21
171
  0
LINE
  8
0
 10
154
 20
171
 11
154
 21
170
  0
LINE
  8
0
 10
154
 20
170
 11
104
 21
170
  0
LINE
  8
0
 10
104
 20
174
 11
104
 21
175
  0
LINE
  8
0
 10
104
 20
175
 11
154
 21
175
  0
LINE
  8
0
 10
154
 20
175
 11
154
 21
174
  0
LINE
  8
0
 10
154
 20
174
 11
104
 21
174
  0
LINE
  8
0
 10
104
 20
178
 11
104
 21
179
  0
LINE
  8
0
 10
104
 20
179
 11
154
 21
179
  0
LINE
  8
0
 10
154
 20
179
 11
154
 21
178
  0
LINE
  8
0
 10
154
 20
178
 11
104
 21
178
  0
LINE
  8
0
 10
104
 20
182
 11
104
 21
183
  0
LINE
  8
0
 10
104
 20
183
 11
154
 21
183
  0
LINE
  8
0
 10
154
 20
183
 11
154
 21
182
  0
LINE
  8
0
 10
154
 20
182
 11
104
 21
182
  0
LINE
  8
0
 10
104
 20
186
 11
104
 21
187
  0
LINE
  8
0
 10
104
 20
187
 11
154
 21
187
  0
LINE
  8
0
 10
154
 20
187
 11
154
 21
186
  0
LINE
  8
0
 10
154
 20
186
 11
104
 21
186
  0
LINE
  8
0
 10
104
 20
190
 11
104
 21
191
  0
LINE
  8
0
 10
104
 20
191
 11
154
 21
191
  0
LINE
  8
0
 10
154
 20
191
 11
154
 21
190
  0
LINE
  8
0
 10
154
 20
190
 11
104
 21
190
  0
LINE
  8
0
 10
104
 20
194
 11
104
 21
195
  0
LINE
  8
0
 10
104
 20
195
 11
154
 21
195
  0
LINE
  8
0
 10
154
 20
195
 11
154
 21
194
  0
LINE
  8
0
 10
154
 20
194
 11
104
 21
194
  0
LINE
  8
0
 10
104
 20
198
 11
104
 21
199
  0
LINE
  8
0
 10
104
 20
199
 11
154
 21
199
  0
LINE
  8
0
 10
154
 20
199
 11
154
 21
198
  0
LINE
  8
0
 10
154
 20
198
 11
104
 21
198
  0
LINE
  8
0
 10
104
 20
202
 11
104
 21
203
  0
LINE
  8
0
 10
104
 20
203
 11
154
 21
203
  0
LINE
  8
0
 10
154
 20
203
 11
154
 21
202
  0
LINE
  8
0
 10
154
 20
202
 11
104
 21
202
  0
LINE
  8
0
 10
104
 20
206
 11
104
 21
207
  0
LINE
  8
0
 10
104
 20
207
 11
154
 21
207
  0
LINE
  8
0
 10
154
 20
207
 11
154
 21
206
  0
LINE
  8
0
 10
154
 20
206
 11
104
 21
206
  0
LINE
  8
0
 10
104
 20
210
 11
104
 21
211
  0
LINE
  8
0
 10
104
 20
211
 11
154
 21
211
  0
LINE
  8
0
 10
154
 20
211
 11
154
 21
210
  0
LINE
  8
0
 10
154
 20
210
 11
104
 21
210
  0
LINE
  8
0
 10
104
 20
214
 11
104
 21
215
  0
LINE
  8
0
 10
104
 20
215
 11
154
 21
215
  0
LINE
  8
0
 10
154
 20
215
 11
154
 21
214
  0
LINE
  8
0
 10
154
 20
214
 11
104
 21
214
  0
LINE
  8
0
 10
104
 20
218
 11
104
 21
219
  0
LINE
  8
0
 10
104
 20
219
 11
154
 21
219
  0
LINE
  8
0
 10
154
 20
219
 11
154
 21
218
  0
LINE
  8
0
 10
154
 20
218
 11
104
 21
218
  0
LINE
  8
0
 10
104
 20
222
 11
104
 21
223
  0
LINE
  8
0
 10
104
 20
223
 11
154
 21
223
  0
LINE
  8
0
 10
154
 20
223
 11
154
 21
222
  0
LINE
  8
0
 10
154
 20
222
 11
104
 21
222
  0
LINE
  8
0
 10
104
 20
226
 11
104
 21
227
  0
LINE
  8
0
 10
104
 20
227
 11
154
 21
227
  0
LINE
  8
0
 10
154
 20
227
 11
154
 21
226
  0
LINE
  8
0
 10
154
 20
226
 11
104
 21
226
  0
LINE
  8
0
 10
104
 20
230
 11
104
 21
231
  0
LINE
  8
0
 10
104
 20
231
 11
154
 21
231
  0
LINE
  8
0
 10
154
 20
231
 11
154
 21
230
  0
LINE
  8
0
 10
154
 20
230
 11
104
 21
230
  0
LINE
  8
0
 10
104
 20
234
 11
104
 21
235
  0
LINE
  8
0
 10
104
 20
235
 11
154
 21
235
  0
LINE
  8
0
 10
154
 20
235
 11
154
 21
234
  0
LINE
  8
0
 10
154
 20
234
 11
104
 21
234
  0
LINE
  8
0
 10
104
 20
238
 11
104
 21
239
  0
LINE
  8
0
 10
104
 20
239
 11
154
 21
239
  0
LINE
  8
0
 10
154
 20
239
 11
154
 21
238
  0
LINE
  8
0
 10
154
 20
238
 11
104
 21
238
  0
LINE
  8
0
 10
104
 20
242
 11
104
 21
243
  0
LINE
  8
0
 10
104
 20
243
 11
154
 21
243
  0
LINE
  8
0
 10
154
 20
243
 11
154
 21
242
  0
LINE
  8
0
 10
154
 20
242
 11
104
 21
242
  0
LINE
  8
0
 10
106
 20
4
 11
106
 21
5
  0
LINE
  8
0
 10
106
 20
5
 11
156
 21
5
  0
LINE
  8
0
 10
156
 20
5
 11
156
 21
4
  0
LINE
  8
0
 10
156
 20
4
 11
106
 21
4
  0
LINE
  8
0
 10
106
 20
8
 11
106
 21
9
  0
LINE
  8
0
 10
106
 20
9
 11
156
 21
9
  0
LINE
  8
0
 10
156
 20
9
 11
156
 21
8
  0
LINE
  8
0
 10
156
 20
8
 11
106
 21
8
  0
LINE
  8
0
 10
106
 20
12
 11
106
 21
13
  0
LINE
  8
0
 10
106
 20
13
 11
156
 21
13
  0
LINE
  8
0
 10
156
 20
13
 11
156
 21
12
  0
LINE
  8
0
 10
156
 20
12
 11
106
 21
12
  0
LINE
  8
0
 10
106
 20
16
 11
106
 21
17
  0
LINE
  8
0
 10
106
 20
17
 11
156
 21
17
  0
LINE
  8
0
 10
156
 20
17
 11
156
 21
16
  0
LINE
  8
0
 10
156
 20
16
 11
106
 21
16
  0
LINE
  8
0
 10
106
 20
20
 11
106
 21
21
  0
LINE
  8
0
 10
106
 20
21
 11
156
 21
21
  0
LINE
  8
0
 10
156
 20
21
 11
156
 21
20
  0
LINE
  8
0
 10
156
 20
20
 11
106
 21
20
  0
LINE
  8
0
 10
106
 20
24
 11
106
 21
25
  0
LINE
  8
0
 10
106
 20
25
 11
156
 21
25
  0
LINE
  8
0
 10
156
 20
25
 11
156
 21
24
  0
LINE
  8
0
 10
156
 20
24
 11
106
 21
24
  0
LINE
  8
0
 10
106
 20
28
 11
106
 21
29
  0
LINE
  8
0
 10
106
 20
29
 11
156
 21
29
  0
LINE
  8
0
 10
156
 20
29
 11
156
 21
28
  0
LINE
  8
0
 10
156
 20
28
 11
106
 21
28
  0
LINE
  8
0
 10
106
 20
32
 11
106
 21
33
  0
LINE
  8
0
 10
106
 20
33
 11
156
 21
33
  0
LINE
  8
0
 10
156
 20
33
 11
156
 21
32
  0
LINE
  8
0
 10
156
 20
32
 11
106
 21
32
  0
LINE
  8
0
 10
106
 20
36
 11
106
 21
37
  0
LINE
  8
0
 10
106
 20
37
 11
156
 21
37
  0
LINE
  8
0
 10
156
 20
37
 11
156
 21
36
  0
LINE
  8
0
 10
156
 20
36
 11
106
 21
36
  0
LINE
  8
0
 10
106
 20
40
 11
106
 21
41
  0
LINE
  8
0
 10
106
 20
41
 11
156
 21
41
  0
LINE
  8
0
 10
156
 20
41
 11
156
 21
40
  0
LINE
  8
0
 10
156
 20
40
 11
106
 21
40
  0
LINE
  8
0
 10
106
 20
44
 11
106
 21
45
  0
LINE
  8
0
 10
106
 20
45
 11
156
 21
45
  0
LINE
  8
0
 10
156
 20
45
 11
156
 21
44
  0
LINE
  8
0
 10
156
 20
44
 11
106
 21
44
  0
LINE
  8
0
 10
106
 20
48
 11
106
 21
49
  0
LINE
  8
0
 10
106
 20
49
 11
156
 21
49
  0
LINE
  8
0
 10
156
 20
49
 11
156
 21
48
  0
LINE
  8
0
 10
156
 20
48
 11
106
 21
48
  0
LINE
  8
0
 10
106
 20
52
 11
106
 21
53
  0
LINE
  8
0
 10
106
 20
53
 11
156
 21
53
  0
LINE
  8
0
 10
156
 20
53
 11
156
 21
52
  0
LINE
  8
0
 10
156
 20
52
 11
106
 21
52
  0
LINE
  8
0
 10
106
 20
56
 11
106
 21
57
  0
LINE
  8
0
 10
106
 20
57
 11
156
 21
57
  0
LINE
  8
0
 10
156
 20
57
 11
156
 21
56
  0
LINE
  8
0
 10
156
 20
56
 11
106
 21
56
  0
LINE
  8
0
 10
106
 20
60
 11
106
 21
61
  0
LINE
  8
0
 10
106
 20
61
 11
156
 21
61
  0
LINE
  8
0
 10
156
 20
61
 11
156
 21
60
  0
LINE
  8
0
 10
156
 20
60
 11
106
 21
60
  0
LINE
  8
0
 10
106
 20
64
 11
106
 21
65
  0
LINE
  8
0
 10
106
 20
65
 11
156
 21
65
  0
LINE
  8
0
 10
156
 20
65
 11
156
 21
64
  0
LINE
  8
0
 10
156
 20
64
 11
106
 21
64
  0
LINE
  8
0
 10
106
 20
68
 11
106
 21
69
  0
LINE
  8
0
 10
106
 20
69
 11
156
 21
69
  0
LINE
  8
0
 10
156
 20
69
 11
156
 21
68
  0
LINE
  8
0
 10
156
 20
68
 11
106
 21
68
  0
LINE
  8
0
 10
106
 20
72
 11
106
 21
73
  0
LINE
  8
0
 10
106
 20
73
 11
156
 21
73
  0
LINE
  8
0
 10
156
 20
73
 11
156
 21
72
  0
LINE
  8
0
 10
156
 20
72
 11
106
 21
72
  0
LINE
  8
0
 10
106
 20
76
 11
106
 21
77
  0
LINE
  8
0
 10
106
 20
77
 11
156
 21
77
  0
LINE
  8
0
 10
156
 20
77
 11
156
 21
76
  0
LINE
  8
0
 10
156
 20
76
 11
106
 21
76
  0
LINE
  8
0
 10
106
 20
80
 11
106
 21
81
  0
LINE
  8
0
 10
106
 20
81
 11
156
 21
81
  0
LINE
  8
0
 10
156
 20
81
 11
156
 21
80
  0
LINE
  8
0
 10
156
 20
80
 11
106
 21
80
  0
LINE
  8
0
 10
106
 20
84
 11
106
 21
85
  0
LINE
  8
0
 10
106
 20
85
 11
156
 21
85
  0
LINE
  8
0
 10
156
 20
85
 11
156
 21
84
  0
LINE
  8
0
 10
156
 20
84
 11
106
 21
84
  0
LINE
  8
0
 10
106
 20
88
 11
106
 21
89
  0
LINE
  8
0
 10
106
 20
89
 11
156
 21
89
  0
LINE
  8
0
 10
156
 20
89
 11
156
 21
88
  0
LINE
  8
0
 10
156
 20
88
 11
106
 21
88
  0
LINE
  8
0
 10
106
 20
92
 11
106
 21
93
  0
LINE
  8
0
 10
106
 20
93
 11
156
 21
93
  0
LINE
  8
0
 10
156
 20
93
 11
156
 21
92
  0
LINE
  8
0
 10
156
 20
92
 11
106
 21
92
  0
LINE
  8
0
 10
106
 20
96
 11
106
 21
97
  0
LINE
  8
0
 10
106
 20
97
 11
156
 21
97
  0
LINE
  8
0
 10
156
 20
97
 11
156
 21
96
  0
LINE
  8
0
 10
156
 20
96
 11
106
 21
96
  0
LINE
  8
0
 10
106
 20
100
 11
106
 21
101
  0
LINE
  8
0
 10
106
 20
101
 11
156
 21
101
  0
LINE
  8
0
 10
156
 20
101
 11
156
 21
100
  0
LINE
  8
0
 10
156
 20
100
 11
106
 21
100
  0
LINE
  8
0
 10
106
 20
104
 11
106
 21
105
  0
LINE
  8
0
 10
106
 20
105
 11
156
 21
105
  0
LINE
  8
0
 10
156
 20
105
 11
156
 21
104
  0
LINE
  8
0
 10
156
 20
104
 11
106
 21
104
  0
LINE
  8
0
 10
106
 20
108
 11
106
 21
109
  0
LINE
  8
0
 10
106
 20
109
 11
156
 21
109
  0
LINE
  8
0
 10
156
 20
109
 11
156
 21
108
  0
LINE
  8
0
 10
156
 20
108
 11
106
 21
108
  0
LINE
  8
0
 10
106
 20
112
 11
106
 21
113
  0
LINE
  8
0
 10
106
 20
113
 11
156
 21
113
  0
LINE
  8
0
 10
156
 20
113
 11
156
 21
112
  0
LINE
  8
0
 10
156
 20
112
 11
106
 21
112
  0
LINE
  8
0
 10
106
 20
116
 11
106
 21
117
  0
LINE
  8
0
 10
106
 20
117
 11
156
 21
117
  0
LINE
  8
0
 10
156
 20
117
 11
156
 21
116
  0
LINE
  8
0
 10
156
 20
116
 11
106
 21
116
  0
LINE
  8
0
 10
106
 20
120
 11
106
 21
121
  0
LINE
  8
0
 10
106
 20
121
 11
156
 21
121
  0
LINE
  8
0
 10
156
 20
121
 11
156
 21
120
  0
LINE
  8
0
 10
156
 20
120
 11
106
 21
120
  0
LINE
  8
0
 10
106
 20
124
 11
106
 21
125
  0
LINE
  8
0
 10
106
 20
125
 11
156
 21
125
  0
LINE
  8
0
 10
156
 20
125
 11
156
 21
124
  0
LINE
  8
0
 10
156
 20
124
 11
106
 21
124
  0
LINE
  8
0
 10
106
 20
128
 11
106
 21
129
  0
LINE
  8
0
 10
106
 20
129
 11
156
 21
129
  0
LINE
  8
0
 10
156
 20
129
 11
156
 21
128
  0
LINE
  8
0
 10
156
 20
128
 11
106
 21
128
  0
LINE
  8
0
 10
106
 20
132
 11
106
 21
133
  0
LINE
  8
0
 10
106
 20
133
 11
156
 21
133
  0
LINE
  8
0
 10
156
 20
133
 11
156
 21
132
  0
LINE
  8
0
 10
156
 20
132
 11
106
 21
132
  0
LINE
  8
0
 10
106
 20
136
 11
106
 21
137
  0
LINE
  8
0
 10
106
 20
137
 11
156
 21
137
  0
LINE
  8
0
 10
156
 20
137
 11
156
 21
136
  0
LINE
  8
0
 10
156
 20
136
 11
106
 21
136
  0
LINE
  8
0
 10
106
 20
140
 11
106
 21
141
  0
LINE
  8
0
 10
106
 20
141
 11
156
 21
141
  0
LINE
  8
0
 10
156
 20
141
 11
156
 21
140
  0
LINE
  8
0
 10
156
 20
140
 11
106
 21
140
  0
LINE
  8
0
 10
106
 20
144
 11
106
 21
145
  0
LINE
  8
0
 10
106
 20
145
 11
156
 21
145
  0
LINE
  8
0
 10
156
 20
145
 11
156
 21
144
  0
LINE
  8
0
 10
156
 20
144
 11
106
 21
144
  0
LINE
  8
0
 10
106
 20
148
 11
106
 21
149
  0
LINE
  8
0
 10
106
 20
149
 11
156
 21
149
  0
LINE
  8
0
 10
156
 20
149
 11
156
 21
148
  0
LINE
  8
0
 10
156
 20
148
 11
106
 21
148
  0
LINE
  8
0
 10
106
 20
152
 11
106
 21
153
  0
LINE
  8
0
 10
106
 20
153
 11
156
 21
153
  0
LINE
  8
0
 10
156
 20
153
 11
156
 21
152
  0
LINE
  8
0
 10
156
 20
152
 11
106
 21
152
  0
LINE
  8
0
 10
106
 20
156
 11
106
 21
157
  0
LINE
  8
0
 10
106
 20
157
 11
156
 21
157
  0
LINE
  8
0
 10
156
 20
157
 11
156
 21
156
  0
LINE
  8
0
 10
156
 20
156
 11
106
 21
156
  0
LINE
  8
0
 10
106
 20
160
 11
106
 21
161
  0
LINE
  8
0
 10
106
 20
161
 11
156
 21
161
  0
LINE
  8
0
 10
156
 20
161
 11
156
 21
160
  0
LINE
  8
0
 10
156
 20
160
 11
106
 21
160
  0
LINE
  8
0
 10
106
 20
164
 11
106
 21
165
  0
LINE
  8
0
 10
106
 20
165
 11
156
 21
165
  0
LINE
  8
0
 10
156
 20
165
 11
156
 21
164
  0
LINE
  8
0
 10
156
 20
164
 11
106
 21
164
  0
LINE
  8
0
 10
106
 20
168
 11
106
 21
169
  0
LINE
  8
0
 10
106
 20
169
 11
156
 21
169
  0
LINE
  8
0
 10
156
 20
169
 11
156
 21
168
  0
LINE
  8
0
 10
156
 20
168
 11
106
 21
168
  0
LINE
  8
0
 10
106
 20
172
 11
106
 21
173
  0
LINE
  8
0
 10
106
 20
173
 11
156
 21
173
  0
LINE
  8
0
 10
156
 20
173
 11
156
 21
172
  0
LINE
  8
0
 10
156
 20
172
 11
106
 21
172
  0
LINE
  8
0
 10
106
 20
176
 11
106
 21
177
  0
LINE
  8
0
 10
106
 20
177
 11
156
 21
177
  0
LINE
  8
0
 10
156
 20
177
 11
156
 21
176
  0
LINE
  8
0
 10
156
 20
176
 11
106
 21
176
  0
LINE
  8
0
 10
106
 20
180
 11
106
 21
181
  0
LINE
  8
0
 10
106
 20
181
 11
156
 21
181
  0
LINE
  8
0
 10
156
 20
181
 11
156
 21
180
  0
LINE
  8
0
 10
156
 20
180
 11
106
 21
180
  0
LINE
  8
0
 10
106
 20
184
 11
106
 21
185
  0
LINE
  8
0
 10
106
 20
185
 11
156
 21
185
  0
LINE
  8
0
 10
156
 20
185
 11
156
 21
184
  0
LINE
  8
0
 10
156
 20
184
 11
106
 21
184
  0
LINE
  8
0
 10
106
 20
188
 11
106
 21
189
  0
LINE
  8
0
 10
106
 20
189
 11
156
 21
189
  0
LINE
  8
0
 10
156
 20
189
 11
156
 21
188
  0
LINE
  8
0
 10
156
 20
188
 11
106
 21
188
  0
LINE
  8
0
 10
106
 20
192
 11
106
 21
193
  0
LINE
  8
0
 10
106
 20
193
 11
156
 21
193
  0
LINE
  8
0
 10
156
 20
193
 11
156
 21
192
  0
LINE
  8
0
 10
156
 20
192
 11
106
 21
192
  0
LINE
  8
0
 10
106
 20
196
 11
106
 21
197
  0
LINE
  8
0
 10
106
 20
197
 11
156
 21
197
  0
LINE
  8
0
 10
156
 20
197
 11
156
 21
196
  0
LINE
  8
0
 10
156
 20
196
 11
106
 21
196
  0
LINE
  8
0
 10
106
 20
200
 11
106
 21
201
  0
LINE
  8
0
 10
106
 20
201
 11
156
 21
201
  0
LINE
  8
0
 10
156
 20
201
 11
156
 21
200
  0
LINE
  8
0
 10
156
 20
200
 11
106
 21
200
  0
LINE
  8
0
 10
106
 20
204
 11
106
 21
205
  0
LINE
  8
0
 10
106
 20
205
 11
156
 21
205
  0
LINE
  8
0
 10
156
 20
205
 11
156
 21
204
  0
LINE
  8
0
 10
156
 20
204
 11
106
 21
204
  0
LINE
  8
0
 10
106
 20
208
 11
106
 21
209
  0
LINE
  8
0
 10
106
 20
209
 11
156
 21
209
  0
LINE
  8
0
 10
156
 20
209
 11
156
 21
208
  0
LINE
  8
0
 10
156
 20
208
 11
106
 21
208
  0
LINE
  8
0
 10
106
 20
212
 11
106
 21
213
  0
LINE
  8
0
 10
106
 20
213
 11
156
 21
213
  0
LINE
  8
0
 10
156
 20
213
 11
156
 21
212
  0
LINE
  8
0
 10
156
 20
212
 11
106
 21
212
  0
LINE
  8
0
 10
106
 20
216
 11
106
 21
217
  0
LINE
  8
0
 10
106
 20
217
 11
156
 21
217
  0
LINE
  8
0
 10
156
 20
217
 11
156
 21
216
  0
LINE
  8
0
 10
156
 20
216
 11
106
 21
216
  0
LINE
  8
0
 10
106
 20
220
 11
106
 21
221
  0
LINE
  8
0
 10
106
 20
221
 11
156
 21
221
  0
LINE
  8
0
 10
156
 20
221
 11
156
 21
220
  0
LINE
  8
0
 10
156
 20
220
 11
106
 21
220
  0
LINE
  8
0
 10
106
 20
224
 11
106
 21
225
  0
LINE
  8
0
 10
106
 20
225
 11
156
 21
225
  0
LINE
  8
0
 10
156
 20
225
 11
156
 21
224
  0
LINE
  8
0
 10
156
 20
224
 11
106
 21
224
  0
LINE
  8
0
 10
106
 20
228
 11
106
 21
229
  0
LINE
  8
0
 10
106
 20
229
 11
156
 21
229
  0
LINE
  8
0
 10
156
 20
229
 11
156
 21
228
  0
LINE
  8
0
 10
156
 20
228
 11
106
 21
228
  0
LINE
  8
0
 10
106
 20
232
 11
106
 21
233
  0
LINE
  8
0
 10
106
 20
233
 11
156
 21
233
  0
LINE
  8
0
 10
156
 20
233
 11
156
 21
232
  0
LINE
  8
0
 10
156
 20
232
 11
106
 21
232
  0
LINE
  8
0
 10
106
 20
236
 11
106
 21
237
  0
LINE
  8
0
 10
106
 20
237
 11
156
 21
237
  0
LINE
  8
0
 10
156
 20
237
 11
156
 21
236
  0
LINE
  8
0
 10
156
 20
236
 11
106
 21
236
  0
LINE
  8
0
 10
106
 20
240
 11
106
 21
241
  0
LINE
  8
0
 10
106
 20
241
 11
156
 21
241
  0
LINE
  8
0
 10
156
 20
241
 11
156
 21
240
  0
LINE
  8
0
 10
156
 20
240
 11
106
 21
240
  0
LINE
  8
0
 10
106
 20
244
 11
106
 21
245
  0
LINE
  8
0
 10
106
 20
245
 11
156
 21
245
  0
LINE
  8
0
 10
156
 20
245
 11
156
 21
244
  0
LINE
  8
0
 10
156
 20
244
 11
106
 21
244
  0
LINE
  8
0
 10
156
 20
2
 11
156
 21
3
  0
LINE
  8
0
 10
156
 20
3
 11
206
 21
3
  0
LINE
  8
0
 10
206
 20
3
 11
206
 21
2
  0
LINE
  8
0
 10
206
 20
2
 11
156
 21
2
  0
LINE
  8
0
 10
156
 20
6
 11
156
 21
7
  0
LINE
  8
0
 10
156
 20
7
 11
206
 21
7
  0
LINE
  8
0
 10
206
 20
7
 11
206
 21
6
  0
LINE
  8
0
 10
206
 20
6
 11
156
 21
6
  0
LINE
  8
0
 10
156
 20
10
 11
156
 21
11
  0
LINE
  8
0
 10
156
 20
11
 11
206
 21
11
  0
LINE
  8
0
 10
206
 20
11
 11
206
 21
10
  0
LINE
  8
0
 10
206
 20
10
 11
156
 21
10
  0
LINE
  8
0
 10
156
 20
14
 11
156
 21
15
  0
LINE
  8
0
 10
156
 20
15
 11
206
 21
15
  0
LINE
  8
0
 10
206
 20
15
 11
206
 21
14
  0
LINE
  8
0
 10
206
 20
14
 11
156
 21
14
  0
LINE
  8
0
 10
156
 20
18
 11
156
 21
19
  0
LINE
  8
0
 10
156
 20
19
 11
206
 21
19
  0
LINE
  8
0
 10
206
 20
19
 11
206
 21
18
  0
LINE
  8
0
 10
206
 20
18
 11
156
 21
18
  0
LINE
  8
0
 10
156
 20
22
 11
156
 21
23
  0
LINE
  8
0
 10
156
 20
23
 11
206
 21
23
  0
LINE
  8
0
 10
206
 20
23
 11
206
 21
22
  0
LINE
  8
0
 10
206
 20
22
 11
156
 21
22
  0
LINE
  8
0
 10
156
 20
26
 11
156
 21
27
  0
LINE
  8
0
 10
156
 20
27
 11
206
 21
27
  0
LINE
  8
0
 10
206
 20
27
 11
206
 21
26
  0
LINE
  8
0
 10
206
 20
26
 11
156
 21
26
  0
LINE
  8
0
 10
156
 20
30
 11
156
 21
31
  0
LINE
  8
0
 10
156
 20
31
 11
206
 21
31
  0
LINE
  8
0
 10
206
 20
31
 11
206
 21
30
  0
LINE
  8
0
 10
206
 20
30
 11
156
 21
30
  0
LINE
  8
0
 10
156
 20
34
 11
156
 21
35
  0
LINE
  8
0
 10
156
 20
35
 11
206
 21
35
  0
LINE
  8
0
 10
206
 20
35
 11
206
 21
34
  0
LINE
  8
0
 10
206
 20
34
 11
156
 21
34
  0
LINE
  8
0
 10
156
 20
38
 11
156
 21
39
  0
LINE
  8
0
 10
156
 20
39
 11
206
 21
39
  0
LINE
  8
0
 10
206
 20
39
 11
206
 21
38
  0
LINE
  8
0
 10
206
 20
38
 11
156
 21
38
  0
LINE
  8
0
 10
156
 20
42
 11
156
 21
43
  0
LINE
  8
0
 10
156
 20
43
 11
206
 21
43
  0
LINE
  8
0
 10
206
 20
43
 11
206
 21
42
  0
LINE
  8
0
 10
206
 20
42
 11
156
 21
42
  0
LINE
  8
0
 10
156
 20
46
 11
156
 21
47
  0
LINE
  8
0
 10
156
 20
47
 11
206
 21
47
  0
LINE
  8
0
 10
206
 20
47
 11
206
 21
46
  0
LINE
  8
0
 10
206
 20
46
 11
156
 21
46
  0
LINE
  8
0
 10
156
 20
50
 11
156
 21
51
  0
LINE
  8
0
 10
156
 20
51
 11
206
 21
51
  0
LINE
  8
0
 10
206
 20
51
 11
206
 21
50
  0
LINE
  8
0
 10
206
 20
50
 11
156
 21
50
  0
LINE
  8
0
 10
156
 20
54
 11
156
 21
55
  0
LINE
  8
0
 10
156
 20
55
 11
206
 21
55
  0
LINE
  8
0
 10
206
 20
55
 11
206
 21
54
  0
LINE
  8
0
 10
206
 20
54
 11
156
 21
54
  0
LINE
  8
0
 10
156
 20
58
 11
156
 21
59
  0
LINE
  8
0
 10
156
 20
59
 11
206
 21
59
  0
LINE
  8
0
 10
206
 20
59
 11
206
 21
58
  0
LINE
  8
0
 10
206
 20
58
 11
156
 21
58
  0
LINE
  8
0
 10
156
 20
62
 11
156
 21
63
  0
LINE
  8
0
 10
156
 20
63
 11
206
 21
63
  0
LINE
  8
0
 10
206
 20
63
 11
206
 21
62
  0
LINE
  8
0
 10
206
 20
62
 11
156
 21
62
  0
LINE
  8
0
 10
156
 20
66
 11
156
 21
67
  0
LINE
  8
0
 10
156
 20
67
 11
206
 21
67
  0
LINE
  8
0
 10
206
 20
67
 11
206
 21
66
  0
LINE
  8
0
 10
206
 20
66
 11
156
 21
66
  0
LINE
  8
0
 10
156
 20
70
 11
156
 21
71
  0
LINE
  8
0
 10
156
 20
71
 11
206
 21
71
  0
LINE
  8
0
 10
206
 20
71
 11
206
 21
70
  0
LINE
  8
0
 10
206
 20
70
 11
156
 21
70
  0
LINE
  8
0
 10
156
 20
74
 11
156
 21
75
  0
LINE
  8
0
 10
156
 20
75
 11
206
 21
75
  0
LINE
  8
0
 10
206
 20
75
 11
206
 21
74
  0
LINE
  8
0
 10
206
 20
74
 11
156
 21
74
  0
LINE
  8
0
 10
156
 20
78
 11
156
 21
79
  0
LINE
  8
0
 10
156
 20
79
 11
206
 21
79
  0
LINE
  8
0
 10
206
 20
79
 11
206
 21
78
  0
LINE
  8
0
 10
206
 20
78
 11
156
 21
78
  0
LINE
  8
0
 10
156
 20
82
 11
156
 21
83
  0
LINE
  8
0
 10
156
 20
83
 11
206
 21
83
  0
LINE
  8
0
 10
206
 20
83
 11
206
 21
82
  0
LINE
  8
0
 10
206
 20
82
 11
156
 21
82
  0
LINE
  8
0
 10
156
 20
86
 11
156
 21
87
  0
LINE
  8
0
 10
156
 20
87
 11
206
 21
87
  0
LINE
  8
0
 10
206
 20
87
 11
206
 21
86
  0
LINE
  8
0
 10
206
 20
86
 11
156
 21
86
  0
LINE
  8
0
 10
156
 20
90
 11
156
 21
91
  0
LINE
  8
0
 10
156
 20
91
 11
206
 21
91
  0
LINE
  8
0
 10
206
 20
91
 11
206
 21
90
  0
LINE
  8
0
 10
206
 20
90
 11
156
 21
90
  0
LINE
  8
0
 10
156
 20
94
 11
156
 21
95
  0
LINE
  8
0
 10
156
 20
95
 11
206
 21
95
  0
LINE
  8
0
 10
206
 20
95
 11
206
 21
94
  0
LINE
  8
0
 10
206
 20
94
 11
156
 21
94
  0
LINE
  8
0
 10
156
 20
98
 11
156
 21
99
  0
LINE
  8
0
 10
156
 20
99
 11
206
 21
99
  0
LINE
  8
0
 10
206
 20
99
 11
206
 21
98
  0
LINE
  8
0
 10
206
 20
98
 11
156
 21
98
  0
LINE
  8
0
 10
156
 20
102
 11
156
 21
103
  0
LINE
  8
0
 10
156
 20
103
 11
206
 21
103
  0
LINE
  8
0
 10
206
 20
103
 11
206
 21
102
  0
LINE
  8
0
 10
206
 20
102
 11
156
 21
102
  0
LINE
  8
0
 10
156
 20
106
 11
156
 21
107
  0
LINE
  8
0
 10
156
 20
107
 11
206
 21
107
  0
LINE
  8
0
 10
206
 20
107
 11
206
 21
106
  0
LINE
  8
0
 10
206
 20
106
 11
156
 21
106
  0
LINE
  8
0
 10
156
 20
110
 11
156
 21
111
  0
LINE
  8
0
 10
156
 20
111
 11
206
 21
111
  0
LINE
  8
0
 10
206
 20
111
 11
206
 21
110
  0
LINE
  8
0
 10
206
 20
110
 11
156
 21
110
  0
LINE
  8
0
 10
156
 20
114
 11
156
 21
115
  0
LINE
  8
0
 10
156
 20
115
 11
206
 21
115
  0
LINE
  8
0
 10
206
 20
115
 11
206
 21
114
  0
LINE
  8
0
 10
206
 20
114
 11
156
 21
114
  0
LINE
  8
0
 10
156
 20
118
 11
156
 21
119
  0
LINE
  8
0
 10
156
 20
119
 11
206
 21
119
  0
LINE
  8
0
 10
206
 20
119
 11
206
 21
118
  0
LINE
  8
0
 10
206
 20
118
 11
156
 21
118
  0
LINE
  8
0
 10
156
 20
122
 11
156
 21
123
  0
LINE
  8
0
 10
156
 20
123
 11
206
 21
123
  0
LINE
  8
0
 10
206
 20
123
 11
206
 21
122
  0
LINE
  8
0
 10
206
 20
122
 11
156
 21
122
  0
LINE
  8
0
 10
156
 20
126
 11
156
 21
127
  0
LINE
  8
0
 10
156
 20
127
 11
206
 21
127
  0
LINE
  8
0
 10
206
 20
127
 11
206
 21
126
  0
LINE
  8
0
 10
206
 20
126
 11
156
 21
126
  0
LINE
  8
0
 10
156
 20
130
 11
156
 21
131
  0
LINE
  8
0
 10
156
 20
131
 11
206
 21
131
  0
LINE
  8
0
 10
206
 20
131
 11
206
 21
130
  0
LINE
  8
0
 10
206
 20
130
 11
156
 21
130
  0
LINE
  8
0
 10
156
 20
134
 11
156
 21
135
  0
LINE
  8
0
 10
156
 20
135
 11
206
 21
135
  0
LINE
  8
0
 10
206
 20
135
 11
206
 21
134
  0
LINE
  8
0
 10
206
 20
134
 11
156
 21
134
  0
LINE
  8
0
 10
156
 20
138
 11
156
 21
139
  0
LINE
  8
0
 10
156
 20
139
 11
206
 21
139
  0
LINE
  8
0
 10
206
 20
139
 11
206
 21
138
  0
LINE
  8
0
 10
206
 20
138
 11
156
 21
138
  0
LINE
  8
0
 10
156
 20
142
 11
156
 21
143
  0
LINE
  8
0
 10
156
 20
143
 11
206
 21
143
  0
LINE
  8
0
 10
206
 20
143
 11
206
 21
142
  0
LINE
  8
0
 10
206
 20
142
 11
156
 21
142
  0
LINE
  8
0
 10
156
 20
146
 11
156
 21
147
  0
LINE
  8
0
 10
156
 20
147
 11
206
 21
147
  0
LINE
  8
0
 10
206
 20
147
 11
206
 21
146
  0
LINE
  8
0
 10
206
 20
146
 11
156
 21
146
  0
LINE
  8
0
 10
156
 20
150
 11
156
 21
151
  0
LINE
  8
0
 10
156
 20
151
 11
206
 21
151
  0
LINE
  8
0
 10
206
 20
151
 11
206
 21
150
  0
LINE
  8
0
 10
206
 20
150
 11
156
 21
150
  0
LINE
  8
0
 10
156
 20
154
 11
156
 21
155
  0
LINE
  8
0
 10
156
 20
155
 11
206
 21
155
  0
LINE
  8
0
 10
206
 20
155
 11
206
 21
154
  0
LINE
  8
0
 10
206
 20
154
 11
156
 21
154
  0
LINE
  8
0
 10
156
 20
158
 11
156
 21
159
  0
LINE
  8
0
 10
156
 20
159
 11
206
 21
159
  0
LINE
  8
0
 10
206
 20
159
 11
206
 21
158
  0
LINE
  8
0
 10
206
 20
158
 11
156
 21
158
  0
LINE
  8
0
 10
156
 20
162
 11
156
 21
163
  0
LINE
  8
0
 10
156
 20
163
 11
206
 21
163
  0
LINE
  8
0
 10
206
 20
163
 11
206
 21
162
  0
LINE
  8
0
 10
206
 20
162
 11
156
 21
162
  0
LINE
  8
0
 10
156
 20
166
 11
156
 21
167
  0
LINE
  8
0
 10
156
 20
167
 11
206
 21
167
  0
LINE
  8
0
 10
206
 20
167
 11
206
 21
166
  0
LINE
  8
0
 10
206
 20
166
 11
156
 21
166
  0
LINE
  8
0
 10
156
 20
170
 11
156
 21
171
  0
LINE
  8
0
 10
156
 20
171
 11
206
 21
171
  0
LINE
  8
0
 10
206
 20
171
 11
206
 21
170
  0
LINE
  8
0
 10
206
 20
170
 11
156
 21
170
  0
LINE
  8
0
 10
156
 20
174
 11
156
 21
175
  0
LINE
  8
0
 10
156
 20
175
 11
206
 21
175
  0
LINE
  8
0
 10
206
 20
175
 11
206
 21
174
  0
LINE
  8
0
 10
206
 20
174
 11
156
 21
174
  0
LINE
  8
0
 10
156
 20
178
 11
156
 21
179
  0
LINE
  8
0
 10
156
 20
179
 11
206
 21
179
  0
LINE
  8
0
 10
206
 20
179
 11
206
 21
178
  0
LINE
  8
0
 10
206
 20
178
 11
156
 21
178
  0
LINE
  8
0
 10
156
 20
182
 11
156
 21
183
  0
LINE
  8
0
 10
156
 20
183
 11
206
 21
183
  0
LINE
  8
0
 10
206
 20
183
 11
206
 21
182
  0
LINE
  8
0
 10
206
 20
182
 11
156
 21
182
  0
LINE
  8
0
 10
156
 20
186
 11
156
 21
187
  0
LINE
  8
0
 10
156
 20
187
 11
206
 21
187
  0
LINE
  8
0
 10
206
 20
187
 11
206
 21
186
  0
LINE
  8
0
 10
206
 20
186
 11
156
 21
186
  0
LINE
  8
0
 10
156
 20
190
 11
156
 21
191
  0
LINE
  8
0
 10
156
 20
191
 11
206
 21
191
  0
LINE
  8
0
 10
206
 20
191
 11
206
 21
190
  0
LINE
  8
0
 10
206
 20
190
 11
156
 21
190
  0
LINE
  8
0
 10
156
 20
194
 11
156
 21
195
  0
LINE
  8
0
 10
156
 20
195
 11
206
 21
195
  0
LINE
  8
0
 10
206
 20
195
 11
206
 21
194
  0
LINE
  8
0
 10
206
 20
194
 11
156
 21
194
  0
LINE
  8
0
 10
156
 20
198
 11
156
 21
199
  0
LINE
  8
0
 10
156
 20
199
 11
206
 21
199
  0
LINE
  8
0
 10
206
 20
199
 11
206
 21
198
  0
LINE
  8
0
 10
206
 20
198
 11
156
 21
198
  0
LINE
  8
0
 10
156
 20
202
 11
156
 21
203
  0
LINE
  8
0
 10
156
 20
203
 11
206
 21
203
  0
LINE
  8
0
 10
206
 20
203
 11
206
 21
202
  0
LINE
  8
0
 10
206
 20
202
 11
156
 21
202
  0
LINE
  8
0
 10
156
 20
206
 11
156
 21
207
  0
LINE
  8
0
 10
156
 20
207
 11
206
 21
207
  0
LINE
  8
0
 10
206
 20
207
 11
206
 21
206
  0
LINE
  8
0
 10
206
 20
206
 11
156
 21
206
  0
LINE
  8
0
 10
156
 20
210
 11
156
 21
211
  0
LINE
  8
0
 10
156
 20
211
 11
206
 21
211
  0
LINE
  8
0
 10
206
 20
211
 11
206
 21
210
  0
LINE
  8
0
 10
206
 20
210
 11
156
 21
210
  0
LINE
  8
0
 10
156
 20
214
 11
156
 21
215
  0
LINE
  8
0
 10
156
 20
215
 11
206
 21
215
  0
LINE
  8
0
 10
206
 20
215
 11
206
 21
214
  0
LINE
  8
0
 10
206
 20
214
 11
156
 21
214
  0
LINE
  8
0
 10
156
 20
218
 11
156
 21
219
  0
LINE
  8
0
 10
156
 20
219
 11
206
 21
219
  0
LINE
  8
0
 10
206
 20
219
 11
206
 21
218
  0
LINE
  8
0
 10
206
 20
218
 11
156
 21
218
  0
LINE
  8
0
 10
156
 20
222
 11
156
 21
223
  0
LINE
  8
0
 10
156
 20
223
 11
206
 21
223
  0
LINE
  8
0
 10
206
 20
223
 11
206
 21
222
  0
LINE
  8
0
 10
206
 20
222
 11
156
 21
222
  0
LINE
  8
0
 10
156
 20
226
 11
156
 21
227
  0
LINE
  8
0
 10
156
 20
227
 11
206
 21
227
  0
LINE
  8
0
 10
206
 20
227
 11
206
 21
226
  0
LINE
  8
0
 10
206
 20
226
 11
156
 21
226
  0
LINE
  8
0
 10
156
 20
230
 11
156
 21
231
  0
LINE
  8
0
 10
156
 20
231
 11
206
 21
231
  0
LINE
  8
0
 10
206
 20
231
 11
206
 21
230
  0
LINE
  8
0
 10
206
 20
230
 11
156
 21
230
  0
LINE
  8
0
 10
156
 20
234
 11
156
 21
235
  0
LINE
  8
0
 10
156
 20
235
 11
206
 21
235
  0
LINE
  8
0
 10
206
 20
235
 11
206
 21
234
  0
LINE
  8
0
 10
206
 20
234
 11
156
 21
234
  0
LINE
  8
0
 10
156
 20
238
 11
156
 21
239
  0
LINE
  8
0
 10
156
 20
239
 11
206
 21
239
  0
LINE
  8
0
 10
206
 20
239
 11
206
 21
238
  0
LINE
  8
0
 10
206
 20
238
 11
156
 21
238
  0
LINE
  8
0
 10
156
 20
242
 11
156
 21
243
  0
LINE
  8
0
 10
156
 20
243
 11
206
 21
243
  0
LINE
  8
0
 10
206
 20
243
 11
206
 21
242
  0
LINE
  8
0
 10
206
 20
242
 11
156
 21
242
  0
LINE
  8
0
 10
158
 20
4
 11
158
 21
5
  0
LINE
  8
0
 10
158
 20
5
 11
208
 21
5
  0
LINE
  8
0
 10
208
 20
5
 11
208
 21
4
  0
LINE
  8
0
 10
208
 20
4
 11
158
 21
4
  0
LINE
  8
0
 10
158
 20
8
 11
158
 21
9
  0
LINE
  8
0
 10
158
 20
9
 11
208
 21
9
  0
LINE
  8
0
 10
208
 20
9
 11
208
 21
8
  0
LINE
  8
0
 10
208
 20
8
 11
158
 21
8
  0
LINE
  8
0
 10
158
 20
12
 11
158
 21
13
  0
LINE
  8
0
 10
158
 20
13
 11
208
 21
13
  0
LINE
  8
0
 10
208
 20
13
 11
208
 21
12
  0
LINE
  8
0
 10
208
 20
12
 11
158
 21
12
  0
LINE
  8
0
 10
158
 20
16
 11
158
 21
17
  0
LINE
  8
0
 10
158
 20
17
 11
208
 21
17
  0
LINE
  8
0
 10
208
 20
17
 11
208
 21
16
  0
LINE
  8
0
 10
208
 20
16
 11
158
 21
16
  0
LINE
  8
0
 10
158
 20
20
 11
158
 21
21
  0
LINE
  8
0
 10
158
 20
21
 11
208
 21
21
  0
LINE
  8
0
 10
208
 20
21
 11
208
 21
20
  0
LINE
  8
0
 10
208
 20
20
 11
158
 21
20
  0
LINE
  8
0
 10
158
 20
24
 11
158
 21
25
  0
LINE
  8
0
 10
158
 20
25
 11
208
 21
25
  0
LINE
  8
0
 10
208
 20
25
 11
208
 21
24
  0
LINE
  8
0
 10
208
 20
24
 11
158
 21
24
  0
LINE
  8
0
 10
158
 20
28
 11
158
 21
29
  0
LINE
  8
0
 10
158
 20
29
 11
208
 21
29
  0
LINE
  8
0
 10
208
 20
29
 11
208
 21
28
  0
LINE
  8
0
 10
208
 20
28
 11
158
 21
28
  0
LINE
  8
0
 10
158
 20
32
 11
158
 21
33
  0
LINE
  8
0
 10
158
 20
33
 11
208
 21
33
  0
LINE
  8
0
 10
208
 20
33
 11
208
 21
32
  0
LINE
  8
0
 10
208
 20
32
 11
158
 21
32
  0
LINE
  8
0
 10
158
 20
36
 11
158
 21
37
  0
LINE
  8
0
 10
158
 20
37
 11
208
 21
37
  0
LINE
  8
0
 10
208
 20
37
 11
208
 21
36
  0
LINE
  8
0
 10
208
 20
36
 11
158
 21
36
  0
LINE
  8
0
 10
158
 20
40
 11
158
 21
41
  0
LINE
  8
0
 10
158
 20
41
 11
208
 21
41
  0
LINE
  8
0
 10
208
 20
41
 11
208
 21
40
  0
LINE
  8
0
 10
208
 20
40
 11
158
 21
40
  0
LINE
  8
0
 10
158
 20
44
 11
158
 21
45
  0
LINE
  8
0
 10
158
 20
45
 11
208
 21
45
  0
LINE
  8
0
 10
208
 20
45
 11
208
 21
44
  0
LINE
  8
0
 10
208
 20
44
 11
158
 21
44
  0
LINE
  8
0
 10
158
 20
48
 11
158
 21
49
  0
LINE
  8
0
 10
158
 20
49
 11
208
 21
49
  0
LINE
  8
0
 10
208
 20
49
 11
208
 21
48
  0
LINE
  8
0
 10
208
 20
48
 11
158
 21
48
  0
LINE
  8
0
 10
158
 20
52
 11
158
 21
53
  0
LINE
  8
0
 10
158
 20
53
 11
208
 21
53
  0
LINE
  8
0
 10
208
 20
53
 11
208
 21
52
  0
LINE
  8
0
 10
208
 20
52
 11
158
 21
52
  0
LINE
  8
0
 10
158
 20
56
 11
158
 21
57
  0
LINE
  8
0
 10
158
 20
57
 11
208
 21
57
  0
LINE
  8
0
 10
208
 20
57
 11
208
 21
56
  0
LINE
  8
0
 10
208
 20
56
 11
158
 21
56
  0
LINE
  8
0
 10
158
 20
60
 11
158
 21
61
  0
LINE
  8
0
 10
158
 20
61
 11
208
 21
61
  0
LINE
  8
0
 10
208
 20
61
 11
208
 21
60
  0
LINE
  8
0
 10
208
 20
60
 11
158
 21
60
  0
LINE
  8
0
 10
158
 20
64
 11
158
 21
65
  0
LINE
  8
0
 10
158
 20
65
 11
208
 21
65
  0
LINE
  8
0
 10
208
 20
65
 11
208
 21
64
  0
LINE
  8
0
 10
208
 20
64
 11
158
 21
64
  0
LINE
  8
0
 10
158
 20
68
 11
158
 21
69
  0
LINE
  8
0
 10
158
 20
69
 11
208
 21
69
  0
LINE
  8
0
 10
208
 20
69
 11
208
 21
68
  0
LINE
  8
0
 10
208
 20
68
 11
158
 21
68
  0
LINE
  8
0
 10
158
 20
72
 11
158
 21
73
  0
LINE
  8
0
 10
158
 20
73
 11
208
 21
73
  0
LINE
  8
0
 10
208
 20
73
 11
208
 21
72
  0
LINE
  8
0
 10
208
 20
72
 11
158
 21
72
  0
LINE
  8
0
 10
158
 20
76
 11
158
 21
77
  0
LINE
  8
0
 10
158
 20
77
 11
208
 21
77
  0
LINE
  8
0
 10
208
 20
77
 11
208
 21
76
  0
LINE
  8
0
 10
208
 20
76
 11
158
 21
76
  0
LINE
  8
0
 10
158
 20
80
 11
158
 21
81
  0
LINE
  8
0
 10
158
 20
81
 11
208
 21
81
  0
LINE
  8
0
 10
208
 20
81
 11
208
 21
80
  0
LINE
  8
0
 10
208
 20
80
 11
158
 21
80
  0
LINE
  8
0
 10
158
 20
84
 11
158
 21
85
  0
LINE
  8
0
 10
158
 20
85
 11
208
 21
85
  0
LINE
  8
0
 10
208
 20
85
 11
208
 21
84
  0
LINE
  8
0
 10
208
 20
84
 11
158
 21
84
  0
LINE
  8
0
 10
158
 20
88
 11
158
 21
89
  0
LINE
  8
0
 10
158
 20
89
 11
208
 21
89
  0
LINE
  8
0
 10
208
 20
89
 11
208
 21
88
  0
LINE
  8
0
 10
208
 20
88
 11
158
 21
88
  0
LINE
  8
0
 10
158
 20
92
 11
158
 21
93
  0
LINE
  8
0
 10
158
 20
93
 11
208
 21
93
  0
LINE
  8
0
 10
208
 20
93
 11
208
 21
92
  0
LINE
  8
0
 10
208
 20
92
 11
158
 21
92
  0
LINE
  8
0
 10
158
 20
96
 11
158
 21
97
  0
LINE
  8
0
 10
158
 20
97
 11
208
 21
97
  0
LINE
  8
0
 10
208
 20
97
 11
208
 21
96
  0
LINE
  8
0
 10
208
 20
96
 11
158
 21
96
  0
LINE
  8
0
 10
158
 20
100
 11
158
 21
101
  0
LINE
  8
0
 10
158
 20
101
 11
208
 21
101
  0
LINE
  8
0
 10
208
 20
101
 11
208
 21
100
  0
LINE
  8
0
 10
208
 20
100
 11
158
 21
100
  0
LINE
  8
0
 10
158
 20
104
 11
158
 21
105
  0
LINE
  8
0
 10
158
 20
105
 11
208
 21
105
  0
LINE
  8
0
 10
208
 20
105
 11
208
 21
104
  0
LINE
  8
0
 10
208
 20
104
 11
158
 21
104
  0
LINE
  8
0
 10
158
 20
108
 11
158
 21
109
  0
LINE
  8
0
 10
158
 20
109
 11
208
 21
109
  0
LINE
  8
0
 10
208
 20
109
 11
208
 21
108
  0
LINE
  8
0
 10
208
 20
108
 11
158
 21
108
  0
LINE
  8
0
 10
158
 20
112
 11
158
 21
113
  0
LINE
  8
0
 10
158
 20
113
 11
208
 21
113
  0
LINE
  8
0
 10
208
 20
113
 11
208
 21
112
  0
LINE
  8
0
 10
208
 20
112
 11
158
 21
112
  0
LINE
  8
0
 10
158
 20
116
 11
158
 21
117
  0
LINE
  8
0
 10
158
 20
117
 11
208
 21
117
  0
LINE
  8
0
 10
208
 20
117
 11
208
 21
116
  0
LINE
  8
0
 10
208
 20
116
 11
158
 21
116
  0
LINE
  8
0
 10
158
 20
120
 11
158
 21
121
  0
LINE
  8
0
 10
158
 20
121
 11
208
 21
121
  0
LINE
  8
0
 10
208
 20
121
 11
208
 21
120
  0
LINE
  8
0
 10
208
 20
120
 11
158
 21
120
  0
LINE
  8
0
 10
158
 20
124
 11
158
 21
125
  0
LINE
  8
0
 10
158
 20
125
 11
208
 21
125
  0
LINE
  8
0
 10
208
 20
125
 11
208
 21
124
  0
LINE
  8
0
 10
208
 20
124
 11
158
 21
124
  0
LINE
  8
0
 10
158
 20
128
 11
158
 21
129
  0
LINE
  8
0
 10
158
 20
129
 11
208
 21
129
  0
LINE
  8
0
 10
208
 20
129
 11
208
 21
128
  0
LINE
  8
0
 10
208
 20
128
 11
158
 21
128
  0
LINE
  8
0
 10
158
 20
132
 11
158
 21
133
  0
LINE
  8
0
 10
158
 20
133
 11
208
 21
133
  0
LINE
  8
0
 10
208
 20
133
 11
208
 21
132
  0
LINE
  8
0
 10
208
 20
132
 11
158
 21
132
  0
LINE
  8
0
 10
158
 20
136
 11
158
 21
137
  0
LINE
  8
0
 10
158
 20
137
 11
208
 21
137
  0
LINE
  8
0
 10
208
 20
137
 11
208
 21
136
  0
LINE
  8
0
 10
208
 20
136
 11
158
 21
136
  0
LINE
  8
0
 10
158
 20
140
 11
158
 21
141
  0
LINE
  8
0
 10
158
 20
141
 11
208
 21
141
  0
LINE
  8
0
 10
208
 20
141
 11
208
 21
140
  0
LINE
  8
0
 10
208
 20
140
 11
158
 21
140
  0
LINE
  8
0
 10
158
 20
144
 11
158
 21
145
  0
LINE
  8
0
 10
158
 20
145
 11
208
 21
145
  0
LINE
  8
0
 10
208
 20
145
 11
208
 21
144
  0
LINE
  8
0
 10
208
 20
144
 11
158
 21
144
  0
LINE
  8
0
 10
158
 20
148
 11
158
 21
149
  0
LINE
  8
0
 10
158
 20
149
 11
208
 21
149
  0
LINE
  8
0
 10
208
 20
149
 11
208
 21
148
  0
LINE
  8
0
 10
208
 20
148
 11
158
 21
148
  0
LINE
  8
0
 10
158
 20
152
 11
158
 21
153
  0
LINE
  8
0
 10
158
 20
153
 11
208
 21
153
  0
LINE
  8
0
 10
208
 20
153
 11
208
 21
152
  0
LINE
  8
0
 10
208
 20
152
 11
158
 21
152
  0
LINE
  8
0
 10
158
 20
156
 11
158
 21
157
  0
LINE
  8
0
 10
158
 20
157
 11
208
 21
157
  0
LINE
  8
0
 10
208
 20
157
 11
208
 21
156
  0
LINE
  8
0
 10
208
 20
156
 11
158
 21
156
  0
LINE
  8
0
 10
158
 20
160
 11
158
 21
161
  0
LINE
  8
0
 10
158
 20
161
 11
208
 21
161
  0
LINE
  8
0
 10
208
 20
161
 11
208
 21
160
  0
LINE
  8
0
 10
208
 20
160
 11
158
 21
160
  0
LINE
  8
0
 10
158
 20
164
 11
158
 21
165
  0
LINE
  8
0
 10
158
 20
165
 11
208
 21
165
  0
LINE
  8
0
 10
208
 20
165
 11
208
 21
164
  0
LINE
  8
0
 10
208
 20
164
 11
158
 21
164
  0
LINE
  8
0
 10
158
 20
168
 11
158
 21
169
  0
LINE
  8
0
 10
158
 20
169
 11
208
 21
169
  0
LINE
  8
0
 10
208
 20
169
 11
208
 21
168
  0
LINE
  8
0
 10
208
 20
168
 11
158
 21
168
  0
LINE
  8
0
 10
158
 20
172
 11
158
 21
173
  0
LINE
  8
0
 10
158
 20
173
 11
208
 21
173
  0
LINE
  8
0
 10
208
 20
173
 11
208
 21
172
  0
LINE
  8
0
 10
208
 20
172
 11
158
 21
172
  0
LINE
  8
0
 10
158
 20
176
 11
158
 21
177
  0
LINE
  8
0
 10
158
 20
177
 11
208
 21
177
  0
LINE
  8
0
 10
208
 20
177
 11
208
 21
176
  0
LINE
  8
0
 10
208
 20
176
 11
158
 21
176
  0
LINE
  8
0
 10
158
 20
180
 11
158
 21
181
  0
LINE
  8
0
 10
158
 20
181
 11
208
 21
181
  0
LINE
  8
0
 10
208
 20
181
 11
208
 21
180
  0
LINE
  8
0
 10
208
 20
180
 11
158
 21
180
  0
LINE
  8
0
 10
158
 20
184
 11
158
 21
185
  0
LINE
  8
0
 10
158
 20
185
 11
208
 21
185
  0
LINE
  8
0
 10
208
 20
185
 11
208
 21
184
  0
LINE
  8
0
 10
208
 20
184
 11
158
 21
184
  0
LINE
  8
0
 10
158
 20
188
 11
158
 21
189
  0
LINE
  8
0
 10
158
 20
189
 11
208
 21
189
  0
LINE
  8
0
 10
208
 20
189
 11
208
 21
188
  0
LINE
  8
0
 10
208
 20
188
 11
158
 21
188
  0
LINE
  8
0
 10
158
 20
192
 11
158
 21
193
  0
LINE
  8
0
 10
158
 20
193
 11
208
 21
193
  0
LINE
  8
0
 10
208
 20
193
 11
208
 21
192
  0
LINE
  8
0
 10
208
 20
192
 11
158
 21
192
  0
LINE
  8
0
 10
158
 20
196
 11
158
 21
197
  0
LINE
  8
0
 10
158
 20
197
 11
208
 21
197
  0
LINE
  8
0
 10
208
 20
197
 11
208
 21
196
  0
LINE
  8
0
 10
208
 20
196
 11
158
 21
196
  0
LINE
  8
0
 10
158
 20
200
 11
158
 21
201
  0
LINE
  8
0
 10
158
 20
201
 11
208
 21
201
  0
LINE
  8
0
 10
208
 20
201
 11
208
 21
200
  0
LINE
  8
0
 10
208
 20
200
 11
158
 21
200
  0
LINE
  8
0
 10
158
 20
204
 11
158
 21
205
  0
LINE
  8
0
 10
158
 20
205
 11
208
 21
205
  0
LINE
  8
0
 10
208
 20
205
 11
208
 21
204
  0
LINE
  8
0
 10
208
 20
204
 11
158
 21
204
  0
LINE
  8
0
 10
158
 20
208
 11
158
 21
209
  0
LINE
  8
0
 10
158
 20
209
 11
208
 21
209
  0
LINE
  8
0
 10
208
 20
209
 11
208
 21
208
  0
LINE
  8
0
 10
208
 20
208
 11
158
 21
208
  0
LINE
  8
0
 10
158
 20
212
 11
158
 21
213
  0
LINE
  8
0
 10
158
 20
213
 11
208
 21
213
  0
LINE
  8
0
 10
208
 20
213
 11
208
 21
212
  0
LINE
  8
0
 10
208
 20
212
 11
158
 21
212
  0
LINE
  8
0
 10
158
 20
216
 11
158
 21
217
  0
LINE
  8
0
 10
158
 20
217
 11
208
 21
217
  0
LINE
  8
0
 10
208
 20
217
 11
208
 21
216
  0
LINE
  8
0
 10
208
 20
216
 11
158
 21
216
  0
LINE
  8
0
 10
158
 20
220
 11
158
 21
221
  0
LINE
  8
0
 10
158
 20
221
 11
208
 21
221
  0
LINE
  8
0
 10
208
 20
221
 11
208
 21
220
  0
LINE
  8
0
 10
208
 20
220
 11
158
 21
220
  0
LINE
  8
0
 10
158
 20
224
 11
158
 21
225
  0
LINE
  8
0
 10
158
 20
225
 11
208
 21
225
  0
LINE
  8
0
 10
208
 20
225
 11
208
 21
224
  0
LINE
  8
0
 10
208
 20
224
 11
158
 21
224
  0
LINE
  8
0
 10
158
 20
228
 11
158
 21
229
  0
LINE
  8
0
 10
158
 20
229
 11
208
 21
229
  0
LINE
  8
0
 10
208
 20
229
 11
208
 21
228
  0
LINE
  8
0
 10
208
 20
228
 11
158
 21
228
  0
LINE
  8
0
 10
158
 20
232
 11
158
 21
233
  0
LINE
  8
0
 10
158
 20
233
 11
208
 21
233
  0
LINE
  8
0
 10
208
 20
233
 11
208
 21
232
  0
LINE
  8
0
 10
208
 20
232
 11
158
 21
232
  0
LINE
  8
0
 10
158
 20
236
 11
158
 21
237
  0
LINE
  8
0
 10
158
 20
237
 11
208
 21
237
  0
LINE
  8
0
 10
208
 20
237
 11
208
 21
236
  0
LINE
  8
0
 10
208
 20
236
 11
158
 21
236
  0
LINE
  8
0
 10
158
 20
240
 11
158
 21
241
  0
LINE
  8
0
 10
158
 20
241
 11
208
 21
241
  0
LINE
  8
0
 10
208
 20
241
 11
208
 21
240
  0
LINE
  8
0
 10
208
 20
240
 11
158
 21
240
  0
LINE
  8
0
 10
158
 20
244
 11
158
 21
245
  0
LINE
  8
0
 10
158
 20
245
 11
208
 21
245
  0
LINE
  8
0
 10
208
 20
245
 11
208
 21
244
  0
LINE
  8
0
 10
208
 20
244
 11
158
 21
244
  0
LINE
  8
0
 10
208
 20
2
 11
208
 21
3
  0
LINE
  8
0
 10
208
 20
3
 11
258
 21
3
  0
LINE
  8
0
 10
258
 20
3
 11
258
 21
2
  0
LINE
  8
0
 10
258
 20
2
 11
208
 21
2
  0
LINE
  8
0
 10
208
 20
6
 11
208
 21
7
  0
LINE
  8
0
 10
208
 20
7
 11
258
 21
7
  0
LINE
  8
0
 10
258
 20
7
 11
258
 21
6
  0
LINE
  8
0
 10
258
 20
6
 11
208
 21
6
  0
LINE
  8
0
 10
208
 20
10
 11
208
 21
11
  0
LINE
  8
0
 10
208
 20
11
 11
258
 21
11
  0
LINE
  8
0
 10
258
 20
11
 11
258
 21
10
  0
LINE
  8
0
 10
258
 20
10
 11
208
 21
10
  0
LINE
  8
0
 10
208
 20
14
 11
208
 21
15
  0
LINE
  8
0
 10
208
 20
15
 11
258
 21
15
  0
LINE
  8
0
 10
258
 20
15
 11
258
 21
14
  0
LINE
  8
0
 10
258
 20
14
 11
208
 21
14
  0
LINE
  8
0
 10
208
 20
18
 11
208
 21
19
  0
LINE
  8
0
 10
208
 20
19
 11
258
 21
19
  0
LINE
  8
0
 10
258
 20
19
 11
258
 21
18
  0
LINE
  8
0
 10
258
 20
18
 11
208
 21
18
  0
LINE
  8
0
 10
208
 20
22
 11
208
 21
23
  0
LINE
  8
0
 10
208
 20
23
 11
258
 21
23
  0
LINE
  8
0
 10
258
 20
23
 11
258
 21
22
  0
LINE
  8
0
 10
258
 20
22
 11
208
 21
22
  0
LINE
  8
0
 10
208
 20
26
 11
208
 21
27
  0
LINE
  8
0
 10
208
 20
27
 11
258
 21
27
  0
LINE
  8
0
 10
258
 20
27
 11
258
 21
26
  0
LINE
  8
0
 10
258
 20
26
 11
208
 21
26
  0
LINE
  8
0
 10
208
 20
30
 11
208
 21
31
  0
LINE
  8
0
 10
208
 20
31
 11
258
 21
31
  0
LINE
  8
0
 10
258
 20
31
 11
258
 21
30
  0
LINE
  8
0
 10
258
 20
30
 11
208
 21
30
  0
LINE
  8
0
 10
208
 20
34
 11
208
 21
35
  0
LINE
  8
0
 10
208
 20
35
 11
258
 21
35
  0
LINE
  8
0
 10
258
 20
35
 11
258
 21
34
  0
LINE
  8
0
 10
258
 20
34
 11
208
 21
34
  0
LINE
  8
0
 10
208
 20
38
 11
208
 21
39
  0
LINE
  8
0
 10
208
 20
39
 11
258
 21
39
  0
LINE
  8
0
 10
258
 20
39
 11
258
 21
38
  0
LINE
  8
0
 10
258
 20
38
 11
208
 21
38
  0
LINE
  8
0
 10
208
 20
42
 11
208
 21
43
  0
LINE
  8
0
 10
208
 20
43
 11
258
 21
43
  0
LINE
  8
0
 10
258
 20
43
 11
258
 21
42
  0
LINE
  8
0
 10
258
 20
42
 11
208
 21
42
  0
LINE
  8
0
 10
208
 20
46
 11
208
 21
47
  0
LINE
  8
0
 10
208
 20
47
 11
258
 21
47
  0
LINE
  8
0
 10
258
 20
47
 11
258
 21
46
  0
LINE
  8
0
 10
258
 20
46
 11
208
 21
46
  0
LINE
  8
0
 10
208
 20
50
 11
208
 21
51
  0
LINE
  8
0
 10
208
 20
51
 11
258
 21
51
  0
LINE
  8
0
 10
258
 20
51
 11
258
 21
50
  0
LINE
  8
0
 10
258
 20
50
 11
208
 21
50
  0
LINE
  8
0
 10
208
 20
54
 11
208
 21
55
  0
LINE
  8
0
 10
208
 20
55
 11
258
 21
55
  0
LINE
  8
0
 10
258
 20
55
 11
258
 21
54
  0
LINE
  8
0
 10
258
 20
54
 11
208
 21
54
  0
LINE
  8
0
 10
208
 20
58
 11
208
 21
59
  0
LINE
  8
0
 10
208
 20
59
 11
258
 21
59
  0
LINE
  8
0
 10
258
 20
59
 11
258
 21
58
  0
LINE
  8
0
 10
258
 20
58
 11
208
 21
58
  0
LINE
  8
0
 10
208
 20
62
 11
208
 21
63
  0
LINE
  8
0
 10
208
 20
63
 11
258
 21
63
  0
LINE
  8
0
 10
258
 20
63
 11
258
 21
62
  0
LINE
  8
0
 10
258
 20
62
 11
208
 21
62
  0
LINE
  8
0
 10
208
 20
66
 11
208
 21
67
  0
LINE
  8
0
 10
208
 20
67
 11
258
 21
67
  0
LINE
  8
0
 10
258
 20
67
 11
258
 21
66
  0
LINE
  8
0
 10
258
 20
66
 11
208
 21
66
  0
LINE
  8
0
 10
208
 20
70
 11
208
 21
71
  0
LINE
  8
0
 10
208
 20
71
 11
258
 21
71
  0
LINE
  8
0
 10
258
 20
71
 11
258
 21
70
  0
LINE
  8
0
 10
258
 20
70
 11
208
 21
70
  0
LINE
  8
0
 10
208
 20
74
 11
208
 21
75
  0
LINE
  8
0
 10
208
 20
75
 11
258
 21
75
  0
LINE
  8
0
 10
258
 20
75
 11
258
 21
74
  0
LINE
  8
0
 10
258
 20
74
 11
208
 21
74
  0
LINE
  8
0
 10
208
 20
78
 11
208
 21
79
  0
LINE
  8
0
 10
208
 20
79
 11
258
 21
79
  0
LINE
  8
0
 10
258
 20
79
 11
258
 21
78
  0
LINE
  8
0
 10
258
 20
78
 11
208
 21
78
  0
LINE
  8
0
 10
208
 20
82
 11
208
 21
83
  0
LINE
  8
0
 10
208
 20
83
 11
258
 21
83
  0
LINE
  8
0
 10
258
 20
83
 11
258
 21
82
  0
LINE
  8
0
 10
258
 20
82
 11
208
 21
82
  0
LINE
  8
0
 10
208
 20
86
 11
208
 21
87
  0
LINE
  8
0
 10
208
 20
87
 11
258
 21
87
  0
LINE
  8
0
 10
258
 20
87
 11
258
 21
86
  0
LINE
  8
0
 10
258
 20
86
 11
208
 21
86
  0
LINE
  8
0
 10
208
 20
90
 11
208
 21
91
  0
LINE
  8
0
 10
208
 20
91
 11
258
 21
91
  0
LINE
  8
0
 10
258
 20
91
 11
258
 21
90
  0
LINE
  8
0
 10
258
 20
90
 11
208
 21
90
  0
LINE
  8
0
 10
208
 20
94
 11
208
 21
95
  0
LINE
  8
0
 10
208
 20
95
 11
258
 21
95
  0
LINE
  8
0
 10
258
 20
95
 11
258
 21
94
  0
LINE
  8
0
 10
258
 20
94
 11
208
 21
94
  0
LINE
  8
0
 10
208
 20
98
 11
208
 21
99
  0
LINE
  8
0
 10
208
 20
99
 11
258
 21
99
  0
LINE
  8
0
 10
258
 20
99
 11
258
 21
98
  0
LINE
  8
0
 10
258
 20
98
 11
208
 21
98
  0
LINE
  8
0
 10
208
 20
102
 11
208
 21
103
  0
LINE
  8
0
 10
208
 20
103
 11
258
 21
103
  0
LINE
  8
0
 10
258
 20
103
 11
258
 21
102
  0
LINE
  8
0
 10
258
 20
102
 11
208
 21
102
  0
LINE
  8
0
 10
208
 20
106
 11
208
 21
107
  0
LINE
  8
0
 10
208
 20
107
 11
258
 21
107
  0
LINE
  8
0
 10
258
 20
107
 11
258
 21
106
  0
LINE
  8
0
 10
258
 20
106
 11
208
 21
106
  0
LINE
  8
0
 10
208
 20
110
 11
208
 21
111
  0
LINE
  8
0
 10
208
 20
111
 11
258
 21
111
  0
LINE
  8
0
 10
258
 20
111
 11
258
 21
110
  0
LINE
  8
0
 10
258
 20
110
 11
208
 21
110
  0
LINE
  8
0
 10
208
 20
114
 11
208
 21
115
  0
LINE
  8
0
 10
208
 20
115
 11
258
 21
115
  0
LINE
  8
0
 10
258
 20
115
 11
258
 21
114
  0
LINE
  8
0
 10
258
 20
114
 11
208
 21
114
  0
LINE
  8
0
 10
208
 20
118
 11
208
 21
119
  0
LINE
  8
0
 10
208
 20
119
 11
258
 21
119
  0
LINE
  8
0
 10
258
 20
119
 11
258
 21
118
  0
LINE
  8
0
 10
258
 20
118
 11
208
 21
118
  0
LINE
  8
0
 10
208
 20
122
 11
208
 21
123
  0
LINE
  8
0
 10
208
 20
123
 11
258
 21
123
  0
LINE
  8
0
 10
258
 20
123
 11
258
 21
122
  0
LINE
  8
0
 10
258
 20
122
 11
208
 21
122
  0
LINE
  8
0
 10
208
 20
126
 11
208
 21
127
  0
LINE
  8
0
 10
208
 20
127
 11
258
 21
127
  0
LINE
  8
0
 10
258
 20
127
 11
258
 21
126
  0
LINE
  8
0
 10
258
 20
126
 11
208
 21
126
  0
LINE
  8
0
 10
208
 20
130
 11
208
 21
131
  0
LINE
  8
0
 10
208
 20
131
 11
258
 21
131
  0
LINE
  8
0
 10
258
 20
131
 11
258
 21
130
  0
LINE
  8
0
 10
258
 20
130
 11
208
 21
130
  0
LINE
  8
0
 10
208
 20
134
 11
208
 21
135
  0
LINE
  8
0
 10
208
 20
135
 11
258
 21
135
  0
LINE
  8
0
 10
258
 20
135
 11
258
 21
134
  0
LINE
  8
0
 10
258
 20
134
 11
208
 21
134
  0
LINE
  8
0
 10
208
 20
138
 11
208
 21
139
  0
LINE
  8
0
 10
208
 20
139
 11
258
 21
139
  0
LINE
  8
0
 10
258
 20
139
 11
258
 21
138
  0
LINE
  8
0
 10
258
 20
138
 11
208
 21
138
  0
LINE
  8
0
 10
208
 20
142
 11
208
 21
143
  0
LINE
  8
0
 10
208
 20
143
 11
258
 21
143
  0
LINE
  8
0
 10
258
 20
143
 11
258
 21
142
  0
LINE
  8
0
 10
258
 20
142
 11
208
 21
142
  0
LINE
  8
0
 10
208
 20
146
 11
208
 21
147
  0
LINE
  8
0
 10
208
 20
147
 11
258
 21
147
  0
LINE
  8
0
 10
258
 20
147
 11
258
 21
146
  0
LINE
  8
0
 10
258
 20
146
 11
208
 21
146
  0
LINE
  8
0
 10
208
 20
150
 11
208
 21
151
  0
LINE
  8
0
 10
208
 20
151
 11
258
 21
151
  0
LINE
  8
0
 10
258
 20
151
 11
258
 21
150
  0
LINE
  8
0
 10
258
 20
150
 11
208
 21
150
  0
LINE
  8
0
 10
208
 20
154
 11
208
 21
155
  0
LINE
  8
0
 10
208
 20
155
 11
258
 21
155
  0
LINE
  8
0
 10
258
 20
155
 11
258
 21
154
  0
LINE
  8
0
 10
258
 20
154
 11
208
 21
154
  0
LINE
  8
0
 10
208
 20
158
 11
208
 21
159
  0
LINE
  8
0
 10
208
 20
159
 11
258
 21
159
  0
LINE
  8
0
 10
258
 20
159
 11
258
 21
158
  0
LINE
  8
0
 10
258
 20
158
 11
208
 21
158
  0
LINE
  8
0
 10
208
 20
162
 11
208
 21
163
  0
LINE
  8
0
 10
208
 20
163
 11
258
 21
163
  0
LINE
  8
0
 10
258
 20
163
 11
258
 21
162
  0
LINE
  8
0
 10
258
 20
162
 11
208
 21
162
  0
LINE
  8
0
 10
208
 20
166
 11
208
 21
167
  0
LINE
  8
0
 10
208
 20
167
 11
258
 21
167
  0
LINE
  8
0
 10
258
 20
167
 11
258
 21
166
  0
LINE
  8
0
 10
258
 20
166
 11
208
 21
166
  0
LINE
  8
0
 10
208
 20
170
 11
208
 21
171
  0
LINE
  8
0
 10
208
 20
171
 11
258
 21
171
  0
LINE
  8
0
 10
258
 20
171
 11
258
 21
170
  0
LINE
  8
0
 10
258
 20
170
 11
208
 21
170
  0
LINE
  8
0
 10
208
 20
174
 11
208
 21
175
  0
LINE
  8
0
 10
208
 20
175
 11
258
 21
175
  0
LINE
  8
0
 10
258
 20
175
 11
258
 21
174
  0
LINE
  8
0
 10
258
 20
174
 11
208
 21
174
  0
LINE
  8
0
 10
208
 20
178
 11
208
 21
179
  0
LINE
  8
0
 10
208
 20
179
 11
258
 21
179
  0
LINE
  8
0
 10
258
 20
179
 11
258
 21
178
  0
LINE
  8
0
 10
258
 20
178
 11
208
 21
178
  0
LINE
  8
0
 10
208
 20
182
 11
208
 21
183
  0
LINE
  8
0
 10
208
 20
183
 11
258
 21
183
  0
LINE
  8
0
 10
258
 20
183
 11
258
 21
182
  0
LINE
  8
0
 10
258
 20
182
 11
208
 21
182
  0
LINE
  8
0
 10
208
 20
186
 11
208
 21
187
  0
LINE
  8
0
 10
208
 20
187
 11
258
 21
187
  0
LINE
  8
0
 10
258
 20
187
 11
258
 21
186
  0
LINE
  8
0
 10
258
 20
186
 11
208
 21
186
  0
LINE
  8
0
 10
208
 20
190
 11
208
 21
191
  0
LINE
  8
0
 10
208
 20
191
 11
258
 21
191
  0
LINE
  8
0
 10
258
 20
191
 11
258
 21
190
  0
LINE
  8
0
 10
258
 20
190
 11
208
 21
190
  0
LINE
  8
0
 10
208
 20
194
 11
208
 21
195
  0
LINE
  8
0
 10
208
 20
195
 11
258
 21
195
  0
LINE
  8
0
 10
258
 20
195
 11
258
 21
194
  0
LINE
  8
0
 10
258
 20
194
 11
208
 21
194
  0
LINE
  8
0
 10
208
 20
198
 11
208
 21
199
  0
LINE
  8
0
 10
208
 20
199
 11
258
 21
199
  0
LINE
  8
0
 10
258
 20
199
 11
258
 21
198
  0
LINE
  8
0
 10
258
 20
198
 11
208
 21
198
  0
LINE
  8
0
 10
208
 20
202
 11
208
 21
203
  0
LINE
  8
0
 10
208
 20
203
 11
258
 21
203
  0
LINE
  8
0
 10
258
 20
203
 11
258
 21
202
  0
LINE
  8
0
 10
258
 20
202
 11
208
 21
202
  0
LINE
  8
0
 10
208
 20
206
 11
208
 21
207
  0
LINE
  8
0
 10
208
 20
207
 11
258
 21
207
  0
LINE
  8
0
 10
258
 20
207
 11
258
 21
206
  0
LINE
  8
0
 10
258
 20
206
 11
208
 21
206
  0
LINE
  8
0
 10
208
 20
210
 11
208
 21
211
  0
LINE
  8
0
 10
208
 20
211
 11
258
 21
211
  0
LINE
  8
0
 10
258
 20
211
 11
258
 21
210
  0
LINE
  8
0
 10
258
 20
210
 11
208
 21
210
  0
LINE
  8
0
 10
208
 20
214
 11
208
 21
215
  0
LINE
  8
0
 10
208
 20
215
 11
258
 21
215
  0
LINE
  8
0
 10
258
 20
215
 11
258
 21
214
  0
LINE
  8
0
 10
258
 20
214
 11
208
 21
214
  0
LINE
  8
0
 10
208
 20
218
 11
208
 21
219
  0
LINE
  8
0
 10
208
 20
219
 11
258
 21
219
  0
LINE
  8
0
 10
258
 20
219
 11
258
 21
218
  0
LINE
  8
0
 10
258
 20
218
 11
208
 21
218
  0
LINE
  8
0
 10
208
 20
222
 11
208
 21
223
  0
LINE
  8
0
 10
208
 20
223
 11
258
 21
223
  0
LINE
  8
0
 10
258
 20
223
 11
258
 21
222
  0
LINE
  8
0
 10
258
 20
222
 11
208
 21
222
  0
LINE
  8
0
 10
208
 20
226
 11
208
 21
227
  0
LINE
  8
0
 10
208
 20
227
 11
258
 21
227
  0
LINE
  8
0
 10
258
 20
227
 11
258
 21
226
  0
LINE
  8
0
 10
258
 20
226
 11
208
 21
226
  0
LINE
  8
0
 10
208
 20
230
 11
208
 21
231
  0
LINE
  8
0
 10
208
 20
231
 11
258
 21
231
  0
LINE
  8
0
 10
258
 20
231
 11
258
 21
230
  0
LINE
  8
0
 10
258
 20
230
 11
208
 21
230
  0
LINE
  8
0
 10
208
 20
234
 11
208
 21
235
  0
LINE
  8
0
 10
208
 20
235
 11
258
 21
235
  0
LINE
  8
0
 10
258
 20
235
 11
258
 21
234
  0
LINE
  8
0
 10
258
 20
234
 11
208
 21
234
  0
LINE
  8
0
 10
208
 20
238
 11
208
 21
239
  0
LINE
  8
0
 10
208
 20
239
 11
258
 21
239
  0
LINE
  8
0
 10
258
 20
239
 11
258
 21
238
  0
LINE
  8
0
 10
258
 20
238
 11
208
 21
238
  0
LINE
  8
0
 10
208
 20
242
 11
208
 21
243
  0
LINE
  8
0
 10
208
 20
243
 11
258
 21
243
  0
LINE
  8
0
 10
258
 20
243
 11
258
 21
242
  0
LINE
  8
0
 10
258
 20
242
 11
208
 21
242
  0
LINE
  8
0
 10
210
 20
4
 11
210
 21
5
  0
LINE
  8
0
 10
210
 20
5
 11
260
 21
5
  0
LINE
  8
0
 10
260
 20
5
 11
260
 21
4
  0
LINE
  8
0
 10
260
 20
4
 11
210
 21
4
  0
LINE
  8
0
 10
210
 20
8
 11
210
 21
9
  0
LINE
  8
0
 10
210
 20
9
 11
260
 21
9
  0
LINE
  8
0
 10
260
 20
9
 11
260
 21
8
  0
LINE
  8
0
 10
260
 20
8
 11
210
 21
8
  0
LINE
  8
0
 10
210
 20
12
 11
210
 21
13
  0
LINE
  8
0
 10
210
 20
13
 11
260
 21
13
  0
LINE
  8
0
 10
260
 20
13
 11
260
 21
12
  0
LINE
  8
0
 10
260
 20
12
 11
210
 21
12
  0
LINE
  8
0
 10
210
 20
16
 11
210
 21
17
  0
LINE
  8
0
 10
210
 20
17
 11
260
 21
17
  0
LINE
  8
0
 10
260
 20
17
 11
260
 21
16
  0
LINE
  8
0
 10
260
 20
16
 11
210
 21
16
  0
LINE
  8
0
 10
210
 20
20
 11
210
 21
21
  0
LINE
  8
0
 10
210
 20
21
 11
260
 21
21
  0
LINE
  8
0
 10
260
 20
21
 11
260
 21
20
  0
LINE
  8
0
 10
260
 20
20
 11
210
 21
20
  0
LINE
  8
0
 10
210
 20
24
 11
210
 21
25
  0
LINE
  8
0
 10
210
 20
25
 11
260
 21
25
  0
LINE
  8
0
 10
260
 20
25
 11
260
 21
24
  0
LINE
  8
0
 10
260
 20
24
 11
210
 21
24
  0
LINE
  8
0
 10
210
 20
28
 11
210
 21
29
  0
LINE
  8
0
 10
210
 20
29
 11
260
 21
29
  0
LINE
  8
0
 10
260
 20
29
 11
260
 21
28
  0
LINE
  8
0
 10
260
 20
28
 11
210
 21
28
  0
LINE
  8
0
 10
210
 20
32
 11
210
 21
33
  0
LINE
  8
0
 10
210
 20
33
 11
260
 21
33
  0
LINE
  8
0
 10
260
 20
33
 11
260
 21
32
  0
LINE
  8
0
 10
260
 20
32
 11
210
 21
32
  0
LINE
  8
0
 10
210
 20
36
 11
210
 21
37
  0
LINE
  8
0
 10
210
 20
37
 11
260
 21
37
  0
LINE
  8
0
 10
260
 20
37
 11
260
 21
36
  0
LINE
  8
0
 10
260
 20
36
 11
210
 21
36
  0
LINE
  8
0
 10
210
 20
40
 11
210
 21
41
  0
LINE
  8
0
 10
210
 20
41
 11
260
 21
41
  0
LINE
  8
0
 10
260
 20
41
 11
260
 21
40
  0
LINE
  8
0
 10
260
 20
40
 11
210
 21
40
  0
LINE
  8
0
 10
210
 20
44
 11
210
 21
45
  0
LINE
  8
0
 10
210
 20
45
 11
260
 21
45
  0
LINE
  8
0
 10
260
 20
45
 11
260
 21
44
  0
LINE
  8
0
 10
260
 20
44
 11
210
 21
44
  0
LINE
  8
0
 10
210
 20
48
 11
210
 21
49
  0
LINE
  8
0
 10
210
 20
49
 11
260
 21
49
  0
LINE
  8
0
 10
260
 20
49
 11
260
 21
48
  0
LINE
  8
0
 10
260
 20
48
 11
210
 21
48
  0
LINE
  8
0
 10
210
 20
52
 11
210
 21
53
  0
LINE
  8
0
 10
210
 20
53
 11
260
 21
53
  0
LINE
  8
0
 10
260
 20
53
 11
260
 21
52
  0
LINE
  8
0
 10
260
 20
52
 11
210
 21
52
  0
LINE
  8
0
 10
210
 20
56
 11
210
 21
57
  0
LINE
  8
0
 10
210
 20
57
 11
260
 21
57
  0
LINE
  8
0
 10
260
 20
57
 11
260
 21
56
  0
LINE
  8
0
 10
260
 20
56
 11
210
 21
56
  0
LINE
  8
0
 10
210
 20
60
 11
210
 21
61
  0
LINE
  8
0
 10
210
 20
61
 11
260
 21
61
  0
LINE
  8
0
 10
260
 20
61
 11
260
 21
60
  0
LINE
  8
0
 10
260
 20
60
 11
210
 21
60
  0
LINE
  8
0
 10
210
 20
64
 11
210
 21
65
  0
LINE
  8
0
 10
210
 20
65
 11
260
 21
65
  0
LINE
  8
0
 10
260
 20
65
 11
260
 21
64
  0
LINE
  8
0
 10
260
 20
64
 11
210
 21
64
  0
LINE
  8
0
 10
210
 20
68
 11
210
 21
69
  0
LINE
  8
0
 10
210
 20
69
 11
260
 21
69
  0
LINE
  8
0
 10
260
 20
69
 11
260
 21
68
  0
LINE
  8
0
 10
260
 20
68
 11
210
 21
68
  0
LINE
  8
0
 10
210
 20
72
 11
210
 21
73
  0
LINE
  8
0
 10
210
 20
73
 11
260
 21
73
  0
LINE
  8
0
 10
260
 20
73
 11
260
 21
72
  0
LINE
  8
0
 10
260
 20
72
 11
210
 21
72
  0
LINE
  8
0
 10
210
 20
76
 11
210
 21
77
  0
LINE
  8
0
 10
210
 20
77
 11
260
 21
77
  0
LINE
  8
0
 10
260
 20
77
 11
260
 21
76
  0
LINE
  8
0
 10
260
 20
76
 11
210
 21
76
  0
LINE
  8
0
 10
210
 20
80
 11
210
 21
81
  0
LINE
  8
0
 10
210
 20
81
 11
260
 21
81
  0
LINE
  8
0
 10
260
 20
81
 11
260
 21
80
  0
LINE
  8
0
 10
260
 20
80
 11
210
 21
80
  0
LINE
  8
0
 10
210
 20
84
 11
210
 21
85
  0
LINE
  8
0
 10
210
 20
85
 11
260
 21
85
  0
LINE
  8
0
 10
260
 20
85
 11
260
 21
84
  0
LINE
  8
0
 10
260
 20
84
 11
210
 21
84
  0
LINE
  8
0
 10
210
 20
88
 11
210
 21
89
  0
LINE
  8
0
 10
210
 20
89
 11
260
 21
89
  0
LINE
  8
0
 10
260
 20
89
 11
260
 21
88
  0
LINE
  8
0
 10
260
 20
88
 11
210
 21
88
  0
LINE
  8
0
 10
210
 20
92
 11
210
 21
93
  0
LINE
  8
0
 10
210
 20
93
 11
260
 21
93
  0
LINE
  8
0
 10
260
 20
93
 11
260
 21
92
  0
LINE
  8
0
 10
260
 20
92
 11
210
 21
92
  0
LINE
  8
0
 10
210
 20
96
 11
210
 21
97
  0
LINE
  8
0
 10
210
 20
97
 11
260
 21
97
  0
LINE
  8
0
 10
260
 20
97
 11
260
 21
96
  0
LINE
  8
0
 10
260
 20
96
 11
210
 21
96
  0
LINE
  8
0
 10
210
 20
100
 11
210
 21
101
  0
LINE
  8
0
 10
210
 20
101
 11
260
 21
101
  0
LINE
  8
0
 10
260
 20
101
 11
260
 21
100
  0
LINE
  8
0
 10
260
 20
100
 11
210
 21
100
  0
LINE
  8
0
 10
210
 20
104
 11
210
 21
105
  0
LINE
  8
0
 10
210
 20
105
 11
260
 21
105
  0
LINE
  8
0
 10
260
 20
105
 11
260
 21
104
  0
LINE
  8
0
 10
260
 20
104
 11
210
 21
104
  0
LINE
  8
0
 10
210
 20
108
 11
210
 21
109
  0
LINE
  8
0
 10
210
 20
109
 11
260
 21
109
  0
LINE
  8
0
 10
260
 20
109
 11
260
 21
108
  0
LINE
  8
0
 10
260
 20
108
 11
210
 21
108
  0
LINE
  8
0
 10
210
 20
112
 11
210
 21
113
  0
LINE
  8
0
 10
210
 20
113
 11
260
 21
113
  0
LINE
  8
0
 10
260
 20
113
 11
260
 21
112
  0
LINE
  8
0
 10
260
 20
112
 11
210
 21
112
  0
LINE
  8
0
 10
210
 20
116
 11
210
 21
117
  0
LINE
  8
0
 10
210
 20
117
 11
260
 21
117
  0
LINE
  8
0
 10
260
 20
117
 11
260
 21
116
  0
LINE
  8
0
 10
260
 20
116
 11
210
 21
116
  0
LINE
  8
0
 10
210
 20
120
 11
210
 21
121
  0
LINE
  8
0
 10
210
 20
121
 11
260
 21
121
  0
LINE
  8
0
 10
260
 20
121
 11
260
 21
120
  0
LINE
  8
0
 10
260
 20
120
 11
210
 21
120
  0
LINE
  8
0
 10
210
 20
124
 11
210
 21
125
  0
LINE
  8
0
 10
210
 20
125
 11
260
 21
125
  0
LINE
  8
0
 10
260
 20
125
 11
260
 21
124
  0
LINE
  8
0
 10
260
 20
124
 11
210
 21
124
  0
LINE
  8
0
 10
210
 20
128
 11
210
 21
129
  0
LINE
  8
0
 10
210
 20
129
 11
260
 21
129
  0
LINE
  8
0
 10
260
 20
129
 11
260
 21
128
  0
LINE
  8
0
 10
260
 20
128
 11
210
 21
128
  0
LINE
  8
0
 10
210
 20
132
 11
210
 21
133
  0
LINE
  8
0
 10
210
 20
133
 11
260
 21
133
  0
LINE
  8
0
 10
260
 20
133
 11
260
 21
132
  0
LINE
  8
0
 10
260
 20
132
 11
210
 21
132
  0
LINE
  8
0
 10
210
 20
136
 11
210
 21
137
  0
LINE
  8
0
 10
210
 20
137
 11
260
 21
137
  0
LINE
  8
0
 10
260
 20
137
 11
260
 21
136
  0
LINE
  8
0
 10
260
 20
136
 11
210
 21
136
  0
LINE
  8
0
 10
210
 20
140
 11
210
 21
141
  0
LINE
  8
0
 10
210
 20
141
 11
260
 21
141
  0
LINE
  8
0
 10
260
 20
141
 11
260
 21
140
  0
LINE
  8
0
 10
260
 20
140
 11
210
 21
140
  0
LINE
  8
0
 10
210
 20
144
 11
210
 21
145
  0
LINE
  8
0
 10
210
 20
145
 11
260
 21
145
  0
LINE
  8
0
 10
260
 20
145
 11
260
 21
144
  0
LINE
  8
0
 10
260
 20
144
 11
210
 21
144
  0
LINE
  8
0
 10
210
 20
148
 11
210
 21
149
  0
LINE
  8
0
 10
210
 20
149
 11
260
 21
149
  0
LINE
  8
0
 10
260
 20
149
 11
260
 21
148
  0
LINE
  8
0
 10
260
 20
148
 11
210
 21
148
  0
LINE
  8
0
 10
210
 20
152
 11
210
 21
153
  0
LINE
  8
0
 10
210
 20
153
 11
260
 21
153
  0
LINE
  8
0
 10
260
 20
153
 11
260
 21
152
  0
LINE
  8
0
 10
260
 20
152
 11
210
 21
152
  0
LINE
  8
0
 10
210
 20
156
 11
210
 21
157
  0
LINE
  8
0
 10
210
 20
157
 11
260
 21
157
  0
LINE
  8
0
 10
260
 20
157
 11
260
 21
156
  0
LINE
  8
0
 10
260
 20
156
 11
210
 21
156
  0
LINE
  8
0
 10
210
 20
160
 11
210
 21
161
  0
LINE
  8
0
 10
210
 20
161
 11
260
 21
161
  0
LINE
  8
0
 10
260
 20
161
 11
260
 21
160
  0
LINE
  8
0
 10
260
 20
160
 11
210
 21
160
  0
LINE
  8
0
 10
210
 20
164
 11
210
 21
165
  0
LINE
  8
0
 10
210
 20
165
 11
260
 21
165
  0
LINE
  8
0
 10
260
 20
165
 11
260
 21
164
  0
LINE
  8
0
 10
260
 20
164
 11
210
 21
164
  0
LINE
  8
0
 10
210
 20
168
 11
210
 21
169
  0
LINE
  8
0
 10
210
 20
169
 11
260
 21
169
  0
LINE
  8
0
 10
260
 20
169
 11
260
 21
168
  0
LINE
  8
0
 10
260
 20
168
 11
210
 21
168
  0
LINE
  8
0
 10
210
 20
172
 11
210
 21
173
  0
LINE
  8
0
 10
210
 20
173
 11
260
 21
173
  0
LINE
  8
0
 10
260
 20
173
 11
260
 21
172
  0
LINE
  8
0
 10
260
 20
172
 11
210
 21
172
  0
LINE
  8
0
 10
210
 20
176
 11
210
 21
177
  0
LINE
  8
0
 10
210
 20
177
 11
260
 21
177
  0
LINE
  8
0
 10
260
 20
177
 11
260
 21
176
  0
LINE
  8
0
 10
260
 20
176
 11
210
 21
176
  0
LINE
  8
0
 10
210
 20
180
 11
210
 21
181
  0
LINE
  8
0
 10
210
 20
181
 11
260
 21
181
  0
LINE
  8
0
 10
260
 20
181
 11
260
 21
180
  0
LINE
  8
0
 10
260
 20
180
 11
210
 21
180
  0
LINE
  8
0
 10
210
 20
184
 11
210
 21
185
  0
LINE
  8
0
 10
210
 20
185
 11
260
 21
185
  0
LINE
  8
0
 10
260
 20
185
 11
260
 21
184
  0
LINE
  8
0
 10
260
 20
184
 11
210
 21
184
  0
LINE
  8
0
 10
210
 20
188
 11
210
 21
189
  0
LINE
  8
0
 10
210
 20
189
 11
260
 21
189
  0
LINE
  8
0
 10
260
 20
189
 11
260
 21
188
  0
LINE
  8
0
 10
260
 20
188
 11
210
 21
188
  0
LINE
  8
0
 10
210
 20
192
 11
210
 21
193
  0
LINE
  8
0
 10
210
 20
193
 11
260
 21
193
  0
LINE
  8
0
 10
260
 20
193
 11
260
 21
192
  0
LINE
  8
0
 10
260
 20
192
 11
210
 21
192
  0
LINE
  8
0
 10
210
 20
196
 11
210
 21
197
  0
LINE
  8
0
 10
210
 20
197
 11
260
 21
197
  0
LINE
  8
0
 10
260
 20
197
 11
260
 21
196
  0
LINE
  8
0
 10
260
 20
196
 11
210
 21
196
  0
LINE
  8
0
 10
210
 20
200
 11
210
 21
201
  0
LINE
  8
0
 10
210
 20
201
 11
260
 21
201
  0
LINE
  8
0
 10
260
 20
201
 11
260
 21
200
  0
LINE
  8
0
 10
260
 20
200
 11
210
 21
200
  0
LINE
  8
0
 10
210
 20
204
 11
210
 21
205
  0
LINE
  8
0
 10
210
 20
205
 11
260
 21
205
  0
LINE
  8
0
 10
260
 20
205
 11
260
 21
204
  0
LINE
  8
0
 10
260
 20
204
 11
210
 21
204
  0
LINE
  8
0
 10
210
 20
208
 11
210
 21
209
  0
LINE
  8
0
 10
210
 20
209
 11
260
 21
209
  0
LINE
  8
0
 10
260
 20
209
 11
260
 21
208
  0
LINE
  8
0
 10
260
 20
208
 11
210
 21
208
  0
LINE
  8
0
 10
210
 20
212
 11
210
 21
213
  0
LINE
  8
0
 10
210
 20
213
 11
260
 21
213
  0
LINE
  8
0
 10
260
 20
213
 11
260
 21
212
  0
LINE
  8
0
 10
260
 20
212
 11
210
 21
212
  0
LINE
  8
0
 10
210
 20
216
 11
210
 21
217
  0
LINE
  8
0
 10
210
 20
217
 11
260
 21
217
  0
LINE
  8
0
 10
260
 20
217
 11
260
 21
216
  0
LINE
  8
0
 10
260
 20
216
 11
210
 21
216
  0
LINE
  8
0
 10
210
 20
220
 11
210
 21
221
  0
LINE
  8
0
 10
210
 20
221
 11
260
 21
221
  0
LINE
  8
0
 10
260
 20
221
 11
260
 21
220
  0
LINE
  8
0
 10
260
 20
220
 11
210
 21
220
  0
LINE
  8
0
 10
210
 20
224
 11
210
 21
225
  0
LINE
  8
0
 10
210
 20
225
 11
260
 21
225
  0
LINE
  8
0
 10
260
 20
225
 11
260
 21
224
  0
LINE
  8
0
 10
260
 20
224
 11
210
 21
224
  0
LINE
  8
0
 10
210
 20
228
 11
210
 21
229
  0
LINE
  8
0
 10
210
 20
229
 11
260
 21
229
  0
LINE
  8
0
 10
260
 20
229
 11
260
 21
228
  0
LINE
  8
0
 10
260
 20
228
 11
210
 21
228
  0
LINE
  8
0
 10
210
 20
232
 11
210
 21
233
  0
LINE
  8
0
 10
210
 20
233
 11
260
 21
233
  0
LINE
  8
0
 10
260
 20
233
 11
260
 21
232
  0
LINE
  8
0
 10
260
 20
232
 11
210
 21
232
  0
LINE
  8
0
 10
210
 20
236
 11
210
 21
237
  0
LINE
  8
0
 10
210
 20
237
 11
260
 21
237
  0
LINE
  8
0
 10
260
 20
237
 11
260
 21
236
  0
LINE
  8
0
 10
260
 20
236
 11
210
 21
236
  0
LINE
  8
0
 10
210
 20
240
 11
210
 21
241
  0
LINE
  8
0
 10
210
 20
241
 11
260
 21
241
  0
LINE
  8
0
 10
260
 20
241
 11
260
 21
240
  0
LINE
  8
0
 10
260
 20
240
 11
210
 21
240
  0
LINE
  8
0
 10
210
 20
244
 11
210
 21
245
  0
LINE
  8
0
 10
210
 20
245
 11
260
 21
245
  0
LINE
  8
0
 10
260
 20
245
 11
260
 21
244
  0
LINE
  8
0
 10
260
 20
244
 11
210
 21
244
  0
LINE
  8
0
 10
260
 20
2
 11
260
 21
3
  0
LINE
  8
0
 10
260
 20
3
 11
310
 21
3
  0
LINE
  8
0
 10
310
 20
3
 11
310
 21
2
  0
LINE
  8
0
 10
310
 20
2
 11
260
 21
2
  0
LINE
  8
0
 10
260
 20
6
 11
260
 21
7
  0
LINE
  8
0
 10
260
 20
7
 11
310
 21
7
  0
LINE
  8
0
 10
310
 20
7
 11
310
 21
6
  0
LINE
  8
0
 10
310
 20
6
 11
260
 21
6
  0
LINE
  8
0
 10
260
 20
10
 11
260
 21
11
  0
LINE
  8
0
 10
260
 20
11
 11
310
 21
11
  0
LINE
  8
0
 10
310
 20
11
 11
310
 21
10
  0
LINE
  8
0
 10
310
 20
10
 11
260
 21
10
  0
LINE
  8
0
 10
260
 20
14
 11
260
 21
15
  0
LINE
  8
0
 10
260
 20
15
 11
310
 21
15
  0
LINE
  8
0
 10
310
 20
15
 11
310
 21
14
  0
LINE
  8
0
 10
310
 20
14
 11
260
 21
14
  0
LINE
  8
0
 10
260
 20
18
 11
260
 21
19
  0
LINE
  8
0
 10
260
 20
19
 11
310
 21
19
  0
LINE
  8
0
 10
310
 20
19
 11
310
 21
18
  0
LINE
  8
0
 10
310
 20
18
 11
260
 21
18
  0
LINE
  8
0
 10
260
 20
22
 11
260
 21
23
  0
LINE
  8
0
 10
260
 20
23
 11
310
 21
23
  0
LINE
  8
0
 10
310
 20
23
 11
310
 21
22
  0
LINE
  8
0
 10
310
 20
22
 11
260
 21
22
  0
LINE
  8
0
 10
260
 20
26
 11
260
 21
27
  0
LINE
  8
0
 10
260
 20
27
 11
310
 21
27
  0
LINE
  8
0
 10
310
 20
27
 11
310
 21
26
  0
LINE
  8
0
 10
310
 20
26
 11
260
 21
26
  0
LINE
  8
0
 10
260
 20
30
 11
260
 21
31
  0
LINE
  8
0
 10
260
 20
31
 11
310
 21
31
  0
LINE
  8
0
 10
310
 20
31
 11
310
 21
30
  0
LINE
  8
0
 10
310
 20
30
 11
260
 21
30
  0
LINE
  8
0
 10
260
 20
34
 11
260
 21
35
  0
LINE
  8
0
 10
260
 20
35
 11
310
 21
35
  0
LINE
  8
0
 10
310
 20
35
 11
310
 21
34
  0
LINE
  8
0
 10
310
 20
34
 11
260
 21
34
  0
LINE
  8
0
 10
260
 20
38
 11
260
 21
39
  0
LINE
  8
0
 10
260
 20
39
 11
310
 21
39
  0
LINE
  8
0
 10
310
 20
39
 11
310
 21
38
  0
LINE
  8
0
 10
310
 20
38
 11
260
 21
38
  0
LINE
  8
0
 10
260
 20
42
 11
260
 21
43
  0
LINE
  8
0
 10
260
 20
43
 11
310
 21
43
  0
LINE
  8
0
 10
310
 20
43
 11
310
 21
42
  0
LINE
  8
0
 10
310
 20
42
 11
260
 21
42
  0
LINE
  8
0
 10
260
 20
46
 11
260
 21
47
  0
LINE
  8
0
 10
260
 20
47
 11
310
 21
47
  0
LINE
  8
0
 10
310
 20
47
 11
310
 21
46
  0
LINE
  8
0
 10
310
 20
46
 11
260
 21
46
  0
LINE
  8
0
 10
260
 20
50
 11
260
 21
51
  0
LINE
  8
0
 10
260
 20
51
 11
310
 21
51
  0
LINE
  8
0
 10
310
 20
51
 11
310
 21
50
  0
LINE
  8
0
 10
310
 20
50
 11
260
 21
50
  0
LINE
  8
0
 10
260
 20
54
 11
260
 21
55
  0
LINE
  8
0
 10
260
 20
55
 11
310
 21
55
  0
LINE
  8
0
 10
310
 20
55
 11
310
 21
54
  0
LINE
  8
0
 10
310
 20
54
 11
260
 21
54
  0
LINE
  8
0
 10
260
 20
58
 11
260
 21
59
  0
LINE
  8
0
 10
260
 20
59
 11
310
 21
59
  0
LINE
  8
0
 10
310
 20
59
 11
310
 21
58
  0
LINE
  8
0
 10
310
 20
58
 11
260
 21
58
  0
LINE
  8
0
 10
260
 20
62
 11
260
 21
63
  0
LINE
  8
0
 10
260
 20
63
 11
310
 21
63
  0
LINE
  8
0
 10
310
 20
63
 11
310
 21
62
  0
LINE
  8
0
 10
310
 20
62
 11
260
 21
62
  0
LINE
  8
0
 10
260
 20
66
 11
260
 21
67
  0
LINE
  8
0
 10
260
 20
67
 11
310
 21
67
  0
LINE
  8
0
 10
310
 20
67
 11
310
 21
66
  0
LINE
  8
0
 10
310
 20
66
 11
260
 21
66
  0
LINE
  8
0
 10
260
 20
70
 11
260
 21
71
  0
LINE
  8
0
 10
260
 20
71
 11
310
 21
71
  0
LINE
  8
0
 10
310
 20
71
 11
310
 21
70
  0
LINE
  8
0
 10
310
 20
70
 11
260
 21
70
  0
LINE
  8
0
 10
260
 20
74
 11
260
 21
75
  0
LINE
  8
0
 10
260
 20
75
 11
310
 21
75
  0
LINE
  8
0
 10
310
 20
75
 11
310
 21
74
  0
LINE
  8
0
 10
310
 20
74
 11
260
 21
74
  0
LINE
  8
0
 10
260
 20
78
 11
260
 21
79
  0
LINE
  8
0
 10
260
 20
79
 11
310
 21
79
  0
LINE
  8
0
 10
310
 20
79
 11
310
 21
78
  0
LINE
  8
0
 10
310
 20
78
 11
260
 21
78
  0
LINE
  8
0
 10
260
 20
82
 11
260
 21
83
  0
LINE
  8
0
 10
260
 20
83
 11
310
 21
83
  0
LINE
  8
0
 10
310
 20
83
 11
310
 21
82
  0
LINE
  8
0
 10
310
 20
82
 11
260
 21
82
  0
LINE
  8
0
 10
260
 20
86
 11
260
 21
87
  0
LINE
  8
0
 10
260
 20
87
 11
310
 21
87
  0
LINE
  8
0
 10
310
 20
87
 11
310
 21
86
  0
LINE
  8
0
 10
310
 20
86
 11
260
 21
86
  0
LINE
  8
0
 10
260
 20
90
 11
260
 21
91
  0
LINE
  8
0
 10
260
 20
91
 11
310
 21
91
  0
LINE
  8
0
 10
310
 20
91
 11
310
 21
90
  0
LINE
  8
0
 10
310
 20
90
 11
260
 21
90
  0
LINE
  8
0
 10
260
 20
94
 11
260
 21
95
  0
LINE
  8
0
 10
260
 20
95
 11
310
 21
95
  0
LINE
  8
0
 10
310
 20
95
 11
310
 21
94
  0
LINE
  8
0
 10
310
 20
94
 11
260
 21
94
  0
LINE
  8
0
 10
260
 20
98
 11
260
 21
99
  0
LINE
  8
0
 10
260
 20
99
 11
310
 21
99
  0
LINE
  8
0
 10
310
 20
99
 11
310
 21
98
  0
LINE
  8
0
 10
310
 20
98
 11
260
 21
98
  0
LINE
  8
0
 10
260
 20
102
 11
260
 21
103
  0
LINE
  8
0
 10
260
 20
103
 11
310
 21
103
  0
LINE
  8
0
 10
310
 20
103
 11
310
 21
102
  0
LINE
  8
0
 10
310
 20
102
 11
260
 21
102
  0
LINE
  8
0
 10
260
 20
106
 11
260
 21
107
  0
LINE
  8
0
 10
260
 20
107
 11
310
 21
107
  0
LINE
  8
0
 10
310
 20
107
 11
310
 21
106
  0
LINE
  8
0
 10
310
 20
106
 11
260
 21
106
  0
LINE
  8
0
 10
260
 20
110
 11
260
 21
111
  0
LINE
  8
0
 10
260
 20
111
 11
310
 21
111
  0
LINE
  8
0
 10
310
 20
111
 11
310
 21
110
  0
LINE
  8
0
 10
310
 20
110
 11
260
 21
110
  0
LINE
  8
0
 10
260
 20
114
 11
260
 21
115
  0
LINE
  8
0
 10
260
 20
115
 11
310
 21
115
  0
LINE
  8
0
 10
310
 20
115
 11
310
 21
114
  0
LINE
  8
0
 10
310
 20
114
 11
260
 21
114
  0
LINE
  8
0
 10
260
 20
118
 11
260
 21
119
  0
LINE
  8
0
 10
260
 20
119
 11
310
 21
119
  0
LINE
  8
0
 10
310
 20
119
 11
310
 21
118
  0
LINE
  8
0
 10
310
 20
118
 11
260
 21
118
  0
LINE
  8
0
 10
260
 20
122
 11
260
 21
123
  0
LINE
  8
0
 10
260
 20
123
 11
310
 21
123
  0
LINE
  8
0
 10
310
 20
123
 11
310
 21
122
  0
LINE
  8
0
 10
310
 20
122
 11
260
 21
122
  0
LINE
  8
0
 10
260
 20
126
 11
260
 21
127
  0
LINE
  8
0
 10
260
 20
127
 11
310
 21
127
  0
LINE
  8
0
 10
310
 20
127
 11
310
 21
126
  0
LINE
  8
0
 10
310
 20
126
 11
260
 21
126
  0
LINE
  8
0
 10
260
 20
130
 11
260
 21
131
  0
LINE
  8
0
 10
260
 20
131
 11
310
 21
131
  0
LINE
  8
0
 10
310
 20
131
 11
310
 21
130
  0
LINE
  8
0
 10
310
 20
130
 11
260
 21
130
  0
LINE
  8
0
 10
260
 20
134
 11
260
 21
135
  0
LINE
  8
0
 10
260
 20
135
 11
310
 21
135
  0
LINE
  8
0
 10
310
 20
135
 11
310
 21
134
  0
LINE
  8
0
 10
310
 20
134
 11
260
 21
134
  0
LINE
  8
0
 10
260
 20
138
 11
260
 21
139
  0
LINE
  8
0
 10
260
 20
139
 11
310
 21
139
  0
LINE
  8
0
 10
310
 20
139
 11
310
 21
138
  0
LINE
  8
0
 10
310
 20
138
 11
260
 21
138
  0
LINE
  8
0
 10
260
 20
142
 11
260
 21
143
  0
LINE
  8
0
 10
260
 20
143
 11
310
 21
143
  0
LINE
  8
0
 10
310
 20
143
 11
310
 21
142
  0
LINE
  8
0
 10
310
 20
142
 11
260
 21
142
  0
LINE
  8
0
 10
260
 20
146
 11
260
 21
147
  0
LINE
  8
0
 10
260
 20
147
 11
310
 21
147
  0
LINE
  8
0
 10
310
 20
147
 11
310
 21
146
  0
LINE
  8
0
 10
310
 20
146
 11
260
 21
146
  0
LINE
  8
0
 10
260
 20
150
 11
260
 21
151
  0
LINE
  8
0
 10
260
 20
151
 11
310
 21
151
  0
LINE
  8
0
 10
310
 20
151
 11
310
 21
150
  0
LINE
  8
0
 10
310
 20
150
 11
260
 21
150
  0
LINE
  8
0
 10
260
 20
154
 11
260
 21
155
  0
LINE
  8
0
 10
260
 20
155
 11
310
 21
155
  0
LINE
  8
0
 10
310
 20
155
 11
310
 21
154
  0
LINE
  8
0
 10
310
 20
154
 11
260
 21
154
  0
LINE
  8
0
 10
260
 20
158
 11
260
 21
159
  0
LINE
  8
0
 10
260
 20
159
 11
310
 21
159
  0
LINE
  8
0
 10
310
 20
159
 11
310
 21
158
  0
LINE
  8
0
 10
310
 20
158
 11
260
 21
158
  0
LINE
  8
0
 10
260
 20
162
 11
260
 21
163
  0
LINE
  8
0
 10
260
 20
163
 11
310
 21
163
  0
LINE
  8
0
 10
310
 20
163
 11
310
 21
162
  0
LINE
  8
0
 10
310
 20
162
 11
260
 21
162
  0
LINE
  8
0
 10
260
 20
166
 11
260
 21
167
  0
LINE
  8
0
 10
260
 20
167
 11
310
 21
167
  0
LINE
  8
0
 10
310
 20
167
 11
310
 21
166
  0
LINE
  8
0
 10
310
 20
166
 11
260
 21
166
  0
LINE
  8
0
 10
260
 20
170
 11
260
 21
171
  0
LINE
  8
0
 10
260
 20
171
 11
310
 21
171
  0
LINE
  8
0
 10
310
 20
171
 11
310
 21
170
  0
LINE
  8
0
 10
310
 20
170
 11
260
 21
170
  0
LINE
  8
0
 10
260
 20
174
 11
260
 21
175
  0
LINE
  8
0
 10
260
 20
175
 11
310
 21
175
  0
LINE
  8
0
 10
310
 20
175
 11
310
 21
174
  0
LINE
  8
0
 10
310
 20
174
 11
260
 21
174
  0
LINE
  8
0
 10
260
 20
178
 11
260
 21
179
  0
LINE
  8
0
 10
260
 20
179
 11
310
 21
179
  0
LINE
  8
0
 10
310
 20
179
 11
310
 21
178
  0
LINE
  8
0
 10
310
 20
178
 11
260
 21
178
  0
LINE
  8
0
 10
260
 20
182
 11
260
 21
183
  0
LINE
  8
0
 10
260
 20
183
 11
310
 21
183
  0
LINE
  8
0
 10
310
 20
183
 11
310
 21
182
  0
LINE
  8
0
 10
310
 20
182
 11
260
 21
182
  0
LINE
  8
0
 10
260
 20
186
 11
260
 21
187
  0
LINE
  8
0
 10
260
 20
187
 11
310
 21
187
  0
LINE
  8
0
 10
310
 20
187
 11
310
 21
186
  0
LINE
  8
0
 10
310
 20
186
 11
260
 21
186
  0
LINE
  8
0
 10
260
 20
190
 11
260
 21
191
  0
LINE
  8
0
 10
260
 20
191
 11
310
 21
191
  0
LINE
  8
0
 10
310
 20
191
 11
310
 21
190
  0
LINE
  8
0
 10
310
 20
190
 11
260
 21
190
  0
LINE
  8
0
 10
260
 20
194
 11
260
 21
195
  0
LINE
  8
0
 10
260
 20
195
 11
310
 21
195
  0
LINE
  8
0
 10
310
 20
195
 11
310
 21
194
  0
LINE
  8
0
 10
310
 20
194
 11
260
 21
194
  0
LINE
  8
0
 10
260
 20
198
 11
260
 21
199
  0
LINE
  8
0
 10
260
 20
199
 11
310
 21
199
  0
LINE
  8
0
 10
310
 20
199
 11
310
 21
198
  0
LINE
  8
0
 10
310
 20
198
 11
260
 21
198
  0
LINE
  8
0
 10
260
 20
202
 11
260
 21
203
  0
LINE
  8
0
 10
260
 20
203
 11
310
 21
203
  0
LINE
  8
0
 10
310
 20
203
 11
310
 21
202
  0
LINE
  8
0
 10
310
 20
202
 11
260
 21
202
  0
LINE
  8
0
 10
260
 20
206
 11
260
 21
207
  0
LINE
  8
0
 10
260
 20
207
 11
310
 21
207
  0
LINE
  8
0
 10
310
 20
207
 11
310
 21
206
  0
LINE
  8
0
 10
310
 20
206
 11
260
 21
206
  0
LINE
  8
0
 10
260
 20
210
 11
260
 21
211
  0
LINE
  8
0
 10
260
 20
211
 11
310
 21
211
  0
LINE
  8
0
 10
310
 20
211
 11
310
 21
210
  0
LINE
  8
0
 10
310
 20
210
 11
260
 21
210
  0
LINE
  8
0
 10
260
 20
214
 11
260
 21
215
  0
LINE
  8
0
 10
260
 20
215
 11
310
 21
215
  0
LINE
  8
0
 10
310
 20
215
 11
310
 21
214
  0
LINE
  8
0
 10
310
 20
214
 11
260
 21
214
  0
LINE
  8
0
 10
260
 20
218
 11
260
 21
219
  0
LINE
  8
0
 10
260
 20
219
 11
310
 21
219
  0
LINE
  8
0
 10
310
 20
219
 11
310
 21
218
  0
LINE
  8
0
 10
310
 20
218
 11
260
 21
218
  0
LINE
  8
0
 10
260
 20
222
 11
260
 21
223
  0
LINE
  8
0
 10
260
 20
223
 11
310
 21
223
  0
LINE
  8
0
 10
310
 20
223
 11
310
 21
222
  0
LINE
  8
0
 10
310
 20
222
 11
260
 21
222
  0
LINE
  8
0
 10
260
 20
226
 11
260
 21
227
  0
LINE
  8
0
 10
260
 20
227
 11
310
 21
227
  0
LINE
  8
0
 10
310
 20
227
 11
310
 21
226
  0
LINE
  8
0
 10
310
 20
226
 11
260
 21
226
  0
LINE
  8
0
 10
260
 20
230
 11
260
 21
231
  0
LINE
  8
0
 10
260
 20
231
 11
310
 21
231
  0
LINE
  8
0
 10
310
 20
231
 11
310
 21
230
  0
LINE
  8
0
 10
310
 20
230
 11
260
 21
230
  0
LINE
  8
0
 10
260
 20
234
 11
260
 21
235
  0
LINE
  8
0
 10
260
 20
235
 11
310
 21
235
  0
LINE
  8
0
 10
310
 20
235
 11
310
 21
234
  0
LINE
  8
0
 10
310
 20
234
 11
260
 21
234
  0
LINE
  8
0
 10
260
 20
238
 11
260
 21
239
  0
LINE
  8
0
 10
260
 20
239
 11
310
 21
239
  0
LINE
  8
0
 10
310
 20
239
 11
310
 21
238
  0
LINE
  8
0
 10
310
 20
238
 11
260
 21
238
  0
LINE
  8
0
 10
260
 20
242
 11
260
 21
243
  0
LINE
  8
0
 10
260
 20
243
 11
310
 21
243
  0
LINE
  8
0
 10
310
 20
243
 11
310
 21
242
  0
LINE
  8
0
 10
310
 20
242
 11
260
 21
242
  0
LINE
  8
0
 10
262
 20
4
 11
262
 21
5
  0
LINE
  8
0
 10
262
 20
5
 11
312
 21
5
  0
LINE
  8
0
 10
312
 20
5
 11
312
 21
4
  0
LINE
  8
0
 10
312
 20
4
 11
262
 21
4
  0
LINE
  8
0
 10
262
 20
8
 11
262
 21
9
  0
LINE
  8
0
 10
262
 20
9
 11
312
 21
9
  0
LINE
  8
0
 10
312
 20
9
 11
312
 21
8
  0
LINE
  8
0
 10
312
 20
8
 11
262
 21
8
  0
LINE
  8
0
 10
262
 20
12
 11
262
 21
13
  0
LINE
  8
0
 10
262
 20
13
 11
312
 21
13
  0
LINE
  8
0
 10
312
 20
13
 11
312
 21
12
  0
LINE
  8
0
 10
312
 20
12
 11
262
 21
12
  0
LINE
  8
0
 10
262
 20
16
 11
262
 21
17
  0
LINE
  8
0
 10
262
 20
17
 11
312
 21
17
  0
LINE
  8
0
 10
312
 20
17
 11
312
 21
16
  0
LINE
  8
0
 10
312
 20
16
 11
262
 21
16
  0
LINE
  8
0
 10
262
 20
20
 11
262
 21
21
  0
LINE
  8
0
 10
262
 20
21
 11
312
 21
21
  0
LINE
  8
0
 10
312
 20
21
 11
312
 21
20
  0
LINE
  8
0
 10
312
 20
20
 11
262
 21
20
  0
LINE
  8
0
 10
262
 20
24
 11
262
 21
25
  0
LINE
  8
0
 10
262
 20
25
 11
312
 21
25
  0
LINE
  8
0
 10
312
 20
25
 11
312
 21
24
  0
LINE
  8
0
 10
312
 20
24
 11
262
 21
24
  0
LINE
  8
0
 10
262
 20
28
 11
262
 21
29
  0
LINE
  8
0
 10
262
 20
29
 11
312
 21
29
  0
LINE
  8
0
 10
312
 20
29
 11
312
 21
28
  0
LINE
  8
0
 10
312
 20
28
 11
262
 21
28
  0
LINE
  8
0
 10
262
 20
32
 11
262
 21
33
  0
LINE
  8
0
 10
262
 20
33
 11
312
 21
33
  0
LINE
  8
0
 10
312
 20
33
 11
312
 21
32
  0
LINE
  8
0
 10
312
 20
32
 11
262
 21
32
  0
LINE
  8
0
 10
262
 20
36
 11
262
 21
37
  0
LINE
  8
0
 10
262
 20
37
 11
312
 21
37
  0
LINE
  8
0
 10
312
 20
37
 11
312
 21
36
  0
LINE
  8
0
 10
312
 20
36
 11
262
 21
36
  0
LINE
  8
0
 10
262
 20
40
 11
262
 21
41
  0
LINE
  8
0
 10
262
 20
41
 11
312
 21
41
  0
LINE
  8
0
 10
312
 20
41
 11
312
 21
40
  0
LINE
  8
0
 10
312
 20
40
 11
262
 21
40
  0
LINE
  8
0
 10
262
 20
44
 11
262
 21
45
  0
LINE
  8
0
 10
262
 20
45
 11
312
 21
45
  0
LINE
  8
0
 10
312
 20
45
 11
312
 21
44
  0
LINE
  8
0
 10
312
 20
44
 11
262
 21
44
  0
LINE
  8
0
 10
262
 20
48
 11
262
 21
49
  0
LINE
  8
0
 10
262
 20
49
 11
312
 21
49
  0
LINE
  8
0
 10
312
 20
49
 11
312
 21
48
  0
LINE
  8
0
 10
312
 20
48
 11
262
 21
48
  0
LINE
  8
0
 10
262
 20
52
 11
262
 21
53
  0
LINE
  8
0
 10
262
 20
53
 11
312
 21
53
  0
LINE
  8
0
 10
312
 20
53
 11
312
 21
52
  0
LINE
  8
0
 10
312
 20
52
 11
262
 21
52
  0
LINE
  8
0
 10
262
 20
56
 11
262
 21
57
  0
LINE
  8
0
 10
262
 20
57
 11
312
 21
57
  0
LINE
  8
0
 10
312
 20
57
 11
312
 21
56
  0
LINE
  8
0
 10
312
 20
56
 11
262
 21
56
  0
LINE
  8
0
 10
262
 20
60
 11
262
 21
61
  0
LINE
  8
0
 10
262
 20
61
 11
312
 21
61
  0
LINE
  8
0
 10
312
 20
61
 11
312
 21
60
  0
LINE
  8
0
 10
312
 20
60
 11
262
 21
60
  0
LINE
  8
0
 10
262
 20
64
 11
262
 21
65
  0
LINE
  8
0
 10
262
 20
65
 11
312
 21
65
  0
LINE
  8
0
 10
312
 20
65
 11
312
 21
64
  0
LINE
  8
0
 10
312
 20
64
 11
262
 21
64
  0
LINE
  8
0
 10
262
 20
68
 11
262
 21
69
  0
LINE
  8
0
 10
262
 20
69
 11
312
 21
69
  0
LINE
  8
0
 10
312
 20
69
 11
312
 21
68
  0
LINE
  8
0
 10
312
 20
68
 11
262
 21
68
  0
LINE
  8
0
 10
262
 20
72
 11
262
 21
73
  0
LINE
  8
0
 10
262
 20
73
 11
312
 21
73
  0
LINE
  8
0
 10
312
 20
73
 11
312
 21
72
  0
LINE
  8
0
 10
312
 20
72
 11
262
 21
72
  0
LINE
  8
0
 10
262
 20
76
 11
262
 21
77
  0
LINE
  8
0
 10
262
 20
77
 11
312
 21
77
  0
LINE
  8
0
 10
312
 20
77
 11
312
 21
76
  0
LINE
  8
0
 10
312
 20
76
 11
262
 21
76
  0
LINE
  8
0
 10
262
 20
80
 11
262
 21
81
  0
LINE
  8
0
 10
262
 20
81
 11
312
 21
81
  0
LINE
  8
0
 10
312
 20
81
 11
312
 21
80
  0
LINE
  8
0
 10
312
 20
80
 11
262
 21
80
  0
LINE
  8
0
 10
262
 20
84
 11
262
 21
85
  0
LINE
  8
0
 10
262
 20
85
 11
312
 21
85
  0
LINE
  8
0
 10
312
 20
85
 11
312
 21
84
  0
LINE
  8
0
 10
312
 20
84
 11
262
 21
84
  0
LINE
  8
0
 10
262
 20
88
 11
262
 21
89
  0
LINE
  8
0
 10
262
 20
89
 11
312
 21
89
  0
LINE
  8
0
 10
312
 20
89
 11
312
 21
88
  0
LINE
  8
0
 10
312
 20
88
 11
262
 21
88
  0
LINE
  8
0
 10
262
 20
92
 11
262
 21
93
  0
LINE
  8
0
 10
262
 20
93
 11
312
 21
93
  0
LINE
  8
0
 10
312
 20
93
 11
312
 21
92
  0
LINE
  8
0
 10
312
 20
92
 11
262
 21
92
  0
LINE
  8
0
 10
262
 20
96
 11
262
 21
97
  0
LINE
  8
0
 10
262
 20
97
 11
312
 21
97
  0
LINE
  8
0
 10
312
 20
97
 11
312
 21
96
  0
LINE
  8
0
 10
312
 20
96
 11
262
 21
96
  0
LINE
  8
0
 10
262
 20
100
 11
262
 21
101
  0
LINE
  8
0
 10
262
 20
101
 11
312
 21
101
  0
LINE
  8
0
 10
312
 20
101
 11
312
 21
100
  0
LINE
  8
0
 10
312
 20
100
 11
262
 21
100
  0
LINE
  8
0
 10
262
 20
104
 11
262
 21
105
  0
LINE
  8
0
 10
262
 20
105
 11
312
 21
105
  0
LINE
  8
0
 10
312
 20
105
 11
312
 21
104
  0
LINE
  8
0
 10
312
 20
104
 11
262
 21
104
  0
LINE
  8
0
 10
262
 20
108
 11
262
 21
109
  0
LINE
  8
0
 10
262
 20
109
 11
312
 21
109
  0
LINE
  8
0
 10
312
 20
109
 11
312
 21
108
  0
LINE
  8
0
 10
312
 20
108
 11
262
 21
108
  0
LINE
  8
0
 10
262
 20
112
 11
262
 21
113
  0
LINE
  8
0
 10
262
 20
113
 11
312
 21
113
  0
LINE
  8
0
 10
312
 20
113
 11
312
 21
112
  0
LINE
  8
0
 10
312
 20
112
 11
262
 21
112
  0
LINE
  8
0
 10
262
 20
116
 11
262
 21
117
  0
LINE
  8
0
 10
262
 20
117
 11
312
 21
117
  0
LINE
  8
0
 10
312
 20
117
 11
312
 21
116
  0
LINE
  8
0
 10
312
 20
116
 11
262
 21
116
  0
LINE
  8
0
 10
262
 20
120
 11
262
 21
121
  0
LINE
  8
0
 10
262
 20
121
 11
312
 21
121
  0
LINE
  8
0
 10
312
 20
121
 11
312
 21
120
  0
LINE
  8
0
 10
312
 20
120
 11
262
 21
120
  0
LINE
  8
0
 10
262
 20
124
 11
262
 21
125
  0
LINE
  8
0
 10
262
 20
125
 11
312
 21
125
  0
LINE
  8
0
 10
312
 20
125
 11
312
 21
124
  0
LINE
  8
0
 10
312
 20
124
 11
262
 21
124
  0
LINE
  8
0
 10
262
 20
128
 11
262
 21
129
  0
LINE
  8
0
 10
262
 20
129
 11
312
 21
129
  0
LINE
  8
0
 10
312
 20
129
 11
312
 21
128
  0
LINE
  8
0
 10
312
 20
128
 11
262
 21
128
  0
LINE
  8
0
 10
262
 20
132
 11
262
 21
133
  0
LINE
  8
0
 10
262
 20
133
 11
312
 21
133
  0
LINE
  8
0
 10
312
 20
133
 11
312
 21
132
  0
LINE
  8
0
 10
312
 20
132
 11
262
 21
132
  0
LINE
  8
0
 10
262
 20
136
 11
262
 21
137
  0
LINE
  8
0
 10
262
 20
137
 11
312
 21
137
  0
LINE
  8
0
 10
312
 20
137
 11
312
 21
136
  0
LINE
  8
0
 10
312
 20
136
 11
262
 21
136
  0
LINE
  8
0
 10
262
 20
140
 11
262
 21
141
  0
LINE
  8
0
 10
262
 20
141
 11
312
 21
141
  0
LINE
  8
0
 10
312
 20
141
 11
312
 21
140
  0
LINE
  8
0
 10
312
 20
140
 11
262
 21
140
  0
LINE
  8
0
 10
262
 20
144
 11
262
 21
145
  0
LINE
  8
0
 10
262
 20
145
 11
312
 21
145
  0
LINE
  8
0
 10
312
 20
145
 11
312
 21
144
  0
LINE
  8
0
 10
312
 20
144
 11
262
 21
144
  0
LINE
  8
0
 10
262
 20
148
 11
262
 21
149
  0
LINE
  8
0
 10
262
 20
149
 11
312
 21
149
  0
LINE
  8
0
 10
312
 20
149
 11
312
 21
148
  0
LINE
  8
0
 10
312
 20
148
 11
262
 21
148
  0
LINE
  8
0
 10
262
 20
152
 11
262
 21
153
  0
LINE
  8
0
 10
262
 20
153
 11
312
 21
153
  0
LINE
  8
0
 10
312
 20
153
 11
312
 21
152
  0
LINE
  8
0
 10
312
 20
152
 11
262
 21
152
  0
LINE
  8
0
 10
262
 20
156
 11
262
 21
157
  0
LINE
  8
0
 10
262
 20
157
 11
312
 21
157
  0
LINE
  8
0
 10
312
 20
157
 11
312
 21
156
  0
LINE
  8
0
 10
312
 20
156
 11
262
 21
156
  0
LINE
  8
0
 10
262
 20
160
 11
262
 21
161
  0
LINE
  8
0
 10
262
 20
161
 11
312
 21
161
  0
LINE
  8
0
 10
312
 20
161
 11
312
 21
160
  0
LINE
  8
0
 10
312
 20
160
 11
262
 21
160
  0
LINE
  8
0
 10
262
 20
164
 11
262
 21
165
  0
LINE
  8
0
 10
262
 20
165
 11
312
 21
165
  0
LINE
  8
0
 10
312
 20
165
 11
312
 21
164
  0
LINE
  8
0
 10
312
 20
164
 11
262
 21
164
  0
LINE
  8
0
 10
262
 20
168
 11
262
 21
169
  0
LINE
  8
0
 10
262
 20
169
 11
312
 21
169
  0
LINE
  8
0
 10
312
 20
169
 11
312
 21
168
  0
LINE
  8
0
 10
312
 20
168
 11
262
 21
168
  0
LINE
  8
0
 10
262
 20
172
 11
262
 21
173
  0
LINE
  8
0
 10
262
 20
173
 11
312
 21
173
  0
LINE
  8
0
 10
312
 20
173
 11
312
 21
172
  0
LINE
  8
0
 10
312
 20
172
 11
262
 21
172
  0
LINE
  8
0
 10
262
 20
176
 11
262
 21
177
  0
LINE
  8
0
 10
262
 20
177
 11
312
 21
177
  0
LINE
  8
0
 10
312
 20
177
 11
312
 21
176
  0
LINE
  8
0
 10
312
 20
176
 11
262
 21
176
  0
LINE
  8
0
 10
262
 20
180
 11
262
 21
181
  0
LINE
  8
0
 10
262
 20
181
 11
312
 21
181
  0
LINE
  8
0
 10
312
 20
181
 11
312
 21
180
  0
LINE
  8
0
 10
312
 20
180
 11
262
 21
180
  0
LINE
  8
0
 10
262
 20
184
 11
262
 21
185
  0
LINE
  8
0
 10
262
 20
185
 11
312
 21
185
  0
LINE
  8
0
 10
312
 20
185
 11
312
 21
184
  0
LINE
  8
0
 10
312
 20
184
 11
262
 21
184
  0
LINE
  8
0
 10
262
 20
188
 11
262
 21
189
  0
LINE
  8
0
 10
262
 20
189
 11
312
 21
189
  0
LINE
  8
0
 10
312
 20
189
 11
312
 21
188
  0
LINE
  8
0
 10
312
 20
188
 11
262
 21
188
  0
LINE
  8
0
 10
262
 20
192
 11
262
 21
193
  0
LINE
  8
0
 10
262
 20
193
 11
312
 21
193
  0
LINE
  8
0
 10
312
 20
193
 11
312
 21
192
  0
LINE
  8
0
 10
312
 20
192
 11
262
 21
192
  0
LINE
  8
0
 10
262
 20
196
 11
262
 21
197
  0
LINE
  8
0
 10
262
 20
197
 11
312
 21
197
  0
LINE
  8
0
 10
312
 20
197
 11
312
 21
196
  0
LINE
  8
0
 10
312
 20
196
 11
262
 21
196
  0
LINE
  8
0
 10
262
 20
200
 11
262
 21
201
  0
LINE
  8
0
 10
262
 20
201
 11
312
 21
201
  0
LINE
  8
0
 10
312
 20
201
 11
312
 21
200
  0
LINE
  8
0
 10
312
 20
200
 11
262
 21
200
  0
LINE
  8
0
 10
262
 20
204
 11
262
 21
205
  0
LINE
  8
0
 10
262
 20
205
 11
312
 21
205
  0
LINE
  8
0
 10
312
 20
205
 11
312
 21
204
  0
LINE
  8
0
 10
312
 20
204
 11
262
 21
204
  0
LINE
  8
0
 10
262
 20
208
 11
262
 21
209
  0
LINE
  8
0
 10
262
 20
209
 11
312
 21
209
  0
LINE
  8
0
 10
312
 20
209
 11
312
 21
208
  0
LINE
  8
0
 10
312
 20
208
 11
262
 21
208
  0
LINE
  8
0
 10
262
 20
212
 11
262
 21
213
  0
LINE
  8
0
 10
262
 20
213
 11
312
 21
213
  0
LINE
  8
0
 10
312
 20
213
 11
312
 21
212
  0
LINE
  8
0
 10
312
 20
212
 11
262
 21
212
  0
LINE
  8
0
 10
262
 20
216
 11
262
 21
217
  0
LINE
  8
0
 10
262
 20
217
 11
312
 21
217
  0
LINE
  8
0
 10
312
 20
217
 11
312
 21
216
  0
LINE
  8
0
 10
312
 20
216
 11
262
 21
216
  0
LINE
  8
0
 10
262
 20
220
 11
262
 21
221
  0
LINE
  8
0
 10
262
 20
221
 11
312
 21
221
  0
LINE
  8
0
 10
312
 20
221
 11
312
 21
220
  0
LINE
  8
0
 10
312
 20
220
 11
262
 21
220
  0
LINE
  8
0
 10
262
 20
224
 11
262
 21
225
  0
LINE
  8
0
 10
262
 20
225
 11
312
 21
225
  0
LINE
  8
0
 10
312
 20
225
 11
312
 21
224
  0
LINE
  8
0
 10
312
 20
224
 11
262
 21
224
  0
LINE
  8
0
 10
262
 20
228
 11
262
 21
229
  0
LINE
  8
0
 10
262
 20
229
 11
312
 21
229
  0
LINE
  8
0
 10
312
 20
229
 11
312
 21
228
  0
LINE
  8
0
 10
312
 20
228
 11
262
 21
228
  0
LINE
  8
0
 10
262
 20
232
 11
262
 21
233
  0
LINE
  8
0
 10
262
 20
233
 11
312
 21
233
  0
LINE
  8
0
 10
312
 20
233
 11
312
 21
232
  0
LINE
  8
0
 10
312
 20
232
 11
262
 21
232
  0
LINE
  8
0
 10
262
 20
236
 11
262
 21
237
  0
LINE
  8
0
 10
262
 20
237
 11
312
 21
237
  0
LINE
  8
0
 10
312
 20
237
 11
312
 21
236
  0
LINE
  8
0
 10
312
 20
236
 11
262
 21
236
  0
LINE
  8
0
 10
262
 20
240
 11
262
 21
241
  0
LINE
  8
0
 10
262
 20
241
 11
312
 21
241
  0
LINE
  8
0
 10
312
 20
241
 11
312
 21
240
  0
LINE
  8
0
 10
312
 20
240
 11
262
 21
240
  0
LINE
  8
0
 10
262
 20
244
 11
262
 21
245
  0
LINE
  8
0
 10
262
 20
245
 11
312
 21
245
  0
LINE
  8
0
 10
312
 20
245
 11
312
 21
244
  0
LINE
  8
0
 10
312
 20
244
 11
262
 21
244
  0
ENDSEC
  0
SECTION
  2
OBJECTS
  0
DICTIONARY
  0
ENDSEC
  0
EOF
